M48
; DRILL file {KiCad 8.0.6} date 2026-03-22T13:56:35-0700
; FORMAT={-:-/ absolute / metric / decimal}
; #@! TF.CreationDate,2026-03-22T13:56:35-07:00
; #@! TF.GenerationSoftware,Kicad,Pcbnew,8.0.6
; #@! TF.FileFunction,Plated,1,4,PTH
FMAT,2
METRIC
; #@! TA.AperFunction,Plated,PTH,ViaDrill
T1C0.300
; #@! TA.AperFunction,Plated,PTH,ComponentDrill
T2C0.300
; #@! TA.AperFunction,Plated,PTH,ViaDrill
T3C0.400
; #@! TA.AperFunction,Plated,PTH,ComponentDrill
T4C0.600
; #@! TA.AperFunction,Plated,PTH,ComponentDrill
T5C1.000
; #@! TA.AperFunction,Plated,PTH,ComponentDrill
T6C1.100
; #@! TA.AperFunction,Plated,PTH,ComponentDrill
T7C3.200
%
G90
G05
T1
X100.75Y-91.65
X100.8Y-93.6
X100.8Y-95.6
X100.8Y-97.6
X100.8Y-99.6
X100.95Y-78.2
X100.95Y-111.8
X102.65Y-111.7
X104.1Y-111.65
X105.8Y-91.6
X105.8Y-94.3
X106.8Y-96.7
X107.2Y-77.3
X107.5Y-119.3
X108.0Y-92.2
X108.0Y-93.9
X108.2Y-117.8
X108.4Y-115.7
X108.8Y-71.35
X108.8Y-73.35
X108.8Y-75.35
X108.9Y-101.4
X109.1Y-91.4
X109.1Y-93.0
X109.1Y-94.6
X109.4Y-116.8
X109.5Y-77.3
X109.5Y-119.3
X110.4Y-118.1
X110.7Y-116.3
X111.5Y-119.3
X111.85Y-110.65
X112.1Y-118.1
X112.5Y-105.1
X112.5Y-106.7
X113.25Y-116.1
X113.5Y-119.3
X113.85Y-88.85
X114.5Y-115.0
X114.7Y-116.6
X115.5Y-119.3
X115.6Y-90.9
X115.95Y-103.6
X116.5Y-102.65
X116.6Y-108.025
X116.7Y-116.6
X117.5Y-119.3
X118.7Y-116.6
X119.5Y-119.3
X120.55Y-111.25
X120.7Y-116.6
X121.5Y-119.3
X121.85Y-112.25
X122.1Y-103.0
X122.7Y-116.6
X122.8Y-102.5
X122.8Y-103.4
X123.5Y-119.3
X124.35Y-92.025
X124.5Y-95.45
X124.7Y-116.6
X124.9Y-98.4
X125.4Y-112.6
X125.5Y-119.3
X125.75Y-109.65
X125.8Y-96.7
X125.8Y-110.9
X126.7Y-113.7
X126.7Y-116.6
X126.8Y-97.75
X127.05Y-98.75
X127.05Y-101.4
X127.25Y-95.043
X127.4Y-91.95
X127.45Y-103.55
X127.5Y-119.3
X127.6Y-70.8
X127.8Y-98.5
X128.25Y-86.65
X128.25Y-102.6
X128.7Y-116.6
X129.5Y-119.3
X129.55Y-85.2
X129.6Y-70.8
X129.6Y-84.3
X129.75Y-76.3
X129.9Y-104.95
X130.7Y-116.65
X130.85Y-76.2
X130.85Y-92.0
X131.0Y-83.9
X131.5Y-119.3
X131.6Y-70.8
X131.75Y-75.7
X131.75Y-106.938
X131.8Y-83.1
X132.0Y-109.9
X132.7Y-111.1
X132.7Y-116.65
X133.25Y-74.75
X133.4Y-106.9
X133.5Y-119.3
X133.59Y-99.11
X133.6Y-70.8
X133.653Y-97.438
X133.7Y-110.15
X134.1Y-98.25
X134.1Y-106.2
X134.3Y-114.3
X134.32Y-84.92
X134.7Y-88.8
X134.7Y-116.65
X134.75Y-75.55
X135.0Y-92.325
X135.2Y-88.2
X135.3Y-84.7
X135.3Y-98.3
X135.3Y-106.05
X135.35Y-99.0
X135.55Y-119.3
X135.6Y-70.8
X135.6Y-105.35
X136.0Y-73.5
X136.0Y-75.55
X136.0Y-84.9
X136.1Y-115.5
X136.2Y-106.2
X136.3Y-92.325
X136.4Y-87.6
X136.45Y-105.25
X136.7Y-85.4
X136.7Y-116.65
X136.8Y-98.35
X136.8Y-110.5
X136.975Y-99.875
X136.996Y-88.096
X137.0Y-79.0
X137.0Y-87.1
X137.5Y-98.85
X137.55Y-119.3
X137.6Y-70.8
X137.6Y-85.4
X137.7Y-92.4
X137.7Y-99.7
X137.9Y-87.6
X138.1Y-106.1
X138.25Y-86.0
X138.625Y-78.025
X138.825Y-77.3
X138.95Y-105.45
X139.0Y-88.3
X139.4Y-76.7
X139.45Y-89.45
X139.55Y-119.3
X139.6Y-70.8
X139.75Y-116.3
X139.75Y-117.85
X139.85Y-88.15
X139.9Y-77.3
X140.04Y-105.71
X140.15Y-75.449
X140.375Y-89.325
X140.4Y-92.5
X140.7Y-77.4
X140.95Y-105.8
X141.3Y-78.0
X141.325Y-76.825
X141.5Y-88.3
X141.55Y-119.3
X141.6Y-70.8
X141.65Y-116.7
X141.75Y-110.9
X141.9Y-90.1
X142.0Y-77.4
X142.146Y-89.146
X142.25Y-117.475
X142.25Y-118.375
X142.3Y-88.3
X142.8Y-110.1
X142.95Y-117.95
X143.05Y-106.35
X143.1Y-93.2
X143.55Y-88.45
X143.55Y-119.3
X143.6Y-70.8
X143.6Y-75.4
X143.75Y-105.8
X143.8Y-91.05
X143.85Y-76.55
X143.85Y-78.0
X143.852Y-91.952
X144.0Y-93.2
X144.2Y-89.0
X144.3Y-105.25
X144.4Y-93.85
X144.5Y-90.35
X144.6Y-89.65
X144.8Y-78.95
X144.9Y-93.1
X144.9Y-96.15
X144.9Y-97.15
X145.1Y-111.9
X145.55Y-93.6
X145.6Y-70.8
X145.65Y-76.65
X145.8Y-96.75
X145.8Y-97.7
X145.9Y-95.0
X145.932Y-80.782
X146.075Y-116.825
X146.1Y-75.35
X146.1Y-94.2
X146.55Y-87.15
X147.259Y-89.85
X147.3Y-106.1
X147.4Y-84.4
X147.5Y-75.35
X147.55Y-105.35
X147.6Y-70.8
X147.6Y-86.9
X147.65Y-96.7
X147.75Y-76.65
X147.9Y-85.55
X148.05Y-119.3
X148.1Y-74.2
X148.15Y-86.3
X148.2Y-89.75
X148.2Y-104.85
X148.321Y-84.929
X148.5Y-96.7
X148.55Y-106.2
X148.8Y-89.1
X148.95Y-83.9
X149.2Y-72.7
X149.45Y-88.55
X149.45Y-109.75
X149.65Y-70.8
X149.7Y-104.9
X150.05Y-119.3
X150.075Y-98.475
X150.1Y-88.001
X150.25Y-78.75
X150.3Y-76.85
X150.35Y-95.95
X150.35Y-97.25
X150.4Y-99.7
X150.5Y-104.9
X150.65Y-95.2
X150.75Y-97.95
X150.8Y-96.6
X150.85Y-87.501
X150.85Y-99.05
X151.05Y-105.8
X151.5Y-110.35
X151.6Y-103.45
X151.65Y-70.8
X152.05Y-119.3
X152.2Y-106.15
X152.55Y-104.2
X152.55Y-111.7
X152.65Y-85.3
X152.85Y-100.75
X153.0Y-99.9
X153.4Y-105.2
X153.45Y-99.2
X153.475Y-112.8
X153.5Y-103.15
X153.65Y-70.8
X153.7Y-98.45
X153.75Y-100.9
X153.95Y-105.9
X154.0Y-102.5
X154.05Y-119.3
X154.5Y-98.2
X155.2Y-93.1
X155.6Y-109.5
X155.65Y-70.8
X155.7Y-101.6
X155.8Y-93.919
X156.05Y-75.6
X156.05Y-119.3
X156.1Y-100.919
X156.21Y-92.85
X156.45Y-80.9
X156.45Y-82.55
X156.9Y-109.0
X157.0Y-111.5
X157.1Y-80.55
X157.3Y-70.7
X157.75Y-107.607
X158.0Y-110.2
X158.05Y-119.3
X159.3Y-70.7
X159.35Y-83.15
X159.738Y-99.557
X159.95Y-92.969
X160.05Y-100.675
X160.05Y-119.3
X160.3Y-94.244
X160.5Y-105.1
X160.7Y-103.75
X161.3Y-70.7
X161.9Y-82.1
X162.05Y-119.3
X162.35Y-83.25
X162.5Y-72.0
X163.3Y-70.7
X163.4Y-104.7
X164.05Y-119.3
X164.15Y-72.0
X164.25Y-103.1
X164.35Y-99.5
X165.099Y-103.25
X165.1Y-100.55
X165.1Y-102.25
X165.5Y-70.7
X165.6Y-99.8
X165.75Y-101.15
X165.75Y-101.9
X166.05Y-119.3
X166.15Y-100.45
X167.0Y-99.5
X167.5Y-70.7
X167.7Y-84.5
X167.8Y-78.65
X168.05Y-119.3
X168.8Y-78.65
X168.95Y-106.0
X169.5Y-70.7
X169.6Y-105.45
X169.8Y-97.2
X169.85Y-104.65
X169.964Y-98.237
X170.05Y-119.3
X170.75Y-114.2
X171.35Y-113.55
X171.5Y-70.7
X172.05Y-119.3
X172.25Y-83.8
X172.35Y-113.3
X172.65Y-77.4
X172.9Y-97.2
X172.9Y-114.0
X173.0Y-101.1
X173.1Y-103.9
X173.15Y-112.8
X173.4Y-95.9
X173.4Y-97.8
X173.4Y-104.75
X173.5Y-70.7
X173.5Y-77.85
X173.65Y-102.2
X173.65Y-103.1
X173.8Y-80.35
X174.05Y-119.3
X174.15Y-95.75
X174.35Y-101.7
X174.55Y-80.3
X174.8Y-98.45
X174.85Y-78.4
X174.913Y-80.9
X175.0Y-103.15
X175.1Y-97.65
X175.15Y-101.8
X175.4Y-103.9
X175.45Y-98.85
X175.45Y-99.75
X175.5Y-70.7
X175.5Y-101.15
X175.5Y-102.5
X175.5Y-106.9
X175.7Y-104.7
X175.85Y-108.05
X176.05Y-119.3
X176.1Y-80.85
X176.5Y-80.2
X177.3Y-81.25
X177.5Y-70.7
X178.05Y-119.3
X178.3Y-96.3
X178.35Y-74.099
X178.4Y-90.4
X178.4Y-99.3
X178.45Y-102.85
X178.5Y-88.8
X178.547Y-93.763
X178.55Y-87.15
X178.55Y-102.05
X178.65Y-86.4
X178.65Y-100.65
X178.85Y-89.7
X178.85Y-91.15
X178.85Y-95.6
X178.85Y-97.0
X178.9Y-98.7
X178.95Y-87.9
X178.95Y-99.9
X179.3Y-74.0
X179.4Y-96.35
X179.45Y-93.85
X179.5Y-70.7
X179.7Y-83.5
X179.75Y-89.7
X179.8Y-107.7
X180.05Y-94.45
X180.05Y-119.3
X180.3Y-84.05
X180.4Y-95.2
X180.65Y-101.7
X181.15Y-75.4
X181.454Y-101.65
X181.5Y-70.7
X181.55Y-100.9
X181.7Y-74.0
X181.7Y-86.9
X181.7Y-110.85
X181.8Y-110.0
X181.85Y-86.0
X181.85Y-88.0
X181.9Y-89.6
X181.9Y-91.9
X181.9Y-99.25
X181.95Y-88.8
X182.05Y-119.3
X182.099Y-92.6
X182.2Y-75.4
X182.3Y-74.55
X182.5Y-99.8
X183.05Y-105.15
X183.4Y-98.9
X183.4Y-104.4
X183.5Y-70.7
X184.05Y-119.3
X184.1Y-97.8
X184.275Y-81.425
X185.25Y-81.35
X185.35Y-103.65
X185.5Y-70.7
X185.5Y-102.4
X185.8Y-90.75
X185.85Y-92.1
X186.05Y-119.3
X186.2Y-103.1
X186.275Y-93.325
X186.5Y-92.596
X186.5Y-104.0
X186.6Y-94.55
X186.85Y-85.5
X186.85Y-86.4
X186.9Y-87.3
X187.093Y-90.757
X187.1Y-102.5
X187.15Y-82.2
X187.2Y-83.05
X187.4Y-94.749
X187.5Y-70.7
X187.7Y-75.6
X187.9Y-77.0
X188.0Y-106.2
X188.05Y-119.3
X188.25Y-79.2
X188.4Y-75.0
X188.6Y-80.1
X188.7Y-77.0
X189.0Y-73.5
X189.1Y-118.325
X189.5Y-70.7
X189.9Y-110.8
X190.05Y-95.9
X190.05Y-119.3
X190.175Y-117.15
X190.425Y-97.65
X190.55Y-110.2
X190.7Y-99.1
X190.725Y-96.475
X190.95Y-86.65
X191.0Y-98.3
X191.025Y-118.25
X191.35Y-109.6
X191.4Y-97.05
X191.45Y-115.825
X191.5Y-70.7
X191.7Y-93.0
X191.75Y-81.25
X191.8Y-108.95
X191.85Y-117.05
X192.05Y-119.3
X192.1Y-95.1
X192.15Y-76.05
X192.15Y-77.45
X192.4Y-83.95
X192.55Y-97.35
X192.6Y-81.4
X192.6Y-108.4
X193.1Y-107.7
X193.5Y-81.3
X193.55Y-77.55
X193.9Y-86.0
X193.95Y-107.15
X194.0Y-104.25
X194.35Y-106.35
X194.65Y-83.7
X194.7Y-105.0
X194.75Y-85.2
X195.4Y-82.7
X195.6Y-83.5
X195.65Y-105.5
X195.9Y-94.275
X195.9Y-97.2
X195.938Y-90.612
X195.95Y-92.9
X195.95Y-98.3
X195.975Y-96.125
X196.0Y-91.9
X196.0Y-100.25
X196.05Y-80.025
X196.05Y-84.3
X196.2Y-89.5
X196.5Y-78.6
X196.6Y-80.7
X196.6Y-111.1
X197.7Y-80.1
X197.9Y-110.15
X197.9Y-111.95
X198.0Y-78.0
X199.1Y-85.0
X199.15Y-76.9
X199.15Y-78.9
X199.15Y-80.9
X199.15Y-82.9
X199.15Y-105.7
X199.15Y-107.25
X199.15Y-109.25
X199.15Y-111.1
X199.15Y-112.9
X199.2Y-86.9
X199.275Y-99.4
X199.275Y-101.65
X199.3Y-92.7
X199.3Y-94.8
X199.3Y-97.2
X199.3Y-103.5
X199.4Y-90.6
T2
X118.995Y-102.09
X118.995Y-103.81
X119.475Y-102.95
X119.955Y-102.09
X119.955Y-103.81
T3
X109.8Y-110.3
X109.9Y-108.7
X110.4Y-103.3
X124.45Y-77.9
X154.15Y-75.6
X169.0Y-84.35
X191.9Y-94.15
X192.3Y-90.35
X192.35Y-88.85
X195.95Y-99.3
T5
X105.0Y-80.3
X105.0Y-82.84
X105.0Y-85.38
X105.0Y-87.92
X107.54Y-80.3
X107.54Y-82.84
X107.54Y-85.38
X107.54Y-87.92
X111.8Y-91.46
X111.8Y-94.0
X111.8Y-96.54
T6
X113.0Y-78.45
X115.5Y-78.45
X118.0Y-78.45
T7
X104.0Y-73.95
X104.0Y-115.95
X196.0Y-74.0
X196.0Y-115.95
T4
X102.9Y-101.36G85X102.3Y-101.36
G05
X102.9Y-110.0G85X102.3Y-110.0
G05
X107.33Y-101.36G85X106.23Y-101.36
G05
X107.33Y-110.0G85X106.23Y-110.0
G05
M30
