G04 #@! TF.GenerationSoftware,KiCad,Pcbnew,8.0.6*
G04 #@! TF.CreationDate,2026-05-12T17:56:18-07:00*
G04 #@! TF.ProjectId,STM32H7_Board,53544d33-3248-4375-9f42-6f6172642e6b,B*
G04 #@! TF.SameCoordinates,Original*
G04 #@! TF.FileFunction,Soldermask,Bot*
G04 #@! TF.FilePolarity,Negative*
%FSLAX46Y46*%
G04 Gerber Fmt 4.6, Leading zero omitted, Abs format (unit mm)*
G04 Created by KiCad (PCBNEW 8.0.6) date 2026-05-12 17:56:18*
%MOMM*%
%LPD*%
G01*
G04 APERTURE LIST*
G04 Aperture macros list*
%AMRoundRect*
0 Rectangle with rounded corners*
0 $1 Rounding radius*
0 $2 $3 $4 $5 $6 $7 $8 $9 X,Y pos of 4 corners*
0 Add a 4 corners polygon primitive as box body*
4,1,4,$2,$3,$4,$5,$6,$7,$8,$9,$2,$3,0*
0 Add four circle primitives for the rounded corners*
1,1,$1+$1,$2,$3*
1,1,$1+$1,$4,$5*
1,1,$1+$1,$6,$7*
1,1,$1+$1,$8,$9*
0 Add four rect primitives between the rounded corners*
20,1,$1+$1,$2,$3,$4,$5,0*
20,1,$1+$1,$4,$5,$6,$7,0*
20,1,$1+$1,$6,$7,$8,$9,0*
20,1,$1+$1,$8,$9,$2,$3,0*%
%AMRotRect*
0 Rectangle, with rotation*
0 The origin of the aperture is its center*
0 $1 length*
0 $2 width*
0 $3 Rotation angle, in degrees counterclockwise*
0 Add horizontal line*
21,1,$1,$2,0,0,$3*%
G04 Aperture macros list end*
%ADD10R,1.700000X1.700000*%
%ADD11O,1.700000X1.700000*%
%ADD12C,6.400000*%
%ADD13C,0.650000*%
%ADD14O,2.100000X1.000000*%
%ADD15O,1.600000X1.000000*%
%ADD16R,1.650000X1.650000*%
%ADD17C,1.650000*%
%ADD18R,0.500000X0.400000*%
%ADD19R,0.500000X0.300000*%
%ADD20RoundRect,0.225000X0.250000X-0.225000X0.250000X0.225000X-0.250000X0.225000X-0.250000X-0.225000X0*%
%ADD21R,0.650000X1.100000*%
%ADD22R,1.300000X0.300000*%
%ADD23RoundRect,0.102000X-0.150000X-0.800000X0.150000X-0.800000X0.150000X0.800000X-0.150000X0.800000X0*%
%ADD24RoundRect,0.102000X-0.400000X-0.900000X0.400000X-0.900000X0.400000X0.900000X-0.400000X0.900000X0*%
%ADD25RoundRect,0.225000X0.225000X0.250000X-0.225000X0.250000X-0.225000X-0.250000X0.225000X-0.250000X0*%
%ADD26RotRect,0.500000X0.400000X45.000000*%
%ADD27RotRect,0.500000X0.300000X45.000000*%
%ADD28R,0.400000X0.500000*%
%ADD29R,0.300000X0.500000*%
%ADD30RoundRect,0.225000X-0.225000X-0.250000X0.225000X-0.250000X0.225000X0.250000X-0.225000X0.250000X0*%
%ADD31R,0.558800X1.320800*%
%ADD32RoundRect,0.250000X0.262500X0.450000X-0.262500X0.450000X-0.262500X-0.450000X0.262500X-0.450000X0*%
G04 APERTURE END LIST*
D10*
X107540000Y-87920000D03*
D11*
X105000000Y-87920000D03*
X107540000Y-85380000D03*
X105000000Y-85380000D03*
X107540000Y-82840000D03*
X105000000Y-82840000D03*
X107540000Y-80300000D03*
X105000000Y-80300000D03*
D12*
X104000000Y-73950000D03*
D10*
X111800000Y-96540000D03*
D11*
X111800000Y-94000000D03*
X111800000Y-91460000D03*
D12*
X196000000Y-115950000D03*
X104000000Y-115950000D03*
X196000000Y-74000000D03*
D13*
X106250000Y-102790000D03*
X106250000Y-108570000D03*
D14*
X106780000Y-101360000D03*
D15*
X102600000Y-101360000D03*
D14*
X106780000Y-110000000D03*
D15*
X102600000Y-110000000D03*
D16*
X118000000Y-78450000D03*
D17*
X115500000Y-78450000D03*
X113000000Y-78450000D03*
D18*
X147000000Y-92400000D03*
D19*
X147000000Y-91900000D03*
X147000000Y-91400000D03*
D18*
X147000000Y-90900000D03*
X148000000Y-90900000D03*
D19*
X148000000Y-91400000D03*
X148000000Y-91900000D03*
D18*
X148000000Y-92400000D03*
D20*
X166800000Y-77475000D03*
X166800000Y-75925000D03*
X155750000Y-96675000D03*
X155750000Y-95125000D03*
D21*
X116310000Y-84200000D03*
X114390000Y-84200000D03*
X115350000Y-82100000D03*
D22*
X190400000Y-72650000D03*
X190400000Y-73150000D03*
X190400000Y-73650000D03*
X190400000Y-74150000D03*
X190400000Y-74650000D03*
X190400000Y-75150000D03*
X190400000Y-75650000D03*
X190400000Y-76150000D03*
X190400000Y-76650000D03*
X190400000Y-77150000D03*
X190400000Y-77650000D03*
X190400000Y-78150000D03*
X190400000Y-78650000D03*
X190400000Y-79150000D03*
X190400000Y-79650000D03*
X190400000Y-80150000D03*
X190400000Y-80650000D03*
X190400000Y-81150000D03*
X190400000Y-81650000D03*
X190400000Y-82150000D03*
X190400000Y-82650000D03*
X190400000Y-83150000D03*
X190400000Y-83650000D03*
X190400000Y-84150000D03*
X170700000Y-84150000D03*
X170700000Y-83650000D03*
X170700000Y-83150000D03*
X170700000Y-82650000D03*
X170700000Y-82150000D03*
X170700000Y-81650000D03*
X170700000Y-81150000D03*
X170700000Y-80650000D03*
X170700000Y-80150000D03*
X170700000Y-79650000D03*
X170700000Y-79150000D03*
X170700000Y-78650000D03*
X170700000Y-78150000D03*
X170700000Y-77650000D03*
X170700000Y-77150000D03*
X170700000Y-76650000D03*
X170700000Y-76150000D03*
X170700000Y-75650000D03*
X170700000Y-75150000D03*
X170700000Y-74650000D03*
X170700000Y-74150000D03*
X170700000Y-73650000D03*
X170700000Y-73150000D03*
X170700000Y-72650000D03*
D23*
X137250000Y-90200000D03*
X136750000Y-90200000D03*
X136250000Y-90200000D03*
X135750000Y-90200000D03*
X135250000Y-90200000D03*
X134750000Y-90200000D03*
X134250000Y-90200000D03*
X133750000Y-90200000D03*
X133250000Y-90200000D03*
X132750000Y-90200000D03*
X132250000Y-90200000D03*
X131750000Y-90200000D03*
X131250000Y-90200000D03*
X130750000Y-90200000D03*
X130250000Y-90200000D03*
X129750000Y-90200000D03*
X129250000Y-90200000D03*
X128750000Y-90200000D03*
X128250000Y-90200000D03*
X127750000Y-90200000D03*
X127250000Y-90200000D03*
X126750000Y-90200000D03*
X126250000Y-90200000D03*
X125750000Y-90200000D03*
X125250000Y-90200000D03*
X124750000Y-90200000D03*
X124250000Y-90200000D03*
X123750000Y-90200000D03*
X123250000Y-90200000D03*
X122750000Y-90200000D03*
X122750000Y-93800000D03*
X123250000Y-93800000D03*
X123750000Y-93800000D03*
X124250000Y-93800000D03*
X124750000Y-93800000D03*
X125250000Y-93800000D03*
X125750000Y-93800000D03*
X126250000Y-93800000D03*
X126750000Y-93800000D03*
X127250000Y-93800000D03*
X127750000Y-93800000D03*
X128250000Y-93800000D03*
X128750000Y-93800000D03*
X129250000Y-93800000D03*
X129750000Y-93800000D03*
X130250000Y-93800000D03*
X130750000Y-93800000D03*
X131250000Y-93800000D03*
X131750000Y-93800000D03*
X132250000Y-93800000D03*
X132750000Y-93800000D03*
X133250000Y-93800000D03*
X133750000Y-93800000D03*
X134250000Y-93800000D03*
X134750000Y-93800000D03*
X135250000Y-93800000D03*
X135750000Y-93800000D03*
X136250000Y-93800000D03*
X136750000Y-93800000D03*
X137250000Y-93800000D03*
D24*
X121050000Y-92000000D03*
X138950000Y-92000000D03*
D25*
X168775000Y-79700000D03*
X167225000Y-79700000D03*
D26*
X149076777Y-95383883D03*
D27*
X148723223Y-95030330D03*
X148369670Y-94676777D03*
D26*
X148016117Y-94323223D03*
X148723223Y-93616117D03*
D27*
X149076777Y-93969670D03*
X149430330Y-94323223D03*
D26*
X149783883Y-94676777D03*
D20*
X168600000Y-77475000D03*
X168600000Y-75925000D03*
D28*
X154300000Y-95900000D03*
D29*
X153800000Y-95900000D03*
X153300000Y-95900000D03*
D28*
X152800000Y-95900000D03*
X152800000Y-94900000D03*
D29*
X153300000Y-94900000D03*
X153800000Y-94900000D03*
D28*
X154300000Y-94900000D03*
D30*
X192425000Y-78900000D03*
X193975000Y-78900000D03*
D18*
X150600000Y-84550000D03*
D19*
X150600000Y-85050000D03*
X150600000Y-85550000D03*
D18*
X150600000Y-86050000D03*
X149600000Y-86050000D03*
D19*
X149600000Y-85550000D03*
X149600000Y-85050000D03*
D18*
X149600000Y-84550000D03*
D31*
X121150001Y-81923900D03*
X119249999Y-81923900D03*
X120200000Y-79891900D03*
D32*
X116262500Y-86400000D03*
X114437500Y-86400000D03*
M02*
