G04 #@! TF.GenerationSoftware,KiCad,Pcbnew,8.0.6*
G04 #@! TF.CreationDate,2026-03-22T13:56:01-07:00*
G04 #@! TF.ProjectId,STM32H7_Board,53544d33-3248-4375-9f42-6f6172642e6b,rev?*
G04 #@! TF.SameCoordinates,Original*
G04 #@! TF.FileFunction,Legend,Bot*
G04 #@! TF.FilePolarity,Positive*
%FSLAX46Y46*%
G04 Gerber Fmt 4.6, Leading zero omitted, Abs format (unit mm)*
G04 Created by KiCad (PCBNEW 8.0.6) date 2026-03-22 13:56:01*
%MOMM*%
%LPD*%
G01*
G04 APERTURE LIST*
G04 Aperture macros list*
%AMRoundRect*
0 Rectangle with rounded corners*
0 $1 Rounding radius*
0 $2 $3 $4 $5 $6 $7 $8 $9 X,Y pos of 4 corners*
0 Add a 4 corners polygon primitive as box body*
4,1,4,$2,$3,$4,$5,$6,$7,$8,$9,$2,$3,0*
0 Add four circle primitives for the rounded corners*
1,1,$1+$1,$2,$3*
1,1,$1+$1,$4,$5*
1,1,$1+$1,$6,$7*
1,1,$1+$1,$8,$9*
0 Add four rect primitives between the rounded corners*
20,1,$1+$1,$2,$3,$4,$5,0*
20,1,$1+$1,$4,$5,$6,$7,0*
20,1,$1+$1,$6,$7,$8,$9,0*
20,1,$1+$1,$8,$9,$2,$3,0*%
%AMRotRect*
0 Rectangle, with rotation*
0 The origin of the aperture is its center*
0 $1 length*
0 $2 width*
0 $3 Rotation angle, in degrees counterclockwise*
0 Add horizontal line*
21,1,$1,$2,0,0,$3*%
G04 Aperture macros list end*
%ADD10C,0.100000*%
%ADD11C,0.153000*%
%ADD12C,0.150000*%
%ADD13C,0.120000*%
%ADD14C,0.200000*%
%ADD15C,0.127000*%
%ADD16C,0.000000*%
%ADD17C,0.152400*%
%ADD18R,1.700000X1.700000*%
%ADD19O,1.700000X1.700000*%
%ADD20C,6.400000*%
%ADD21C,0.650000*%
%ADD22O,2.100000X1.000000*%
%ADD23O,1.600000X1.000000*%
%ADD24R,1.650000X1.650000*%
%ADD25C,1.650000*%
%ADD26R,0.500000X0.400000*%
%ADD27R,0.500000X0.300000*%
%ADD28RoundRect,0.225000X0.250000X-0.225000X0.250000X0.225000X-0.250000X0.225000X-0.250000X-0.225000X0*%
%ADD29R,0.650000X1.100000*%
%ADD30R,1.300000X0.300000*%
%ADD31RoundRect,0.102000X-0.150000X-0.800000X0.150000X-0.800000X0.150000X0.800000X-0.150000X0.800000X0*%
%ADD32RoundRect,0.102000X-0.400000X-0.900000X0.400000X-0.900000X0.400000X0.900000X-0.400000X0.900000X0*%
%ADD33RoundRect,0.225000X0.225000X0.250000X-0.225000X0.250000X-0.225000X-0.250000X0.225000X-0.250000X0*%
%ADD34RotRect,0.500000X0.400000X45.000000*%
%ADD35RotRect,0.500000X0.300000X45.000000*%
%ADD36R,0.400000X0.500000*%
%ADD37R,0.300000X0.500000*%
%ADD38RoundRect,0.225000X-0.225000X-0.250000X0.225000X-0.250000X0.225000X0.250000X-0.225000X0.250000X0*%
%ADD39R,0.558800X1.320800*%
%ADD40RoundRect,0.250000X0.262500X0.450000X-0.262500X0.450000X-0.262500X-0.450000X0.262500X-0.450000X0*%
G04 APERTURE END LIST*
D10*
X119900000Y-95400000D02*
X119900000Y-94200000D01*
X101200000Y-81300000D02*
X103000000Y-81300000D01*
X169550000Y-73600000D02*
X169550000Y-71900000D01*
X140100000Y-95400000D02*
X140100000Y-94200000D01*
X140100000Y-88600000D02*
X119900000Y-88600000D01*
X111800000Y-98800000D02*
X112200000Y-100000000D01*
X189850000Y-71850000D02*
X191550000Y-71850000D01*
X103000000Y-78700000D02*
X103000000Y-89600000D01*
X111800000Y-89600000D02*
X112200000Y-88400000D01*
X171250000Y-84950000D02*
X169550000Y-84950000D01*
X191550000Y-83250000D02*
X191550000Y-84950000D01*
X191550000Y-84950000D02*
X189850000Y-84950000D01*
X101200000Y-78700000D02*
X103000000Y-78700000D01*
X111800000Y-82100000D02*
X111800000Y-89600000D01*
X111800000Y-82100000D02*
X114000000Y-82100000D01*
X101200000Y-84100000D02*
X103000000Y-84100000D01*
X140100000Y-88600000D02*
X140100000Y-89800000D01*
X119900000Y-95400000D02*
X140100000Y-95400000D01*
X119900000Y-88600000D02*
X119900000Y-89800000D01*
X111800000Y-98800000D02*
X111400000Y-100000000D01*
X111800000Y-108900000D02*
X111800000Y-98800000D01*
X169550000Y-84950000D02*
X169550000Y-83250000D01*
X103000000Y-89600000D02*
X101200000Y-89600000D01*
X101200000Y-89600000D02*
X101200000Y-78700000D01*
X169550000Y-71900000D02*
X171250000Y-71900000D01*
X191550000Y-71850000D02*
X191550000Y-73550000D01*
X101200000Y-86800000D02*
X103000000Y-86800000D01*
X111800000Y-108900000D02*
X109600000Y-108900000D01*
X111800000Y-89600000D02*
X111400000Y-88400000D01*
D11*
X112345336Y-75697619D02*
X112821527Y-76030952D01*
X112345336Y-76269047D02*
X113345336Y-76269047D01*
X113345336Y-76269047D02*
X113345336Y-75888095D01*
X113345336Y-75888095D02*
X113297717Y-75792857D01*
X113297717Y-75792857D02*
X113250098Y-75745238D01*
X113250098Y-75745238D02*
X113154860Y-75697619D01*
X113154860Y-75697619D02*
X113012003Y-75697619D01*
X113012003Y-75697619D02*
X112916765Y-75745238D01*
X112916765Y-75745238D02*
X112869146Y-75792857D01*
X112869146Y-75792857D02*
X112821527Y-75888095D01*
X112821527Y-75888095D02*
X112821527Y-76269047D01*
X112392956Y-75316666D02*
X112345336Y-75173809D01*
X112345336Y-75173809D02*
X112345336Y-74935714D01*
X112345336Y-74935714D02*
X112392956Y-74840476D01*
X112392956Y-74840476D02*
X112440575Y-74792857D01*
X112440575Y-74792857D02*
X112535813Y-74745238D01*
X112535813Y-74745238D02*
X112631051Y-74745238D01*
X112631051Y-74745238D02*
X112726289Y-74792857D01*
X112726289Y-74792857D02*
X112773908Y-74840476D01*
X112773908Y-74840476D02*
X112821527Y-74935714D01*
X112821527Y-74935714D02*
X112869146Y-75126190D01*
X112869146Y-75126190D02*
X112916765Y-75221428D01*
X112916765Y-75221428D02*
X112964384Y-75269047D01*
X112964384Y-75269047D02*
X113059622Y-75316666D01*
X113059622Y-75316666D02*
X113154860Y-75316666D01*
X113154860Y-75316666D02*
X113250098Y-75269047D01*
X113250098Y-75269047D02*
X113297717Y-75221428D01*
X113297717Y-75221428D02*
X113345336Y-75126190D01*
X113345336Y-75126190D02*
X113345336Y-74888095D01*
X113345336Y-74888095D02*
X113297717Y-74745238D01*
X113345336Y-74459523D02*
X113345336Y-73888095D01*
X112345336Y-74173809D02*
X113345336Y-74173809D01*
X117395336Y-76352380D02*
X118395336Y-76352380D01*
X118395336Y-76352380D02*
X118395336Y-75971428D01*
X118395336Y-75971428D02*
X118347717Y-75876190D01*
X118347717Y-75876190D02*
X118300098Y-75828571D01*
X118300098Y-75828571D02*
X118204860Y-75780952D01*
X118204860Y-75780952D02*
X118062003Y-75780952D01*
X118062003Y-75780952D02*
X117966765Y-75828571D01*
X117966765Y-75828571D02*
X117919146Y-75876190D01*
X117919146Y-75876190D02*
X117871527Y-75971428D01*
X117871527Y-75971428D02*
X117871527Y-76352380D01*
X118395336Y-75447618D02*
X117395336Y-75209523D01*
X117395336Y-75209523D02*
X118109622Y-75019047D01*
X118109622Y-75019047D02*
X117395336Y-74828571D01*
X117395336Y-74828571D02*
X118395336Y-74590476D01*
X117395336Y-73638095D02*
X117871527Y-73971428D01*
X117395336Y-74209523D02*
X118395336Y-74209523D01*
X118395336Y-74209523D02*
X118395336Y-73828571D01*
X118395336Y-73828571D02*
X118347717Y-73733333D01*
X118347717Y-73733333D02*
X118300098Y-73685714D01*
X118300098Y-73685714D02*
X118204860Y-73638095D01*
X118204860Y-73638095D02*
X118062003Y-73638095D01*
X118062003Y-73638095D02*
X117966765Y-73685714D01*
X117966765Y-73685714D02*
X117919146Y-73733333D01*
X117919146Y-73733333D02*
X117871527Y-73828571D01*
X117871527Y-73828571D02*
X117871527Y-74209523D01*
X117776289Y-73209523D02*
X117776289Y-72447619D01*
X117395336Y-72828571D02*
X118157241Y-72828571D01*
X115897717Y-75811904D02*
X115945336Y-75907142D01*
X115945336Y-75907142D02*
X115945336Y-76049999D01*
X115945336Y-76049999D02*
X115897717Y-76192856D01*
X115897717Y-76192856D02*
X115802479Y-76288094D01*
X115802479Y-76288094D02*
X115707241Y-76335713D01*
X115707241Y-76335713D02*
X115516765Y-76383332D01*
X115516765Y-76383332D02*
X115373908Y-76383332D01*
X115373908Y-76383332D02*
X115183432Y-76335713D01*
X115183432Y-76335713D02*
X115088194Y-76288094D01*
X115088194Y-76288094D02*
X114992956Y-76192856D01*
X114992956Y-76192856D02*
X114945336Y-76049999D01*
X114945336Y-76049999D02*
X114945336Y-75954761D01*
X114945336Y-75954761D02*
X114992956Y-75811904D01*
X114992956Y-75811904D02*
X115040575Y-75764285D01*
X115040575Y-75764285D02*
X115373908Y-75764285D01*
X115373908Y-75764285D02*
X115373908Y-75954761D01*
X114945336Y-75335713D02*
X115945336Y-75335713D01*
X115945336Y-75335713D02*
X114945336Y-74764285D01*
X114945336Y-74764285D02*
X115945336Y-74764285D01*
X114945336Y-74288094D02*
X115945336Y-74288094D01*
X115945336Y-74288094D02*
X115945336Y-74049999D01*
X115945336Y-74049999D02*
X115897717Y-73907142D01*
X115897717Y-73907142D02*
X115802479Y-73811904D01*
X115802479Y-73811904D02*
X115707241Y-73764285D01*
X115707241Y-73764285D02*
X115516765Y-73716666D01*
X115516765Y-73716666D02*
X115373908Y-73716666D01*
X115373908Y-73716666D02*
X115183432Y-73764285D01*
X115183432Y-73764285D02*
X115088194Y-73811904D01*
X115088194Y-73811904D02*
X114992956Y-73907142D01*
X114992956Y-73907142D02*
X114945336Y-74049999D01*
X114945336Y-74049999D02*
X114945336Y-74288094D01*
X102507044Y-79171428D02*
X102554663Y-79314285D01*
X102554663Y-79314285D02*
X102554663Y-79552380D01*
X102554663Y-79552380D02*
X102507044Y-79647618D01*
X102507044Y-79647618D02*
X102459424Y-79695237D01*
X102459424Y-79695237D02*
X102364186Y-79742856D01*
X102364186Y-79742856D02*
X102268948Y-79742856D01*
X102268948Y-79742856D02*
X102173710Y-79695237D01*
X102173710Y-79695237D02*
X102126091Y-79647618D01*
X102126091Y-79647618D02*
X102078472Y-79552380D01*
X102078472Y-79552380D02*
X102030853Y-79361904D01*
X102030853Y-79361904D02*
X101983234Y-79266666D01*
X101983234Y-79266666D02*
X101935615Y-79219047D01*
X101935615Y-79219047D02*
X101840377Y-79171428D01*
X101840377Y-79171428D02*
X101745139Y-79171428D01*
X101745139Y-79171428D02*
X101649901Y-79219047D01*
X101649901Y-79219047D02*
X101602282Y-79266666D01*
X101602282Y-79266666D02*
X101554663Y-79361904D01*
X101554663Y-79361904D02*
X101554663Y-79599999D01*
X101554663Y-79599999D02*
X101602282Y-79742856D01*
X102554663Y-80171428D02*
X101554663Y-80171428D01*
X101554663Y-80171428D02*
X101554663Y-80409523D01*
X101554663Y-80409523D02*
X101602282Y-80552380D01*
X101602282Y-80552380D02*
X101697520Y-80647618D01*
X101697520Y-80647618D02*
X101792758Y-80695237D01*
X101792758Y-80695237D02*
X101983234Y-80742856D01*
X101983234Y-80742856D02*
X102126091Y-80742856D01*
X102126091Y-80742856D02*
X102316567Y-80695237D01*
X102316567Y-80695237D02*
X102411805Y-80647618D01*
X102411805Y-80647618D02*
X102507044Y-80552380D01*
X102507044Y-80552380D02*
X102554663Y-80409523D01*
X102554663Y-80409523D02*
X102554663Y-80171428D01*
X102554663Y-81933333D02*
X101554663Y-81933333D01*
X101554663Y-81933333D02*
X102554663Y-82504761D01*
X102554663Y-82504761D02*
X101554663Y-82504761D01*
X102554663Y-83552380D02*
X102078472Y-83219047D01*
X102554663Y-82980952D02*
X101554663Y-82980952D01*
X101554663Y-82980952D02*
X101554663Y-83361904D01*
X101554663Y-83361904D02*
X101602282Y-83457142D01*
X101602282Y-83457142D02*
X101649901Y-83504761D01*
X101649901Y-83504761D02*
X101745139Y-83552380D01*
X101745139Y-83552380D02*
X101887996Y-83552380D01*
X101887996Y-83552380D02*
X101983234Y-83504761D01*
X101983234Y-83504761D02*
X102030853Y-83457142D01*
X102030853Y-83457142D02*
X102078472Y-83361904D01*
X102078472Y-83361904D02*
X102078472Y-82980952D01*
X102507044Y-84695238D02*
X102554663Y-84838095D01*
X102554663Y-84838095D02*
X102554663Y-85076190D01*
X102554663Y-85076190D02*
X102507044Y-85171428D01*
X102507044Y-85171428D02*
X102459424Y-85219047D01*
X102459424Y-85219047D02*
X102364186Y-85266666D01*
X102364186Y-85266666D02*
X102268948Y-85266666D01*
X102268948Y-85266666D02*
X102173710Y-85219047D01*
X102173710Y-85219047D02*
X102126091Y-85171428D01*
X102126091Y-85171428D02*
X102078472Y-85076190D01*
X102078472Y-85076190D02*
X102030853Y-84885714D01*
X102030853Y-84885714D02*
X101983234Y-84790476D01*
X101983234Y-84790476D02*
X101935615Y-84742857D01*
X101935615Y-84742857D02*
X101840377Y-84695238D01*
X101840377Y-84695238D02*
X101745139Y-84695238D01*
X101745139Y-84695238D02*
X101649901Y-84742857D01*
X101649901Y-84742857D02*
X101602282Y-84790476D01*
X101602282Y-84790476D02*
X101554663Y-84885714D01*
X101554663Y-84885714D02*
X101554663Y-85123809D01*
X101554663Y-85123809D02*
X101602282Y-85266666D01*
X101554663Y-85885714D02*
X101554663Y-86076190D01*
X101554663Y-86076190D02*
X101602282Y-86171428D01*
X101602282Y-86171428D02*
X101697520Y-86266666D01*
X101697520Y-86266666D02*
X101887996Y-86314285D01*
X101887996Y-86314285D02*
X102221329Y-86314285D01*
X102221329Y-86314285D02*
X102411805Y-86266666D01*
X102411805Y-86266666D02*
X102507044Y-86171428D01*
X102507044Y-86171428D02*
X102554663Y-86076190D01*
X102554663Y-86076190D02*
X102554663Y-85885714D01*
X102554663Y-85885714D02*
X102507044Y-85790476D01*
X102507044Y-85790476D02*
X102411805Y-85695238D01*
X102411805Y-85695238D02*
X102221329Y-85647619D01*
X102221329Y-85647619D02*
X101887996Y-85647619D01*
X101887996Y-85647619D02*
X101697520Y-85695238D01*
X101697520Y-85695238D02*
X101602282Y-85790476D01*
X101602282Y-85790476D02*
X101554663Y-85885714D01*
X102507044Y-87457143D02*
X102554663Y-87600000D01*
X102554663Y-87600000D02*
X102554663Y-87838095D01*
X102554663Y-87838095D02*
X102507044Y-87933333D01*
X102507044Y-87933333D02*
X102459424Y-87980952D01*
X102459424Y-87980952D02*
X102364186Y-88028571D01*
X102364186Y-88028571D02*
X102268948Y-88028571D01*
X102268948Y-88028571D02*
X102173710Y-87980952D01*
X102173710Y-87980952D02*
X102126091Y-87933333D01*
X102126091Y-87933333D02*
X102078472Y-87838095D01*
X102078472Y-87838095D02*
X102030853Y-87647619D01*
X102030853Y-87647619D02*
X101983234Y-87552381D01*
X101983234Y-87552381D02*
X101935615Y-87504762D01*
X101935615Y-87504762D02*
X101840377Y-87457143D01*
X101840377Y-87457143D02*
X101745139Y-87457143D01*
X101745139Y-87457143D02*
X101649901Y-87504762D01*
X101649901Y-87504762D02*
X101602282Y-87552381D01*
X101602282Y-87552381D02*
X101554663Y-87647619D01*
X101554663Y-87647619D02*
X101554663Y-87885714D01*
X101554663Y-87885714D02*
X101602282Y-88028571D01*
X102459424Y-89028571D02*
X102507044Y-88980952D01*
X102507044Y-88980952D02*
X102554663Y-88838095D01*
X102554663Y-88838095D02*
X102554663Y-88742857D01*
X102554663Y-88742857D02*
X102507044Y-88600000D01*
X102507044Y-88600000D02*
X102411805Y-88504762D01*
X102411805Y-88504762D02*
X102316567Y-88457143D01*
X102316567Y-88457143D02*
X102126091Y-88409524D01*
X102126091Y-88409524D02*
X101983234Y-88409524D01*
X101983234Y-88409524D02*
X101792758Y-88457143D01*
X101792758Y-88457143D02*
X101697520Y-88504762D01*
X101697520Y-88504762D02*
X101602282Y-88600000D01*
X101602282Y-88600000D02*
X101554663Y-88742857D01*
X101554663Y-88742857D02*
X101554663Y-88838095D01*
X101554663Y-88838095D02*
X101602282Y-88980952D01*
X101602282Y-88980952D02*
X101649901Y-89028571D01*
X182908866Y-100672240D02*
X182766009Y-100719859D01*
X182766009Y-100719859D02*
X182527914Y-100719859D01*
X182527914Y-100719859D02*
X182432676Y-100672240D01*
X182432676Y-100672240D02*
X182385057Y-100624620D01*
X182385057Y-100624620D02*
X182337438Y-100529382D01*
X182337438Y-100529382D02*
X182337438Y-100434144D01*
X182337438Y-100434144D02*
X182385057Y-100338906D01*
X182385057Y-100338906D02*
X182432676Y-100291287D01*
X182432676Y-100291287D02*
X182527914Y-100243668D01*
X182527914Y-100243668D02*
X182718390Y-100196049D01*
X182718390Y-100196049D02*
X182813628Y-100148430D01*
X182813628Y-100148430D02*
X182861247Y-100100811D01*
X182861247Y-100100811D02*
X182908866Y-100005573D01*
X182908866Y-100005573D02*
X182908866Y-99910335D01*
X182908866Y-99910335D02*
X182861247Y-99815097D01*
X182861247Y-99815097D02*
X182813628Y-99767478D01*
X182813628Y-99767478D02*
X182718390Y-99719859D01*
X182718390Y-99719859D02*
X182480295Y-99719859D01*
X182480295Y-99719859D02*
X182337438Y-99767478D01*
X182051723Y-99719859D02*
X181480295Y-99719859D01*
X181766009Y-100719859D02*
X181766009Y-99719859D01*
X181146961Y-100719859D02*
X181146961Y-99719859D01*
X181146961Y-99719859D02*
X180813628Y-100434144D01*
X180813628Y-100434144D02*
X180480295Y-99719859D01*
X180480295Y-99719859D02*
X180480295Y-100719859D01*
X180099342Y-99719859D02*
X179480295Y-99719859D01*
X179480295Y-99719859D02*
X179813628Y-100100811D01*
X179813628Y-100100811D02*
X179670771Y-100100811D01*
X179670771Y-100100811D02*
X179575533Y-100148430D01*
X179575533Y-100148430D02*
X179527914Y-100196049D01*
X179527914Y-100196049D02*
X179480295Y-100291287D01*
X179480295Y-100291287D02*
X179480295Y-100529382D01*
X179480295Y-100529382D02*
X179527914Y-100624620D01*
X179527914Y-100624620D02*
X179575533Y-100672240D01*
X179575533Y-100672240D02*
X179670771Y-100719859D01*
X179670771Y-100719859D02*
X179956485Y-100719859D01*
X179956485Y-100719859D02*
X180051723Y-100672240D01*
X180051723Y-100672240D02*
X180099342Y-100624620D01*
X179099342Y-99815097D02*
X179051723Y-99767478D01*
X179051723Y-99767478D02*
X178956485Y-99719859D01*
X178956485Y-99719859D02*
X178718390Y-99719859D01*
X178718390Y-99719859D02*
X178623152Y-99767478D01*
X178623152Y-99767478D02*
X178575533Y-99815097D01*
X178575533Y-99815097D02*
X178527914Y-99910335D01*
X178527914Y-99910335D02*
X178527914Y-100005573D01*
X178527914Y-100005573D02*
X178575533Y-100148430D01*
X178575533Y-100148430D02*
X179146961Y-100719859D01*
X179146961Y-100719859D02*
X178527914Y-100719859D01*
X178099342Y-100719859D02*
X178099342Y-99719859D01*
X178099342Y-100196049D02*
X177527914Y-100196049D01*
X177527914Y-100719859D02*
X177527914Y-99719859D01*
X177146961Y-99719859D02*
X176480295Y-99719859D01*
X176480295Y-99719859D02*
X176908866Y-100719859D01*
X176146961Y-100672240D02*
X176004104Y-100719859D01*
X176004104Y-100719859D02*
X175766009Y-100719859D01*
X175766009Y-100719859D02*
X175670771Y-100672240D01*
X175670771Y-100672240D02*
X175623152Y-100624620D01*
X175623152Y-100624620D02*
X175575533Y-100529382D01*
X175575533Y-100529382D02*
X175575533Y-100434144D01*
X175575533Y-100434144D02*
X175623152Y-100338906D01*
X175623152Y-100338906D02*
X175670771Y-100291287D01*
X175670771Y-100291287D02*
X175766009Y-100243668D01*
X175766009Y-100243668D02*
X175956485Y-100196049D01*
X175956485Y-100196049D02*
X176051723Y-100148430D01*
X176051723Y-100148430D02*
X176099342Y-100100811D01*
X176099342Y-100100811D02*
X176146961Y-100005573D01*
X176146961Y-100005573D02*
X176146961Y-99910335D01*
X176146961Y-99910335D02*
X176099342Y-99815097D01*
X176099342Y-99815097D02*
X176051723Y-99767478D01*
X176051723Y-99767478D02*
X175956485Y-99719859D01*
X175956485Y-99719859D02*
X175718390Y-99719859D01*
X175718390Y-99719859D02*
X175575533Y-99767478D01*
X175242199Y-99719859D02*
X174623152Y-99719859D01*
X174623152Y-99719859D02*
X174956485Y-100100811D01*
X174956485Y-100100811D02*
X174813628Y-100100811D01*
X174813628Y-100100811D02*
X174718390Y-100148430D01*
X174718390Y-100148430D02*
X174670771Y-100196049D01*
X174670771Y-100196049D02*
X174623152Y-100291287D01*
X174623152Y-100291287D02*
X174623152Y-100529382D01*
X174623152Y-100529382D02*
X174670771Y-100624620D01*
X174670771Y-100624620D02*
X174718390Y-100672240D01*
X174718390Y-100672240D02*
X174813628Y-100719859D01*
X174813628Y-100719859D02*
X175099342Y-100719859D01*
X175099342Y-100719859D02*
X175194580Y-100672240D01*
X175194580Y-100672240D02*
X175242199Y-100624620D01*
X173099342Y-100196049D02*
X172956485Y-100243668D01*
X172956485Y-100243668D02*
X172908866Y-100291287D01*
X172908866Y-100291287D02*
X172861247Y-100386525D01*
X172861247Y-100386525D02*
X172861247Y-100529382D01*
X172861247Y-100529382D02*
X172908866Y-100624620D01*
X172908866Y-100624620D02*
X172956485Y-100672240D01*
X172956485Y-100672240D02*
X173051723Y-100719859D01*
X173051723Y-100719859D02*
X173432675Y-100719859D01*
X173432675Y-100719859D02*
X173432675Y-99719859D01*
X173432675Y-99719859D02*
X173099342Y-99719859D01*
X173099342Y-99719859D02*
X173004104Y-99767478D01*
X173004104Y-99767478D02*
X172956485Y-99815097D01*
X172956485Y-99815097D02*
X172908866Y-99910335D01*
X172908866Y-99910335D02*
X172908866Y-100005573D01*
X172908866Y-100005573D02*
X172956485Y-100100811D01*
X172956485Y-100100811D02*
X173004104Y-100148430D01*
X173004104Y-100148430D02*
X173099342Y-100196049D01*
X173099342Y-100196049D02*
X173432675Y-100196049D01*
X172242199Y-99719859D02*
X172051723Y-99719859D01*
X172051723Y-99719859D02*
X171956485Y-99767478D01*
X171956485Y-99767478D02*
X171861247Y-99862716D01*
X171861247Y-99862716D02*
X171813628Y-100053192D01*
X171813628Y-100053192D02*
X171813628Y-100386525D01*
X171813628Y-100386525D02*
X171861247Y-100577001D01*
X171861247Y-100577001D02*
X171956485Y-100672240D01*
X171956485Y-100672240D02*
X172051723Y-100719859D01*
X172051723Y-100719859D02*
X172242199Y-100719859D01*
X172242199Y-100719859D02*
X172337437Y-100672240D01*
X172337437Y-100672240D02*
X172432675Y-100577001D01*
X172432675Y-100577001D02*
X172480294Y-100386525D01*
X172480294Y-100386525D02*
X172480294Y-100053192D01*
X172480294Y-100053192D02*
X172432675Y-99862716D01*
X172432675Y-99862716D02*
X172337437Y-99767478D01*
X172337437Y-99767478D02*
X172242199Y-99719859D01*
X171432675Y-100434144D02*
X170956485Y-100434144D01*
X171527913Y-100719859D02*
X171194580Y-99719859D01*
X171194580Y-99719859D02*
X170861247Y-100719859D01*
X169956485Y-100719859D02*
X170289818Y-100243668D01*
X170527913Y-100719859D02*
X170527913Y-99719859D01*
X170527913Y-99719859D02*
X170146961Y-99719859D01*
X170146961Y-99719859D02*
X170051723Y-99767478D01*
X170051723Y-99767478D02*
X170004104Y-99815097D01*
X170004104Y-99815097D02*
X169956485Y-99910335D01*
X169956485Y-99910335D02*
X169956485Y-100053192D01*
X169956485Y-100053192D02*
X170004104Y-100148430D01*
X170004104Y-100148430D02*
X170051723Y-100196049D01*
X170051723Y-100196049D02*
X170146961Y-100243668D01*
X170146961Y-100243668D02*
X170527913Y-100243668D01*
X169527913Y-100719859D02*
X169527913Y-99719859D01*
X169527913Y-99719859D02*
X169289818Y-99719859D01*
X169289818Y-99719859D02*
X169146961Y-99767478D01*
X169146961Y-99767478D02*
X169051723Y-99862716D01*
X169051723Y-99862716D02*
X169004104Y-99957954D01*
X169004104Y-99957954D02*
X168956485Y-100148430D01*
X168956485Y-100148430D02*
X168956485Y-100291287D01*
X168956485Y-100291287D02*
X169004104Y-100481763D01*
X169004104Y-100481763D02*
X169051723Y-100577001D01*
X169051723Y-100577001D02*
X169146961Y-100672240D01*
X169146961Y-100672240D02*
X169289818Y-100719859D01*
X169289818Y-100719859D02*
X169527913Y-100719859D01*
X182289819Y-102329803D02*
X182623152Y-101853612D01*
X182861247Y-102329803D02*
X182861247Y-101329803D01*
X182861247Y-101329803D02*
X182480295Y-101329803D01*
X182480295Y-101329803D02*
X182385057Y-101377422D01*
X182385057Y-101377422D02*
X182337438Y-101425041D01*
X182337438Y-101425041D02*
X182289819Y-101520279D01*
X182289819Y-101520279D02*
X182289819Y-101663136D01*
X182289819Y-101663136D02*
X182337438Y-101758374D01*
X182337438Y-101758374D02*
X182385057Y-101805993D01*
X182385057Y-101805993D02*
X182480295Y-101853612D01*
X182480295Y-101853612D02*
X182861247Y-101853612D01*
X181480295Y-102282184D02*
X181575533Y-102329803D01*
X181575533Y-102329803D02*
X181766009Y-102329803D01*
X181766009Y-102329803D02*
X181861247Y-102282184D01*
X181861247Y-102282184D02*
X181908866Y-102186945D01*
X181908866Y-102186945D02*
X181908866Y-101805993D01*
X181908866Y-101805993D02*
X181861247Y-101710755D01*
X181861247Y-101710755D02*
X181766009Y-101663136D01*
X181766009Y-101663136D02*
X181575533Y-101663136D01*
X181575533Y-101663136D02*
X181480295Y-101710755D01*
X181480295Y-101710755D02*
X181432676Y-101805993D01*
X181432676Y-101805993D02*
X181432676Y-101901231D01*
X181432676Y-101901231D02*
X181908866Y-101996469D01*
X181099342Y-101663136D02*
X180861247Y-102329803D01*
X180861247Y-102329803D02*
X180623152Y-101663136D01*
X180242199Y-102329803D02*
X180242199Y-101663136D01*
X180242199Y-101329803D02*
X180289818Y-101377422D01*
X180289818Y-101377422D02*
X180242199Y-101425041D01*
X180242199Y-101425041D02*
X180194580Y-101377422D01*
X180194580Y-101377422D02*
X180242199Y-101329803D01*
X180242199Y-101329803D02*
X180242199Y-101425041D01*
X179813628Y-102282184D02*
X179718390Y-102329803D01*
X179718390Y-102329803D02*
X179527914Y-102329803D01*
X179527914Y-102329803D02*
X179432676Y-102282184D01*
X179432676Y-102282184D02*
X179385057Y-102186945D01*
X179385057Y-102186945D02*
X179385057Y-102139326D01*
X179385057Y-102139326D02*
X179432676Y-102044088D01*
X179432676Y-102044088D02*
X179527914Y-101996469D01*
X179527914Y-101996469D02*
X179670771Y-101996469D01*
X179670771Y-101996469D02*
X179766009Y-101948850D01*
X179766009Y-101948850D02*
X179813628Y-101853612D01*
X179813628Y-101853612D02*
X179813628Y-101805993D01*
X179813628Y-101805993D02*
X179766009Y-101710755D01*
X179766009Y-101710755D02*
X179670771Y-101663136D01*
X179670771Y-101663136D02*
X179527914Y-101663136D01*
X179527914Y-101663136D02*
X179432676Y-101710755D01*
X178956485Y-102329803D02*
X178956485Y-101663136D01*
X178956485Y-101329803D02*
X179004104Y-101377422D01*
X179004104Y-101377422D02*
X178956485Y-101425041D01*
X178956485Y-101425041D02*
X178908866Y-101377422D01*
X178908866Y-101377422D02*
X178956485Y-101329803D01*
X178956485Y-101329803D02*
X178956485Y-101425041D01*
X178337438Y-102329803D02*
X178432676Y-102282184D01*
X178432676Y-102282184D02*
X178480295Y-102234564D01*
X178480295Y-102234564D02*
X178527914Y-102139326D01*
X178527914Y-102139326D02*
X178527914Y-101853612D01*
X178527914Y-101853612D02*
X178480295Y-101758374D01*
X178480295Y-101758374D02*
X178432676Y-101710755D01*
X178432676Y-101710755D02*
X178337438Y-101663136D01*
X178337438Y-101663136D02*
X178194581Y-101663136D01*
X178194581Y-101663136D02*
X178099343Y-101710755D01*
X178099343Y-101710755D02*
X178051724Y-101758374D01*
X178051724Y-101758374D02*
X178004105Y-101853612D01*
X178004105Y-101853612D02*
X178004105Y-102139326D01*
X178004105Y-102139326D02*
X178051724Y-102234564D01*
X178051724Y-102234564D02*
X178099343Y-102282184D01*
X178099343Y-102282184D02*
X178194581Y-102329803D01*
X178194581Y-102329803D02*
X178337438Y-102329803D01*
X177575533Y-101663136D02*
X177575533Y-102329803D01*
X177575533Y-101758374D02*
X177527914Y-101710755D01*
X177527914Y-101710755D02*
X177432676Y-101663136D01*
X177432676Y-101663136D02*
X177289819Y-101663136D01*
X177289819Y-101663136D02*
X177194581Y-101710755D01*
X177194581Y-101710755D02*
X177146962Y-101805993D01*
X177146962Y-101805993D02*
X177146962Y-102329803D01*
X176670771Y-102234564D02*
X176623152Y-102282184D01*
X176623152Y-102282184D02*
X176670771Y-102329803D01*
X176670771Y-102329803D02*
X176718390Y-102282184D01*
X176718390Y-102282184D02*
X176670771Y-102234564D01*
X176670771Y-102234564D02*
X176670771Y-102329803D01*
X176670771Y-101710755D02*
X176623152Y-101758374D01*
X176623152Y-101758374D02*
X176670771Y-101805993D01*
X176670771Y-101805993D02*
X176718390Y-101758374D01*
X176718390Y-101758374D02*
X176670771Y-101710755D01*
X176670771Y-101710755D02*
X176670771Y-101805993D01*
X174861248Y-102329803D02*
X175194581Y-101853612D01*
X175432676Y-102329803D02*
X175432676Y-101329803D01*
X175432676Y-101329803D02*
X175051724Y-101329803D01*
X175051724Y-101329803D02*
X174956486Y-101377422D01*
X174956486Y-101377422D02*
X174908867Y-101425041D01*
X174908867Y-101425041D02*
X174861248Y-101520279D01*
X174861248Y-101520279D02*
X174861248Y-101663136D01*
X174861248Y-101663136D02*
X174908867Y-101758374D01*
X174908867Y-101758374D02*
X174956486Y-101805993D01*
X174956486Y-101805993D02*
X175051724Y-101853612D01*
X175051724Y-101853612D02*
X175432676Y-101853612D01*
X174432676Y-101805993D02*
X174099343Y-101805993D01*
X173956486Y-102329803D02*
X174432676Y-102329803D01*
X174432676Y-102329803D02*
X174432676Y-101329803D01*
X174432676Y-101329803D02*
X173956486Y-101329803D01*
X173670771Y-101329803D02*
X173337438Y-102329803D01*
X173337438Y-102329803D02*
X173004105Y-101329803D01*
X171575533Y-101805993D02*
X171432676Y-101853612D01*
X171432676Y-101853612D02*
X171385057Y-101901231D01*
X171385057Y-101901231D02*
X171337438Y-101996469D01*
X171337438Y-101996469D02*
X171337438Y-102139326D01*
X171337438Y-102139326D02*
X171385057Y-102234564D01*
X171385057Y-102234564D02*
X171432676Y-102282184D01*
X171432676Y-102282184D02*
X171527914Y-102329803D01*
X171527914Y-102329803D02*
X171908866Y-102329803D01*
X171908866Y-102329803D02*
X171908866Y-101329803D01*
X171908866Y-101329803D02*
X171575533Y-101329803D01*
X171575533Y-101329803D02*
X171480295Y-101377422D01*
X171480295Y-101377422D02*
X171432676Y-101425041D01*
X171432676Y-101425041D02*
X171385057Y-101520279D01*
X171385057Y-101520279D02*
X171385057Y-101615517D01*
X171385057Y-101615517D02*
X171432676Y-101710755D01*
X171432676Y-101710755D02*
X171480295Y-101758374D01*
X171480295Y-101758374D02*
X171575533Y-101805993D01*
X171575533Y-101805993D02*
X171908866Y-101805993D01*
X182861247Y-103939747D02*
X182861247Y-102939747D01*
X182861247Y-102939747D02*
X182623152Y-102939747D01*
X182623152Y-102939747D02*
X182480295Y-102987366D01*
X182480295Y-102987366D02*
X182385057Y-103082604D01*
X182385057Y-103082604D02*
X182337438Y-103177842D01*
X182337438Y-103177842D02*
X182289819Y-103368318D01*
X182289819Y-103368318D02*
X182289819Y-103511175D01*
X182289819Y-103511175D02*
X182337438Y-103701651D01*
X182337438Y-103701651D02*
X182385057Y-103796889D01*
X182385057Y-103796889D02*
X182480295Y-103892128D01*
X182480295Y-103892128D02*
X182623152Y-103939747D01*
X182623152Y-103939747D02*
X182861247Y-103939747D01*
X181480295Y-103892128D02*
X181575533Y-103939747D01*
X181575533Y-103939747D02*
X181766009Y-103939747D01*
X181766009Y-103939747D02*
X181861247Y-103892128D01*
X181861247Y-103892128D02*
X181908866Y-103796889D01*
X181908866Y-103796889D02*
X181908866Y-103415937D01*
X181908866Y-103415937D02*
X181861247Y-103320699D01*
X181861247Y-103320699D02*
X181766009Y-103273080D01*
X181766009Y-103273080D02*
X181575533Y-103273080D01*
X181575533Y-103273080D02*
X181480295Y-103320699D01*
X181480295Y-103320699D02*
X181432676Y-103415937D01*
X181432676Y-103415937D02*
X181432676Y-103511175D01*
X181432676Y-103511175D02*
X181908866Y-103606413D01*
X181051723Y-103892128D02*
X180956485Y-103939747D01*
X180956485Y-103939747D02*
X180766009Y-103939747D01*
X180766009Y-103939747D02*
X180670771Y-103892128D01*
X180670771Y-103892128D02*
X180623152Y-103796889D01*
X180623152Y-103796889D02*
X180623152Y-103749270D01*
X180623152Y-103749270D02*
X180670771Y-103654032D01*
X180670771Y-103654032D02*
X180766009Y-103606413D01*
X180766009Y-103606413D02*
X180908866Y-103606413D01*
X180908866Y-103606413D02*
X181004104Y-103558794D01*
X181004104Y-103558794D02*
X181051723Y-103463556D01*
X181051723Y-103463556D02*
X181051723Y-103415937D01*
X181051723Y-103415937D02*
X181004104Y-103320699D01*
X181004104Y-103320699D02*
X180908866Y-103273080D01*
X180908866Y-103273080D02*
X180766009Y-103273080D01*
X180766009Y-103273080D02*
X180670771Y-103320699D01*
X180194580Y-103939747D02*
X180194580Y-103273080D01*
X180194580Y-102939747D02*
X180242199Y-102987366D01*
X180242199Y-102987366D02*
X180194580Y-103034985D01*
X180194580Y-103034985D02*
X180146961Y-102987366D01*
X180146961Y-102987366D02*
X180194580Y-102939747D01*
X180194580Y-102939747D02*
X180194580Y-103034985D01*
X179289819Y-103273080D02*
X179289819Y-104082604D01*
X179289819Y-104082604D02*
X179337438Y-104177842D01*
X179337438Y-104177842D02*
X179385057Y-104225461D01*
X179385057Y-104225461D02*
X179480295Y-104273080D01*
X179480295Y-104273080D02*
X179623152Y-104273080D01*
X179623152Y-104273080D02*
X179718390Y-104225461D01*
X179289819Y-103892128D02*
X179385057Y-103939747D01*
X179385057Y-103939747D02*
X179575533Y-103939747D01*
X179575533Y-103939747D02*
X179670771Y-103892128D01*
X179670771Y-103892128D02*
X179718390Y-103844508D01*
X179718390Y-103844508D02*
X179766009Y-103749270D01*
X179766009Y-103749270D02*
X179766009Y-103463556D01*
X179766009Y-103463556D02*
X179718390Y-103368318D01*
X179718390Y-103368318D02*
X179670771Y-103320699D01*
X179670771Y-103320699D02*
X179575533Y-103273080D01*
X179575533Y-103273080D02*
X179385057Y-103273080D01*
X179385057Y-103273080D02*
X179289819Y-103320699D01*
X178813628Y-103273080D02*
X178813628Y-103939747D01*
X178813628Y-103368318D02*
X178766009Y-103320699D01*
X178766009Y-103320699D02*
X178670771Y-103273080D01*
X178670771Y-103273080D02*
X178527914Y-103273080D01*
X178527914Y-103273080D02*
X178432676Y-103320699D01*
X178432676Y-103320699D02*
X178385057Y-103415937D01*
X178385057Y-103415937D02*
X178385057Y-103939747D01*
X177527914Y-103892128D02*
X177623152Y-103939747D01*
X177623152Y-103939747D02*
X177813628Y-103939747D01*
X177813628Y-103939747D02*
X177908866Y-103892128D01*
X177908866Y-103892128D02*
X177956485Y-103796889D01*
X177956485Y-103796889D02*
X177956485Y-103415937D01*
X177956485Y-103415937D02*
X177908866Y-103320699D01*
X177908866Y-103320699D02*
X177813628Y-103273080D01*
X177813628Y-103273080D02*
X177623152Y-103273080D01*
X177623152Y-103273080D02*
X177527914Y-103320699D01*
X177527914Y-103320699D02*
X177480295Y-103415937D01*
X177480295Y-103415937D02*
X177480295Y-103511175D01*
X177480295Y-103511175D02*
X177956485Y-103606413D01*
X177051723Y-103939747D02*
X177051723Y-103273080D01*
X177051723Y-103463556D02*
X177004104Y-103368318D01*
X177004104Y-103368318D02*
X176956485Y-103320699D01*
X176956485Y-103320699D02*
X176861247Y-103273080D01*
X176861247Y-103273080D02*
X176766009Y-103273080D01*
X176432675Y-103844508D02*
X176385056Y-103892128D01*
X176385056Y-103892128D02*
X176432675Y-103939747D01*
X176432675Y-103939747D02*
X176480294Y-103892128D01*
X176480294Y-103892128D02*
X176432675Y-103844508D01*
X176432675Y-103844508D02*
X176432675Y-103939747D01*
X176432675Y-103320699D02*
X176385056Y-103368318D01*
X176385056Y-103368318D02*
X176432675Y-103415937D01*
X176432675Y-103415937D02*
X176480294Y-103368318D01*
X176480294Y-103368318D02*
X176432675Y-103320699D01*
X176432675Y-103320699D02*
X176432675Y-103415937D01*
X175194580Y-103939747D02*
X175194580Y-102939747D01*
X175194580Y-102939747D02*
X174813628Y-102939747D01*
X174813628Y-102939747D02*
X174718390Y-102987366D01*
X174718390Y-102987366D02*
X174670771Y-103034985D01*
X174670771Y-103034985D02*
X174623152Y-103130223D01*
X174623152Y-103130223D02*
X174623152Y-103273080D01*
X174623152Y-103273080D02*
X174670771Y-103368318D01*
X174670771Y-103368318D02*
X174718390Y-103415937D01*
X174718390Y-103415937D02*
X174813628Y-103463556D01*
X174813628Y-103463556D02*
X175194580Y-103463556D01*
X173813628Y-103892128D02*
X173908866Y-103939747D01*
X173908866Y-103939747D02*
X174099342Y-103939747D01*
X174099342Y-103939747D02*
X174194580Y-103892128D01*
X174194580Y-103892128D02*
X174242199Y-103796889D01*
X174242199Y-103796889D02*
X174242199Y-103415937D01*
X174242199Y-103415937D02*
X174194580Y-103320699D01*
X174194580Y-103320699D02*
X174099342Y-103273080D01*
X174099342Y-103273080D02*
X173908866Y-103273080D01*
X173908866Y-103273080D02*
X173813628Y-103320699D01*
X173813628Y-103320699D02*
X173766009Y-103415937D01*
X173766009Y-103415937D02*
X173766009Y-103511175D01*
X173766009Y-103511175D02*
X174242199Y-103606413D01*
X173480294Y-103273080D02*
X173099342Y-103273080D01*
X173337437Y-102939747D02*
X173337437Y-103796889D01*
X173337437Y-103796889D02*
X173289818Y-103892128D01*
X173289818Y-103892128D02*
X173194580Y-103939747D01*
X173194580Y-103939747D02*
X173099342Y-103939747D01*
X172385056Y-103892128D02*
X172480294Y-103939747D01*
X172480294Y-103939747D02*
X172670770Y-103939747D01*
X172670770Y-103939747D02*
X172766008Y-103892128D01*
X172766008Y-103892128D02*
X172813627Y-103796889D01*
X172813627Y-103796889D02*
X172813627Y-103415937D01*
X172813627Y-103415937D02*
X172766008Y-103320699D01*
X172766008Y-103320699D02*
X172670770Y-103273080D01*
X172670770Y-103273080D02*
X172480294Y-103273080D01*
X172480294Y-103273080D02*
X172385056Y-103320699D01*
X172385056Y-103320699D02*
X172337437Y-103415937D01*
X172337437Y-103415937D02*
X172337437Y-103511175D01*
X172337437Y-103511175D02*
X172813627Y-103606413D01*
X171908865Y-103939747D02*
X171908865Y-103273080D01*
X171908865Y-103463556D02*
X171861246Y-103368318D01*
X171861246Y-103368318D02*
X171813627Y-103320699D01*
X171813627Y-103320699D02*
X171718389Y-103273080D01*
X171718389Y-103273080D02*
X171623151Y-103273080D01*
X170527912Y-103939747D02*
X170527912Y-102939747D01*
X170527912Y-103415937D02*
X169956484Y-103415937D01*
X169956484Y-103939747D02*
X169956484Y-102939747D01*
X169051722Y-103939747D02*
X169051722Y-103415937D01*
X169051722Y-103415937D02*
X169099341Y-103320699D01*
X169099341Y-103320699D02*
X169194579Y-103273080D01*
X169194579Y-103273080D02*
X169385055Y-103273080D01*
X169385055Y-103273080D02*
X169480293Y-103320699D01*
X169051722Y-103892128D02*
X169146960Y-103939747D01*
X169146960Y-103939747D02*
X169385055Y-103939747D01*
X169385055Y-103939747D02*
X169480293Y-103892128D01*
X169480293Y-103892128D02*
X169527912Y-103796889D01*
X169527912Y-103796889D02*
X169527912Y-103701651D01*
X169527912Y-103701651D02*
X169480293Y-103606413D01*
X169480293Y-103606413D02*
X169385055Y-103558794D01*
X169385055Y-103558794D02*
X169146960Y-103558794D01*
X169146960Y-103558794D02*
X169051722Y-103511175D01*
X168575531Y-103273080D02*
X168575531Y-103939747D01*
X168575531Y-103368318D02*
X168527912Y-103320699D01*
X168527912Y-103320699D02*
X168432674Y-103273080D01*
X168432674Y-103273080D02*
X168289817Y-103273080D01*
X168289817Y-103273080D02*
X168194579Y-103320699D01*
X168194579Y-103320699D02*
X168146960Y-103415937D01*
X168146960Y-103415937D02*
X168146960Y-103939747D01*
X167242198Y-103892128D02*
X167337436Y-103939747D01*
X167337436Y-103939747D02*
X167527912Y-103939747D01*
X167527912Y-103939747D02*
X167623150Y-103892128D01*
X167623150Y-103892128D02*
X167670769Y-103844508D01*
X167670769Y-103844508D02*
X167718388Y-103749270D01*
X167718388Y-103749270D02*
X167718388Y-103463556D01*
X167718388Y-103463556D02*
X167670769Y-103368318D01*
X167670769Y-103368318D02*
X167623150Y-103320699D01*
X167623150Y-103320699D02*
X167527912Y-103273080D01*
X167527912Y-103273080D02*
X167337436Y-103273080D01*
X167337436Y-103273080D02*
X167242198Y-103320699D01*
X166385055Y-103939747D02*
X166385055Y-103415937D01*
X166385055Y-103415937D02*
X166432674Y-103320699D01*
X166432674Y-103320699D02*
X166527912Y-103273080D01*
X166527912Y-103273080D02*
X166718388Y-103273080D01*
X166718388Y-103273080D02*
X166813626Y-103320699D01*
X166385055Y-103892128D02*
X166480293Y-103939747D01*
X166480293Y-103939747D02*
X166718388Y-103939747D01*
X166718388Y-103939747D02*
X166813626Y-103892128D01*
X166813626Y-103892128D02*
X166861245Y-103796889D01*
X166861245Y-103796889D02*
X166861245Y-103701651D01*
X166861245Y-103701651D02*
X166813626Y-103606413D01*
X166813626Y-103606413D02*
X166718388Y-103558794D01*
X166718388Y-103558794D02*
X166480293Y-103558794D01*
X166480293Y-103558794D02*
X166385055Y-103511175D01*
X165908864Y-103939747D02*
X165908864Y-102939747D01*
X165813626Y-103558794D02*
X165527912Y-103939747D01*
X165527912Y-103273080D02*
X165908864Y-103654032D01*
X182861247Y-105549691D02*
X182861247Y-104549691D01*
X182861247Y-104549691D02*
X182527914Y-105263976D01*
X182527914Y-105263976D02*
X182194581Y-104549691D01*
X182194581Y-104549691D02*
X182194581Y-105549691D01*
X181146962Y-105454452D02*
X181194581Y-105502072D01*
X181194581Y-105502072D02*
X181337438Y-105549691D01*
X181337438Y-105549691D02*
X181432676Y-105549691D01*
X181432676Y-105549691D02*
X181575533Y-105502072D01*
X181575533Y-105502072D02*
X181670771Y-105406833D01*
X181670771Y-105406833D02*
X181718390Y-105311595D01*
X181718390Y-105311595D02*
X181766009Y-105121119D01*
X181766009Y-105121119D02*
X181766009Y-104978262D01*
X181766009Y-104978262D02*
X181718390Y-104787786D01*
X181718390Y-104787786D02*
X181670771Y-104692548D01*
X181670771Y-104692548D02*
X181575533Y-104597310D01*
X181575533Y-104597310D02*
X181432676Y-104549691D01*
X181432676Y-104549691D02*
X181337438Y-104549691D01*
X181337438Y-104549691D02*
X181194581Y-104597310D01*
X181194581Y-104597310D02*
X181146962Y-104644929D01*
X180718390Y-104549691D02*
X180718390Y-105359214D01*
X180718390Y-105359214D02*
X180670771Y-105454452D01*
X180670771Y-105454452D02*
X180623152Y-105502072D01*
X180623152Y-105502072D02*
X180527914Y-105549691D01*
X180527914Y-105549691D02*
X180337438Y-105549691D01*
X180337438Y-105549691D02*
X180242200Y-105502072D01*
X180242200Y-105502072D02*
X180194581Y-105454452D01*
X180194581Y-105454452D02*
X180146962Y-105359214D01*
X180146962Y-105359214D02*
X180146962Y-104549691D01*
X179670771Y-105454452D02*
X179623152Y-105502072D01*
X179623152Y-105502072D02*
X179670771Y-105549691D01*
X179670771Y-105549691D02*
X179718390Y-105502072D01*
X179718390Y-105502072D02*
X179670771Y-105454452D01*
X179670771Y-105454452D02*
X179670771Y-105549691D01*
X179670771Y-104930643D02*
X179623152Y-104978262D01*
X179623152Y-104978262D02*
X179670771Y-105025881D01*
X179670771Y-105025881D02*
X179718390Y-104978262D01*
X179718390Y-104978262D02*
X179670771Y-104930643D01*
X179670771Y-104930643D02*
X179670771Y-105025881D01*
X178480295Y-105502072D02*
X178337438Y-105549691D01*
X178337438Y-105549691D02*
X178099343Y-105549691D01*
X178099343Y-105549691D02*
X178004105Y-105502072D01*
X178004105Y-105502072D02*
X177956486Y-105454452D01*
X177956486Y-105454452D02*
X177908867Y-105359214D01*
X177908867Y-105359214D02*
X177908867Y-105263976D01*
X177908867Y-105263976D02*
X177956486Y-105168738D01*
X177956486Y-105168738D02*
X178004105Y-105121119D01*
X178004105Y-105121119D02*
X178099343Y-105073500D01*
X178099343Y-105073500D02*
X178289819Y-105025881D01*
X178289819Y-105025881D02*
X178385057Y-104978262D01*
X178385057Y-104978262D02*
X178432676Y-104930643D01*
X178432676Y-104930643D02*
X178480295Y-104835405D01*
X178480295Y-104835405D02*
X178480295Y-104740167D01*
X178480295Y-104740167D02*
X178432676Y-104644929D01*
X178432676Y-104644929D02*
X178385057Y-104597310D01*
X178385057Y-104597310D02*
X178289819Y-104549691D01*
X178289819Y-104549691D02*
X178051724Y-104549691D01*
X178051724Y-104549691D02*
X177908867Y-104597310D01*
X177623152Y-104549691D02*
X177051724Y-104549691D01*
X177337438Y-105549691D02*
X177337438Y-104549691D01*
X176718390Y-105549691D02*
X176718390Y-104549691D01*
X176718390Y-104549691D02*
X176385057Y-105263976D01*
X176385057Y-105263976D02*
X176051724Y-104549691D01*
X176051724Y-104549691D02*
X176051724Y-105549691D01*
X175670771Y-104549691D02*
X175051724Y-104549691D01*
X175051724Y-104549691D02*
X175385057Y-104930643D01*
X175385057Y-104930643D02*
X175242200Y-104930643D01*
X175242200Y-104930643D02*
X175146962Y-104978262D01*
X175146962Y-104978262D02*
X175099343Y-105025881D01*
X175099343Y-105025881D02*
X175051724Y-105121119D01*
X175051724Y-105121119D02*
X175051724Y-105359214D01*
X175051724Y-105359214D02*
X175099343Y-105454452D01*
X175099343Y-105454452D02*
X175146962Y-105502072D01*
X175146962Y-105502072D02*
X175242200Y-105549691D01*
X175242200Y-105549691D02*
X175527914Y-105549691D01*
X175527914Y-105549691D02*
X175623152Y-105502072D01*
X175623152Y-105502072D02*
X175670771Y-105454452D01*
X174670771Y-104644929D02*
X174623152Y-104597310D01*
X174623152Y-104597310D02*
X174527914Y-104549691D01*
X174527914Y-104549691D02*
X174289819Y-104549691D01*
X174289819Y-104549691D02*
X174194581Y-104597310D01*
X174194581Y-104597310D02*
X174146962Y-104644929D01*
X174146962Y-104644929D02*
X174099343Y-104740167D01*
X174099343Y-104740167D02*
X174099343Y-104835405D01*
X174099343Y-104835405D02*
X174146962Y-104978262D01*
X174146962Y-104978262D02*
X174718390Y-105549691D01*
X174718390Y-105549691D02*
X174099343Y-105549691D01*
X173670771Y-105549691D02*
X173670771Y-104549691D01*
X173670771Y-105025881D02*
X173099343Y-105025881D01*
X173099343Y-105549691D02*
X173099343Y-104549691D01*
X172718390Y-104549691D02*
X172051724Y-104549691D01*
X172051724Y-104549691D02*
X172480295Y-105549691D01*
X171718390Y-105502072D02*
X171575533Y-105549691D01*
X171575533Y-105549691D02*
X171337438Y-105549691D01*
X171337438Y-105549691D02*
X171242200Y-105502072D01*
X171242200Y-105502072D02*
X171194581Y-105454452D01*
X171194581Y-105454452D02*
X171146962Y-105359214D01*
X171146962Y-105359214D02*
X171146962Y-105263976D01*
X171146962Y-105263976D02*
X171194581Y-105168738D01*
X171194581Y-105168738D02*
X171242200Y-105121119D01*
X171242200Y-105121119D02*
X171337438Y-105073500D01*
X171337438Y-105073500D02*
X171527914Y-105025881D01*
X171527914Y-105025881D02*
X171623152Y-104978262D01*
X171623152Y-104978262D02*
X171670771Y-104930643D01*
X171670771Y-104930643D02*
X171718390Y-104835405D01*
X171718390Y-104835405D02*
X171718390Y-104740167D01*
X171718390Y-104740167D02*
X171670771Y-104644929D01*
X171670771Y-104644929D02*
X171623152Y-104597310D01*
X171623152Y-104597310D02*
X171527914Y-104549691D01*
X171527914Y-104549691D02*
X171289819Y-104549691D01*
X171289819Y-104549691D02*
X171146962Y-104597310D01*
X170813628Y-104549691D02*
X170194581Y-104549691D01*
X170194581Y-104549691D02*
X170527914Y-104930643D01*
X170527914Y-104930643D02*
X170385057Y-104930643D01*
X170385057Y-104930643D02*
X170289819Y-104978262D01*
X170289819Y-104978262D02*
X170242200Y-105025881D01*
X170242200Y-105025881D02*
X170194581Y-105121119D01*
X170194581Y-105121119D02*
X170194581Y-105359214D01*
X170194581Y-105359214D02*
X170242200Y-105454452D01*
X170242200Y-105454452D02*
X170289819Y-105502072D01*
X170289819Y-105502072D02*
X170385057Y-105549691D01*
X170385057Y-105549691D02*
X170670771Y-105549691D01*
X170670771Y-105549691D02*
X170766009Y-105502072D01*
X170766009Y-105502072D02*
X170813628Y-105454452D01*
X169766009Y-105549691D02*
X169766009Y-104549691D01*
X169146962Y-104978262D02*
X169242200Y-104930643D01*
X169242200Y-104930643D02*
X169289819Y-104883024D01*
X169289819Y-104883024D02*
X169337438Y-104787786D01*
X169337438Y-104787786D02*
X169337438Y-104740167D01*
X169337438Y-104740167D02*
X169289819Y-104644929D01*
X169289819Y-104644929D02*
X169242200Y-104597310D01*
X169242200Y-104597310D02*
X169146962Y-104549691D01*
X169146962Y-104549691D02*
X168956486Y-104549691D01*
X168956486Y-104549691D02*
X168861248Y-104597310D01*
X168861248Y-104597310D02*
X168813629Y-104644929D01*
X168813629Y-104644929D02*
X168766010Y-104740167D01*
X168766010Y-104740167D02*
X168766010Y-104787786D01*
X168766010Y-104787786D02*
X168813629Y-104883024D01*
X168813629Y-104883024D02*
X168861248Y-104930643D01*
X168861248Y-104930643D02*
X168956486Y-104978262D01*
X168956486Y-104978262D02*
X169146962Y-104978262D01*
X169146962Y-104978262D02*
X169242200Y-105025881D01*
X169242200Y-105025881D02*
X169289819Y-105073500D01*
X169289819Y-105073500D02*
X169337438Y-105168738D01*
X169337438Y-105168738D02*
X169337438Y-105359214D01*
X169337438Y-105359214D02*
X169289819Y-105454452D01*
X169289819Y-105454452D02*
X169242200Y-105502072D01*
X169242200Y-105502072D02*
X169146962Y-105549691D01*
X169146962Y-105549691D02*
X168956486Y-105549691D01*
X168956486Y-105549691D02*
X168861248Y-105502072D01*
X168861248Y-105502072D02*
X168813629Y-105454452D01*
X168813629Y-105454452D02*
X168766010Y-105359214D01*
X168766010Y-105359214D02*
X168766010Y-105168738D01*
X168766010Y-105168738D02*
X168813629Y-105073500D01*
X168813629Y-105073500D02*
X168861248Y-105025881D01*
X168861248Y-105025881D02*
X168956486Y-104978262D01*
X168480295Y-104549691D02*
X167908867Y-104549691D01*
X168194581Y-105549691D02*
X168194581Y-104549691D01*
X167146962Y-104549691D02*
X167337438Y-104549691D01*
X167337438Y-104549691D02*
X167432676Y-104597310D01*
X167432676Y-104597310D02*
X167480295Y-104644929D01*
X167480295Y-104644929D02*
X167575533Y-104787786D01*
X167575533Y-104787786D02*
X167623152Y-104978262D01*
X167623152Y-104978262D02*
X167623152Y-105359214D01*
X167623152Y-105359214D02*
X167575533Y-105454452D01*
X167575533Y-105454452D02*
X167527914Y-105502072D01*
X167527914Y-105502072D02*
X167432676Y-105549691D01*
X167432676Y-105549691D02*
X167242200Y-105549691D01*
X167242200Y-105549691D02*
X167146962Y-105502072D01*
X167146962Y-105502072D02*
X167099343Y-105454452D01*
X167099343Y-105454452D02*
X167051724Y-105359214D01*
X167051724Y-105359214D02*
X167051724Y-105121119D01*
X167051724Y-105121119D02*
X167099343Y-105025881D01*
X167099343Y-105025881D02*
X167146962Y-104978262D01*
X167146962Y-104978262D02*
X167242200Y-104930643D01*
X167242200Y-104930643D02*
X167432676Y-104930643D01*
X167432676Y-104930643D02*
X167527914Y-104978262D01*
X167527914Y-104978262D02*
X167575533Y-105025881D01*
X167575533Y-105025881D02*
X167623152Y-105121119D01*
X182908866Y-107112016D02*
X182766009Y-107159635D01*
X182766009Y-107159635D02*
X182527914Y-107159635D01*
X182527914Y-107159635D02*
X182432676Y-107112016D01*
X182432676Y-107112016D02*
X182385057Y-107064396D01*
X182385057Y-107064396D02*
X182337438Y-106969158D01*
X182337438Y-106969158D02*
X182337438Y-106873920D01*
X182337438Y-106873920D02*
X182385057Y-106778682D01*
X182385057Y-106778682D02*
X182432676Y-106731063D01*
X182432676Y-106731063D02*
X182527914Y-106683444D01*
X182527914Y-106683444D02*
X182718390Y-106635825D01*
X182718390Y-106635825D02*
X182813628Y-106588206D01*
X182813628Y-106588206D02*
X182861247Y-106540587D01*
X182861247Y-106540587D02*
X182908866Y-106445349D01*
X182908866Y-106445349D02*
X182908866Y-106350111D01*
X182908866Y-106350111D02*
X182861247Y-106254873D01*
X182861247Y-106254873D02*
X182813628Y-106207254D01*
X182813628Y-106207254D02*
X182718390Y-106159635D01*
X182718390Y-106159635D02*
X182480295Y-106159635D01*
X182480295Y-106159635D02*
X182337438Y-106207254D01*
X181908866Y-107159635D02*
X181908866Y-106159635D01*
X181908866Y-106159635D02*
X181670771Y-106159635D01*
X181670771Y-106159635D02*
X181527914Y-106207254D01*
X181527914Y-106207254D02*
X181432676Y-106302492D01*
X181432676Y-106302492D02*
X181385057Y-106397730D01*
X181385057Y-106397730D02*
X181337438Y-106588206D01*
X181337438Y-106588206D02*
X181337438Y-106731063D01*
X181337438Y-106731063D02*
X181385057Y-106921539D01*
X181385057Y-106921539D02*
X181432676Y-107016777D01*
X181432676Y-107016777D02*
X181527914Y-107112016D01*
X181527914Y-107112016D02*
X181670771Y-107159635D01*
X181670771Y-107159635D02*
X181908866Y-107159635D01*
X180337438Y-107159635D02*
X180670771Y-106683444D01*
X180908866Y-107159635D02*
X180908866Y-106159635D01*
X180908866Y-106159635D02*
X180527914Y-106159635D01*
X180527914Y-106159635D02*
X180432676Y-106207254D01*
X180432676Y-106207254D02*
X180385057Y-106254873D01*
X180385057Y-106254873D02*
X180337438Y-106350111D01*
X180337438Y-106350111D02*
X180337438Y-106492968D01*
X180337438Y-106492968D02*
X180385057Y-106588206D01*
X180385057Y-106588206D02*
X180432676Y-106635825D01*
X180432676Y-106635825D02*
X180527914Y-106683444D01*
X180527914Y-106683444D02*
X180908866Y-106683444D01*
X179956485Y-106873920D02*
X179480295Y-106873920D01*
X180051723Y-107159635D02*
X179718390Y-106159635D01*
X179718390Y-106159635D02*
X179385057Y-107159635D01*
X179051723Y-107159635D02*
X179051723Y-106159635D01*
X179051723Y-106159635D02*
X178718390Y-106873920D01*
X178718390Y-106873920D02*
X178385057Y-106159635D01*
X178385057Y-106159635D02*
X178385057Y-107159635D01*
X177908866Y-107064396D02*
X177861247Y-107112016D01*
X177861247Y-107112016D02*
X177908866Y-107159635D01*
X177908866Y-107159635D02*
X177956485Y-107112016D01*
X177956485Y-107112016D02*
X177908866Y-107064396D01*
X177908866Y-107064396D02*
X177908866Y-107159635D01*
X177908866Y-106540587D02*
X177861247Y-106588206D01*
X177861247Y-106588206D02*
X177908866Y-106635825D01*
X177908866Y-106635825D02*
X177956485Y-106588206D01*
X177956485Y-106588206D02*
X177908866Y-106540587D01*
X177908866Y-106540587D02*
X177908866Y-106635825D01*
X176670771Y-107159635D02*
X176670771Y-106159635D01*
X176242200Y-107112016D02*
X176099343Y-107159635D01*
X176099343Y-107159635D02*
X175861248Y-107159635D01*
X175861248Y-107159635D02*
X175766010Y-107112016D01*
X175766010Y-107112016D02*
X175718391Y-107064396D01*
X175718391Y-107064396D02*
X175670772Y-106969158D01*
X175670772Y-106969158D02*
X175670772Y-106873920D01*
X175670772Y-106873920D02*
X175718391Y-106778682D01*
X175718391Y-106778682D02*
X175766010Y-106731063D01*
X175766010Y-106731063D02*
X175861248Y-106683444D01*
X175861248Y-106683444D02*
X176051724Y-106635825D01*
X176051724Y-106635825D02*
X176146962Y-106588206D01*
X176146962Y-106588206D02*
X176194581Y-106540587D01*
X176194581Y-106540587D02*
X176242200Y-106445349D01*
X176242200Y-106445349D02*
X176242200Y-106350111D01*
X176242200Y-106350111D02*
X176194581Y-106254873D01*
X176194581Y-106254873D02*
X176146962Y-106207254D01*
X176146962Y-106207254D02*
X176051724Y-106159635D01*
X176051724Y-106159635D02*
X175813629Y-106159635D01*
X175813629Y-106159635D02*
X175670772Y-106207254D01*
X174813629Y-106492968D02*
X174813629Y-107159635D01*
X175051724Y-106112016D02*
X175289819Y-106826301D01*
X175289819Y-106826301D02*
X174670772Y-106826301D01*
X174337438Y-106254873D02*
X174289819Y-106207254D01*
X174289819Y-106207254D02*
X174194581Y-106159635D01*
X174194581Y-106159635D02*
X173956486Y-106159635D01*
X173956486Y-106159635D02*
X173861248Y-106207254D01*
X173861248Y-106207254D02*
X173813629Y-106254873D01*
X173813629Y-106254873D02*
X173766010Y-106350111D01*
X173766010Y-106350111D02*
X173766010Y-106445349D01*
X173766010Y-106445349D02*
X173813629Y-106588206D01*
X173813629Y-106588206D02*
X174385057Y-107159635D01*
X174385057Y-107159635D02*
X173766010Y-107159635D01*
X173385057Y-107112016D02*
X173242200Y-107159635D01*
X173242200Y-107159635D02*
X173004105Y-107159635D01*
X173004105Y-107159635D02*
X172908867Y-107112016D01*
X172908867Y-107112016D02*
X172861248Y-107064396D01*
X172861248Y-107064396D02*
X172813629Y-106969158D01*
X172813629Y-106969158D02*
X172813629Y-106873920D01*
X172813629Y-106873920D02*
X172861248Y-106778682D01*
X172861248Y-106778682D02*
X172908867Y-106731063D01*
X172908867Y-106731063D02*
X173004105Y-106683444D01*
X173004105Y-106683444D02*
X173194581Y-106635825D01*
X173194581Y-106635825D02*
X173289819Y-106588206D01*
X173289819Y-106588206D02*
X173337438Y-106540587D01*
X173337438Y-106540587D02*
X173385057Y-106445349D01*
X173385057Y-106445349D02*
X173385057Y-106350111D01*
X173385057Y-106350111D02*
X173337438Y-106254873D01*
X173337438Y-106254873D02*
X173289819Y-106207254D01*
X173289819Y-106207254D02*
X173194581Y-106159635D01*
X173194581Y-106159635D02*
X172956486Y-106159635D01*
X172956486Y-106159635D02*
X172813629Y-106207254D01*
X172242200Y-106588206D02*
X172337438Y-106540587D01*
X172337438Y-106540587D02*
X172385057Y-106492968D01*
X172385057Y-106492968D02*
X172432676Y-106397730D01*
X172432676Y-106397730D02*
X172432676Y-106350111D01*
X172432676Y-106350111D02*
X172385057Y-106254873D01*
X172385057Y-106254873D02*
X172337438Y-106207254D01*
X172337438Y-106207254D02*
X172242200Y-106159635D01*
X172242200Y-106159635D02*
X172051724Y-106159635D01*
X172051724Y-106159635D02*
X171956486Y-106207254D01*
X171956486Y-106207254D02*
X171908867Y-106254873D01*
X171908867Y-106254873D02*
X171861248Y-106350111D01*
X171861248Y-106350111D02*
X171861248Y-106397730D01*
X171861248Y-106397730D02*
X171908867Y-106492968D01*
X171908867Y-106492968D02*
X171956486Y-106540587D01*
X171956486Y-106540587D02*
X172051724Y-106588206D01*
X172051724Y-106588206D02*
X172242200Y-106588206D01*
X172242200Y-106588206D02*
X172337438Y-106635825D01*
X172337438Y-106635825D02*
X172385057Y-106683444D01*
X172385057Y-106683444D02*
X172432676Y-106778682D01*
X172432676Y-106778682D02*
X172432676Y-106969158D01*
X172432676Y-106969158D02*
X172385057Y-107064396D01*
X172385057Y-107064396D02*
X172337438Y-107112016D01*
X172337438Y-107112016D02*
X172242200Y-107159635D01*
X172242200Y-107159635D02*
X172051724Y-107159635D01*
X172051724Y-107159635D02*
X171956486Y-107112016D01*
X171956486Y-107112016D02*
X171908867Y-107064396D01*
X171908867Y-107064396D02*
X171861248Y-106969158D01*
X171861248Y-106969158D02*
X171861248Y-106778682D01*
X171861248Y-106778682D02*
X171908867Y-106683444D01*
X171908867Y-106683444D02*
X171956486Y-106635825D01*
X171956486Y-106635825D02*
X172051724Y-106588206D01*
X171527914Y-106159635D02*
X170908867Y-106159635D01*
X170908867Y-106159635D02*
X171242200Y-106540587D01*
X171242200Y-106540587D02*
X171099343Y-106540587D01*
X171099343Y-106540587D02*
X171004105Y-106588206D01*
X171004105Y-106588206D02*
X170956486Y-106635825D01*
X170956486Y-106635825D02*
X170908867Y-106731063D01*
X170908867Y-106731063D02*
X170908867Y-106969158D01*
X170908867Y-106969158D02*
X170956486Y-107064396D01*
X170956486Y-107064396D02*
X171004105Y-107112016D01*
X171004105Y-107112016D02*
X171099343Y-107159635D01*
X171099343Y-107159635D02*
X171385057Y-107159635D01*
X171385057Y-107159635D02*
X171480295Y-107112016D01*
X171480295Y-107112016D02*
X171527914Y-107064396D01*
X170527914Y-106254873D02*
X170480295Y-106207254D01*
X170480295Y-106207254D02*
X170385057Y-106159635D01*
X170385057Y-106159635D02*
X170146962Y-106159635D01*
X170146962Y-106159635D02*
X170051724Y-106207254D01*
X170051724Y-106207254D02*
X170004105Y-106254873D01*
X170004105Y-106254873D02*
X169956486Y-106350111D01*
X169956486Y-106350111D02*
X169956486Y-106445349D01*
X169956486Y-106445349D02*
X170004105Y-106588206D01*
X170004105Y-106588206D02*
X170575533Y-107159635D01*
X170575533Y-107159635D02*
X169956486Y-107159635D01*
X169337438Y-106159635D02*
X169242200Y-106159635D01*
X169242200Y-106159635D02*
X169146962Y-106207254D01*
X169146962Y-106207254D02*
X169099343Y-106254873D01*
X169099343Y-106254873D02*
X169051724Y-106350111D01*
X169051724Y-106350111D02*
X169004105Y-106540587D01*
X169004105Y-106540587D02*
X169004105Y-106778682D01*
X169004105Y-106778682D02*
X169051724Y-106969158D01*
X169051724Y-106969158D02*
X169099343Y-107064396D01*
X169099343Y-107064396D02*
X169146962Y-107112016D01*
X169146962Y-107112016D02*
X169242200Y-107159635D01*
X169242200Y-107159635D02*
X169337438Y-107159635D01*
X169337438Y-107159635D02*
X169432676Y-107112016D01*
X169432676Y-107112016D02*
X169480295Y-107064396D01*
X169480295Y-107064396D02*
X169527914Y-106969158D01*
X169527914Y-106969158D02*
X169575533Y-106778682D01*
X169575533Y-106778682D02*
X169575533Y-106540587D01*
X169575533Y-106540587D02*
X169527914Y-106350111D01*
X169527914Y-106350111D02*
X169480295Y-106254873D01*
X169480295Y-106254873D02*
X169432676Y-106207254D01*
X169432676Y-106207254D02*
X169337438Y-106159635D01*
X168385057Y-106159635D02*
X168289819Y-106159635D01*
X168289819Y-106159635D02*
X168194581Y-106207254D01*
X168194581Y-106207254D02*
X168146962Y-106254873D01*
X168146962Y-106254873D02*
X168099343Y-106350111D01*
X168099343Y-106350111D02*
X168051724Y-106540587D01*
X168051724Y-106540587D02*
X168051724Y-106778682D01*
X168051724Y-106778682D02*
X168099343Y-106969158D01*
X168099343Y-106969158D02*
X168146962Y-107064396D01*
X168146962Y-107064396D02*
X168194581Y-107112016D01*
X168194581Y-107112016D02*
X168289819Y-107159635D01*
X168289819Y-107159635D02*
X168385057Y-107159635D01*
X168385057Y-107159635D02*
X168480295Y-107112016D01*
X168480295Y-107112016D02*
X168527914Y-107064396D01*
X168527914Y-107064396D02*
X168575533Y-106969158D01*
X168575533Y-106969158D02*
X168623152Y-106778682D01*
X168623152Y-106778682D02*
X168623152Y-106540587D01*
X168623152Y-106540587D02*
X168575533Y-106350111D01*
X168575533Y-106350111D02*
X168527914Y-106254873D01*
X168527914Y-106254873D02*
X168480295Y-106207254D01*
X168480295Y-106207254D02*
X168385057Y-106159635D01*
X167337438Y-106159635D02*
X167337438Y-106873920D01*
X167337438Y-106873920D02*
X167385057Y-107016777D01*
X167385057Y-107016777D02*
X167480295Y-107112016D01*
X167480295Y-107112016D02*
X167623152Y-107159635D01*
X167623152Y-107159635D02*
X167718390Y-107159635D01*
X166861247Y-106778682D02*
X166099343Y-106778682D01*
X165718390Y-106159635D02*
X165051724Y-106159635D01*
X165051724Y-106159635D02*
X165480295Y-107159635D01*
X164813628Y-106159635D02*
X164242200Y-106159635D01*
X164527914Y-107159635D02*
X164527914Y-106159635D01*
X163432676Y-107159635D02*
X163908866Y-107159635D01*
X163908866Y-107159635D02*
X163908866Y-106159635D01*
X163099342Y-107159635D02*
X163099342Y-106159635D01*
X182861247Y-108769579D02*
X182861247Y-107769579D01*
X182861247Y-107769579D02*
X182289819Y-108769579D01*
X182289819Y-108769579D02*
X182289819Y-107769579D01*
X181861247Y-108483864D02*
X181385057Y-108483864D01*
X181956485Y-108769579D02*
X181623152Y-107769579D01*
X181623152Y-107769579D02*
X181289819Y-108769579D01*
X180956485Y-108769579D02*
X180956485Y-107769579D01*
X180956485Y-107769579D02*
X180385057Y-108769579D01*
X180385057Y-108769579D02*
X180385057Y-107769579D01*
X179908866Y-108769579D02*
X179908866Y-107769579D01*
X179908866Y-107769579D02*
X179670771Y-107769579D01*
X179670771Y-107769579D02*
X179527914Y-107817198D01*
X179527914Y-107817198D02*
X179432676Y-107912436D01*
X179432676Y-107912436D02*
X179385057Y-108007674D01*
X179385057Y-108007674D02*
X179337438Y-108198150D01*
X179337438Y-108198150D02*
X179337438Y-108341007D01*
X179337438Y-108341007D02*
X179385057Y-108531483D01*
X179385057Y-108531483D02*
X179432676Y-108626721D01*
X179432676Y-108626721D02*
X179527914Y-108721960D01*
X179527914Y-108721960D02*
X179670771Y-108769579D01*
X179670771Y-108769579D02*
X179908866Y-108769579D01*
X178908866Y-108674340D02*
X178861247Y-108721960D01*
X178861247Y-108721960D02*
X178908866Y-108769579D01*
X178908866Y-108769579D02*
X178956485Y-108721960D01*
X178956485Y-108721960D02*
X178908866Y-108674340D01*
X178908866Y-108674340D02*
X178908866Y-108769579D01*
X178908866Y-108150531D02*
X178861247Y-108198150D01*
X178861247Y-108198150D02*
X178908866Y-108245769D01*
X178908866Y-108245769D02*
X178956485Y-108198150D01*
X178956485Y-108198150D02*
X178908866Y-108150531D01*
X178908866Y-108150531D02*
X178908866Y-108245769D01*
X177670771Y-108769579D02*
X177670771Y-107769579D01*
X177670771Y-107769579D02*
X177337438Y-108483864D01*
X177337438Y-108483864D02*
X177004105Y-107769579D01*
X177004105Y-107769579D02*
X177004105Y-108769579D01*
X176670771Y-107769579D02*
X176099343Y-107769579D01*
X176385057Y-108769579D02*
X176385057Y-107769579D01*
X175813628Y-107864817D02*
X175766009Y-107817198D01*
X175766009Y-107817198D02*
X175670771Y-107769579D01*
X175670771Y-107769579D02*
X175432676Y-107769579D01*
X175432676Y-107769579D02*
X175337438Y-107817198D01*
X175337438Y-107817198D02*
X175289819Y-107864817D01*
X175289819Y-107864817D02*
X175242200Y-107960055D01*
X175242200Y-107960055D02*
X175242200Y-108055293D01*
X175242200Y-108055293D02*
X175289819Y-108198150D01*
X175289819Y-108198150D02*
X175861247Y-108769579D01*
X175861247Y-108769579D02*
X175242200Y-108769579D01*
X174766009Y-108769579D02*
X174575533Y-108769579D01*
X174575533Y-108769579D02*
X174480295Y-108721960D01*
X174480295Y-108721960D02*
X174432676Y-108674340D01*
X174432676Y-108674340D02*
X174337438Y-108531483D01*
X174337438Y-108531483D02*
X174289819Y-108341007D01*
X174289819Y-108341007D02*
X174289819Y-107960055D01*
X174289819Y-107960055D02*
X174337438Y-107864817D01*
X174337438Y-107864817D02*
X174385057Y-107817198D01*
X174385057Y-107817198D02*
X174480295Y-107769579D01*
X174480295Y-107769579D02*
X174670771Y-107769579D01*
X174670771Y-107769579D02*
X174766009Y-107817198D01*
X174766009Y-107817198D02*
X174813628Y-107864817D01*
X174813628Y-107864817D02*
X174861247Y-107960055D01*
X174861247Y-107960055D02*
X174861247Y-108198150D01*
X174861247Y-108198150D02*
X174813628Y-108293388D01*
X174813628Y-108293388D02*
X174766009Y-108341007D01*
X174766009Y-108341007D02*
X174670771Y-108388626D01*
X174670771Y-108388626D02*
X174480295Y-108388626D01*
X174480295Y-108388626D02*
X174385057Y-108341007D01*
X174385057Y-108341007D02*
X174337438Y-108293388D01*
X174337438Y-108293388D02*
X174289819Y-108198150D01*
X173527914Y-108245769D02*
X173861247Y-108245769D01*
X173861247Y-108769579D02*
X173861247Y-107769579D01*
X173861247Y-107769579D02*
X173385057Y-107769579D01*
X173051723Y-107864817D02*
X173004104Y-107817198D01*
X173004104Y-107817198D02*
X172908866Y-107769579D01*
X172908866Y-107769579D02*
X172670771Y-107769579D01*
X172670771Y-107769579D02*
X172575533Y-107817198D01*
X172575533Y-107817198D02*
X172527914Y-107864817D01*
X172527914Y-107864817D02*
X172480295Y-107960055D01*
X172480295Y-107960055D02*
X172480295Y-108055293D01*
X172480295Y-108055293D02*
X172527914Y-108198150D01*
X172527914Y-108198150D02*
X173099342Y-108769579D01*
X173099342Y-108769579D02*
X172480295Y-108769579D01*
X171527914Y-107817198D02*
X171623152Y-107769579D01*
X171623152Y-107769579D02*
X171766009Y-107769579D01*
X171766009Y-107769579D02*
X171908866Y-107817198D01*
X171908866Y-107817198D02*
X172004104Y-107912436D01*
X172004104Y-107912436D02*
X172051723Y-108007674D01*
X172051723Y-108007674D02*
X172099342Y-108198150D01*
X172099342Y-108198150D02*
X172099342Y-108341007D01*
X172099342Y-108341007D02*
X172051723Y-108531483D01*
X172051723Y-108531483D02*
X172004104Y-108626721D01*
X172004104Y-108626721D02*
X171908866Y-108721960D01*
X171908866Y-108721960D02*
X171766009Y-108769579D01*
X171766009Y-108769579D02*
X171670771Y-108769579D01*
X171670771Y-108769579D02*
X171527914Y-108721960D01*
X171527914Y-108721960D02*
X171480295Y-108674340D01*
X171480295Y-108674340D02*
X171480295Y-108341007D01*
X171480295Y-108341007D02*
X171670771Y-108341007D01*
X170861247Y-107769579D02*
X170766009Y-107769579D01*
X170766009Y-107769579D02*
X170670771Y-107817198D01*
X170670771Y-107817198D02*
X170623152Y-107864817D01*
X170623152Y-107864817D02*
X170575533Y-107960055D01*
X170575533Y-107960055D02*
X170527914Y-108150531D01*
X170527914Y-108150531D02*
X170527914Y-108388626D01*
X170527914Y-108388626D02*
X170575533Y-108579102D01*
X170575533Y-108579102D02*
X170623152Y-108674340D01*
X170623152Y-108674340D02*
X170670771Y-108721960D01*
X170670771Y-108721960D02*
X170766009Y-108769579D01*
X170766009Y-108769579D02*
X170861247Y-108769579D01*
X170861247Y-108769579D02*
X170956485Y-108721960D01*
X170956485Y-108721960D02*
X171004104Y-108674340D01*
X171004104Y-108674340D02*
X171051723Y-108579102D01*
X171051723Y-108579102D02*
X171099342Y-108388626D01*
X171099342Y-108388626D02*
X171099342Y-108150531D01*
X171099342Y-108150531D02*
X171051723Y-107960055D01*
X171051723Y-107960055D02*
X171004104Y-107864817D01*
X171004104Y-107864817D02*
X170956485Y-107817198D01*
X170956485Y-107817198D02*
X170861247Y-107769579D01*
X169956485Y-108198150D02*
X170051723Y-108150531D01*
X170051723Y-108150531D02*
X170099342Y-108102912D01*
X170099342Y-108102912D02*
X170146961Y-108007674D01*
X170146961Y-108007674D02*
X170146961Y-107960055D01*
X170146961Y-107960055D02*
X170099342Y-107864817D01*
X170099342Y-107864817D02*
X170051723Y-107817198D01*
X170051723Y-107817198D02*
X169956485Y-107769579D01*
X169956485Y-107769579D02*
X169766009Y-107769579D01*
X169766009Y-107769579D02*
X169670771Y-107817198D01*
X169670771Y-107817198D02*
X169623152Y-107864817D01*
X169623152Y-107864817D02*
X169575533Y-107960055D01*
X169575533Y-107960055D02*
X169575533Y-108007674D01*
X169575533Y-108007674D02*
X169623152Y-108102912D01*
X169623152Y-108102912D02*
X169670771Y-108150531D01*
X169670771Y-108150531D02*
X169766009Y-108198150D01*
X169766009Y-108198150D02*
X169956485Y-108198150D01*
X169956485Y-108198150D02*
X170051723Y-108245769D01*
X170051723Y-108245769D02*
X170099342Y-108293388D01*
X170099342Y-108293388D02*
X170146961Y-108388626D01*
X170146961Y-108388626D02*
X170146961Y-108579102D01*
X170146961Y-108579102D02*
X170099342Y-108674340D01*
X170099342Y-108674340D02*
X170051723Y-108721960D01*
X170051723Y-108721960D02*
X169956485Y-108769579D01*
X169956485Y-108769579D02*
X169766009Y-108769579D01*
X169766009Y-108769579D02*
X169670771Y-108721960D01*
X169670771Y-108721960D02*
X169623152Y-108674340D01*
X169623152Y-108674340D02*
X169575533Y-108579102D01*
X169575533Y-108579102D02*
X169575533Y-108388626D01*
X169575533Y-108388626D02*
X169623152Y-108293388D01*
X169623152Y-108293388D02*
X169670771Y-108245769D01*
X169670771Y-108245769D02*
X169766009Y-108198150D01*
X169194580Y-108483864D02*
X168718390Y-108483864D01*
X169289818Y-108769579D02*
X168956485Y-107769579D01*
X168956485Y-107769579D02*
X168623152Y-108769579D01*
X167956485Y-108245769D02*
X167813628Y-108293388D01*
X167813628Y-108293388D02*
X167766009Y-108341007D01*
X167766009Y-108341007D02*
X167718390Y-108436245D01*
X167718390Y-108436245D02*
X167718390Y-108579102D01*
X167718390Y-108579102D02*
X167766009Y-108674340D01*
X167766009Y-108674340D02*
X167813628Y-108721960D01*
X167813628Y-108721960D02*
X167908866Y-108769579D01*
X167908866Y-108769579D02*
X168289818Y-108769579D01*
X168289818Y-108769579D02*
X168289818Y-107769579D01*
X168289818Y-107769579D02*
X167956485Y-107769579D01*
X167956485Y-107769579D02*
X167861247Y-107817198D01*
X167861247Y-107817198D02*
X167813628Y-107864817D01*
X167813628Y-107864817D02*
X167766009Y-107960055D01*
X167766009Y-107960055D02*
X167766009Y-108055293D01*
X167766009Y-108055293D02*
X167813628Y-108150531D01*
X167813628Y-108150531D02*
X167861247Y-108198150D01*
X167861247Y-108198150D02*
X167956485Y-108245769D01*
X167956485Y-108245769D02*
X168289818Y-108245769D01*
X167337437Y-108483864D02*
X166861247Y-108483864D01*
X167432675Y-108769579D02*
X167099342Y-107769579D01*
X167099342Y-107769579D02*
X166766009Y-108769579D01*
X165908866Y-107817198D02*
X166004104Y-107769579D01*
X166004104Y-107769579D02*
X166146961Y-107769579D01*
X166146961Y-107769579D02*
X166289818Y-107817198D01*
X166289818Y-107817198D02*
X166385056Y-107912436D01*
X166385056Y-107912436D02*
X166432675Y-108007674D01*
X166432675Y-108007674D02*
X166480294Y-108198150D01*
X166480294Y-108198150D02*
X166480294Y-108341007D01*
X166480294Y-108341007D02*
X166432675Y-108531483D01*
X166432675Y-108531483D02*
X166385056Y-108626721D01*
X166385056Y-108626721D02*
X166289818Y-108721960D01*
X166289818Y-108721960D02*
X166146961Y-108769579D01*
X166146961Y-108769579D02*
X166051723Y-108769579D01*
X166051723Y-108769579D02*
X165908866Y-108721960D01*
X165908866Y-108721960D02*
X165861247Y-108674340D01*
X165861247Y-108674340D02*
X165861247Y-108341007D01*
X165861247Y-108341007D02*
X166051723Y-108341007D01*
X165480294Y-108483864D02*
X165004104Y-108483864D01*
X165575532Y-108769579D02*
X165242199Y-107769579D01*
X165242199Y-107769579D02*
X164908866Y-108769579D01*
X164670770Y-107769579D02*
X164432675Y-108769579D01*
X164432675Y-108769579D02*
X164242199Y-108055293D01*
X164242199Y-108055293D02*
X164051723Y-108769579D01*
X164051723Y-108769579D02*
X163813628Y-107769579D01*
X163432675Y-108769579D02*
X163432675Y-107769579D01*
X163432675Y-107769579D02*
X163051723Y-107769579D01*
X163051723Y-107769579D02*
X162956485Y-107817198D01*
X162956485Y-107817198D02*
X162908866Y-107864817D01*
X162908866Y-107864817D02*
X162861247Y-107960055D01*
X162861247Y-107960055D02*
X162861247Y-108102912D01*
X162861247Y-108102912D02*
X162908866Y-108198150D01*
X162908866Y-108198150D02*
X162956485Y-108245769D01*
X162956485Y-108245769D02*
X163051723Y-108293388D01*
X163051723Y-108293388D02*
X163432675Y-108293388D01*
X162432675Y-108388626D02*
X161670771Y-108388626D01*
X161194580Y-108769579D02*
X161194580Y-107769579D01*
X160861247Y-107769579D02*
X160289819Y-107769579D01*
X160575533Y-108769579D02*
X160575533Y-107769579D01*
X159956485Y-108674340D02*
X159908866Y-108721960D01*
X159908866Y-108721960D02*
X159956485Y-108769579D01*
X159956485Y-108769579D02*
X160004104Y-108721960D01*
X160004104Y-108721960D02*
X159956485Y-108674340D01*
X159956485Y-108674340D02*
X159956485Y-108769579D01*
X159956485Y-108150531D02*
X159908866Y-108198150D01*
X159908866Y-108198150D02*
X159956485Y-108245769D01*
X159956485Y-108245769D02*
X160004104Y-108198150D01*
X160004104Y-108198150D02*
X159956485Y-108150531D01*
X159956485Y-108150531D02*
X159956485Y-108245769D01*
X158956486Y-107817198D02*
X159051724Y-107769579D01*
X159051724Y-107769579D02*
X159194581Y-107769579D01*
X159194581Y-107769579D02*
X159337438Y-107817198D01*
X159337438Y-107817198D02*
X159432676Y-107912436D01*
X159432676Y-107912436D02*
X159480295Y-108007674D01*
X159480295Y-108007674D02*
X159527914Y-108198150D01*
X159527914Y-108198150D02*
X159527914Y-108341007D01*
X159527914Y-108341007D02*
X159480295Y-108531483D01*
X159480295Y-108531483D02*
X159432676Y-108626721D01*
X159432676Y-108626721D02*
X159337438Y-108721960D01*
X159337438Y-108721960D02*
X159194581Y-108769579D01*
X159194581Y-108769579D02*
X159099343Y-108769579D01*
X159099343Y-108769579D02*
X158956486Y-108721960D01*
X158956486Y-108721960D02*
X158908867Y-108674340D01*
X158908867Y-108674340D02*
X158908867Y-108341007D01*
X158908867Y-108341007D02*
X159099343Y-108341007D01*
X182908866Y-110331904D02*
X182766009Y-110379523D01*
X182766009Y-110379523D02*
X182527914Y-110379523D01*
X182527914Y-110379523D02*
X182432676Y-110331904D01*
X182432676Y-110331904D02*
X182385057Y-110284284D01*
X182385057Y-110284284D02*
X182337438Y-110189046D01*
X182337438Y-110189046D02*
X182337438Y-110093808D01*
X182337438Y-110093808D02*
X182385057Y-109998570D01*
X182385057Y-109998570D02*
X182432676Y-109950951D01*
X182432676Y-109950951D02*
X182527914Y-109903332D01*
X182527914Y-109903332D02*
X182718390Y-109855713D01*
X182718390Y-109855713D02*
X182813628Y-109808094D01*
X182813628Y-109808094D02*
X182861247Y-109760475D01*
X182861247Y-109760475D02*
X182908866Y-109665237D01*
X182908866Y-109665237D02*
X182908866Y-109569999D01*
X182908866Y-109569999D02*
X182861247Y-109474761D01*
X182861247Y-109474761D02*
X182813628Y-109427142D01*
X182813628Y-109427142D02*
X182718390Y-109379523D01*
X182718390Y-109379523D02*
X182480295Y-109379523D01*
X182480295Y-109379523D02*
X182337438Y-109427142D01*
X181908866Y-110379523D02*
X181908866Y-109379523D01*
X181908866Y-109379523D02*
X181575533Y-110093808D01*
X181575533Y-110093808D02*
X181242200Y-109379523D01*
X181242200Y-109379523D02*
X181242200Y-110379523D01*
X180766009Y-110379523D02*
X180766009Y-109379523D01*
X180766009Y-109379523D02*
X180385057Y-109379523D01*
X180385057Y-109379523D02*
X180289819Y-109427142D01*
X180289819Y-109427142D02*
X180242200Y-109474761D01*
X180242200Y-109474761D02*
X180194581Y-109569999D01*
X180194581Y-109569999D02*
X180194581Y-109712856D01*
X180194581Y-109712856D02*
X180242200Y-109808094D01*
X180242200Y-109808094D02*
X180289819Y-109855713D01*
X180289819Y-109855713D02*
X180385057Y-109903332D01*
X180385057Y-109903332D02*
X180766009Y-109903332D01*
X179813628Y-110331904D02*
X179670771Y-110379523D01*
X179670771Y-110379523D02*
X179432676Y-110379523D01*
X179432676Y-110379523D02*
X179337438Y-110331904D01*
X179337438Y-110331904D02*
X179289819Y-110284284D01*
X179289819Y-110284284D02*
X179242200Y-110189046D01*
X179242200Y-110189046D02*
X179242200Y-110093808D01*
X179242200Y-110093808D02*
X179289819Y-109998570D01*
X179289819Y-109998570D02*
X179337438Y-109950951D01*
X179337438Y-109950951D02*
X179432676Y-109903332D01*
X179432676Y-109903332D02*
X179623152Y-109855713D01*
X179623152Y-109855713D02*
X179718390Y-109808094D01*
X179718390Y-109808094D02*
X179766009Y-109760475D01*
X179766009Y-109760475D02*
X179813628Y-109665237D01*
X179813628Y-109665237D02*
X179813628Y-109569999D01*
X179813628Y-109569999D02*
X179766009Y-109474761D01*
X179766009Y-109474761D02*
X179718390Y-109427142D01*
X179718390Y-109427142D02*
X179623152Y-109379523D01*
X179623152Y-109379523D02*
X179385057Y-109379523D01*
X179385057Y-109379523D02*
X179242200Y-109427142D01*
X178813628Y-110284284D02*
X178766009Y-110331904D01*
X178766009Y-110331904D02*
X178813628Y-110379523D01*
X178813628Y-110379523D02*
X178861247Y-110331904D01*
X178861247Y-110331904D02*
X178813628Y-110284284D01*
X178813628Y-110284284D02*
X178813628Y-110379523D01*
X178813628Y-109760475D02*
X178766009Y-109808094D01*
X178766009Y-109808094D02*
X178813628Y-109855713D01*
X178813628Y-109855713D02*
X178861247Y-109808094D01*
X178861247Y-109808094D02*
X178813628Y-109760475D01*
X178813628Y-109760475D02*
X178813628Y-109855713D01*
X177718390Y-109379523D02*
X177146962Y-109379523D01*
X177432676Y-110379523D02*
X177432676Y-109379523D01*
X176813628Y-110379523D02*
X176813628Y-109379523D01*
X176813628Y-109379523D02*
X176432676Y-109379523D01*
X176432676Y-109379523D02*
X176337438Y-109427142D01*
X176337438Y-109427142D02*
X176289819Y-109474761D01*
X176289819Y-109474761D02*
X176242200Y-109569999D01*
X176242200Y-109569999D02*
X176242200Y-109712856D01*
X176242200Y-109712856D02*
X176289819Y-109808094D01*
X176289819Y-109808094D02*
X176337438Y-109855713D01*
X176337438Y-109855713D02*
X176432676Y-109903332D01*
X176432676Y-109903332D02*
X176813628Y-109903332D01*
X175861247Y-110331904D02*
X175718390Y-110379523D01*
X175718390Y-110379523D02*
X175480295Y-110379523D01*
X175480295Y-110379523D02*
X175385057Y-110331904D01*
X175385057Y-110331904D02*
X175337438Y-110284284D01*
X175337438Y-110284284D02*
X175289819Y-110189046D01*
X175289819Y-110189046D02*
X175289819Y-110093808D01*
X175289819Y-110093808D02*
X175337438Y-109998570D01*
X175337438Y-109998570D02*
X175385057Y-109950951D01*
X175385057Y-109950951D02*
X175480295Y-109903332D01*
X175480295Y-109903332D02*
X175670771Y-109855713D01*
X175670771Y-109855713D02*
X175766009Y-109808094D01*
X175766009Y-109808094D02*
X175813628Y-109760475D01*
X175813628Y-109760475D02*
X175861247Y-109665237D01*
X175861247Y-109665237D02*
X175861247Y-109569999D01*
X175861247Y-109569999D02*
X175813628Y-109474761D01*
X175813628Y-109474761D02*
X175766009Y-109427142D01*
X175766009Y-109427142D02*
X175670771Y-109379523D01*
X175670771Y-109379523D02*
X175432676Y-109379523D01*
X175432676Y-109379523D02*
X175289819Y-109427142D01*
X174432676Y-109379523D02*
X174623152Y-109379523D01*
X174623152Y-109379523D02*
X174718390Y-109427142D01*
X174718390Y-109427142D02*
X174766009Y-109474761D01*
X174766009Y-109474761D02*
X174861247Y-109617618D01*
X174861247Y-109617618D02*
X174908866Y-109808094D01*
X174908866Y-109808094D02*
X174908866Y-110189046D01*
X174908866Y-110189046D02*
X174861247Y-110284284D01*
X174861247Y-110284284D02*
X174813628Y-110331904D01*
X174813628Y-110331904D02*
X174718390Y-110379523D01*
X174718390Y-110379523D02*
X174527914Y-110379523D01*
X174527914Y-110379523D02*
X174432676Y-110331904D01*
X174432676Y-110331904D02*
X174385057Y-110284284D01*
X174385057Y-110284284D02*
X174337438Y-110189046D01*
X174337438Y-110189046D02*
X174337438Y-109950951D01*
X174337438Y-109950951D02*
X174385057Y-109855713D01*
X174385057Y-109855713D02*
X174432676Y-109808094D01*
X174432676Y-109808094D02*
X174527914Y-109760475D01*
X174527914Y-109760475D02*
X174718390Y-109760475D01*
X174718390Y-109760475D02*
X174813628Y-109808094D01*
X174813628Y-109808094D02*
X174861247Y-109855713D01*
X174861247Y-109855713D02*
X174908866Y-109950951D01*
X173956485Y-109474761D02*
X173908866Y-109427142D01*
X173908866Y-109427142D02*
X173813628Y-109379523D01*
X173813628Y-109379523D02*
X173575533Y-109379523D01*
X173575533Y-109379523D02*
X173480295Y-109427142D01*
X173480295Y-109427142D02*
X173432676Y-109474761D01*
X173432676Y-109474761D02*
X173385057Y-109569999D01*
X173385057Y-109569999D02*
X173385057Y-109665237D01*
X173385057Y-109665237D02*
X173432676Y-109808094D01*
X173432676Y-109808094D02*
X174004104Y-110379523D01*
X174004104Y-110379523D02*
X173385057Y-110379523D01*
X172527914Y-109712856D02*
X172527914Y-110379523D01*
X172766009Y-109331904D02*
X173004104Y-110046189D01*
X173004104Y-110046189D02*
X172385057Y-110046189D01*
X172051723Y-109474761D02*
X172004104Y-109427142D01*
X172004104Y-109427142D02*
X171908866Y-109379523D01*
X171908866Y-109379523D02*
X171670771Y-109379523D01*
X171670771Y-109379523D02*
X171575533Y-109427142D01*
X171575533Y-109427142D02*
X171527914Y-109474761D01*
X171527914Y-109474761D02*
X171480295Y-109569999D01*
X171480295Y-109569999D02*
X171480295Y-109665237D01*
X171480295Y-109665237D02*
X171527914Y-109808094D01*
X171527914Y-109808094D02*
X172099342Y-110379523D01*
X172099342Y-110379523D02*
X171480295Y-110379523D01*
X170861247Y-109379523D02*
X170766009Y-109379523D01*
X170766009Y-109379523D02*
X170670771Y-109427142D01*
X170670771Y-109427142D02*
X170623152Y-109474761D01*
X170623152Y-109474761D02*
X170575533Y-109569999D01*
X170575533Y-109569999D02*
X170527914Y-109760475D01*
X170527914Y-109760475D02*
X170527914Y-109998570D01*
X170527914Y-109998570D02*
X170575533Y-110189046D01*
X170575533Y-110189046D02*
X170623152Y-110284284D01*
X170623152Y-110284284D02*
X170670771Y-110331904D01*
X170670771Y-110331904D02*
X170766009Y-110379523D01*
X170766009Y-110379523D02*
X170861247Y-110379523D01*
X170861247Y-110379523D02*
X170956485Y-110331904D01*
X170956485Y-110331904D02*
X171004104Y-110284284D01*
X171004104Y-110284284D02*
X171051723Y-110189046D01*
X171051723Y-110189046D02*
X171099342Y-109998570D01*
X171099342Y-109998570D02*
X171099342Y-109760475D01*
X171099342Y-109760475D02*
X171051723Y-109569999D01*
X171051723Y-109569999D02*
X171004104Y-109474761D01*
X171004104Y-109474761D02*
X170956485Y-109427142D01*
X170956485Y-109427142D02*
X170861247Y-109379523D01*
X170099342Y-110379523D02*
X170099342Y-109379523D01*
X170099342Y-109379523D02*
X169861247Y-109379523D01*
X169861247Y-109379523D02*
X169718390Y-109427142D01*
X169718390Y-109427142D02*
X169623152Y-109522380D01*
X169623152Y-109522380D02*
X169575533Y-109617618D01*
X169575533Y-109617618D02*
X169527914Y-109808094D01*
X169527914Y-109808094D02*
X169527914Y-109950951D01*
X169527914Y-109950951D02*
X169575533Y-110141427D01*
X169575533Y-110141427D02*
X169623152Y-110236665D01*
X169623152Y-110236665D02*
X169718390Y-110331904D01*
X169718390Y-110331904D02*
X169861247Y-110379523D01*
X169861247Y-110379523D02*
X170099342Y-110379523D01*
X168527914Y-110379523D02*
X168861247Y-109903332D01*
X169099342Y-110379523D02*
X169099342Y-109379523D01*
X169099342Y-109379523D02*
X168718390Y-109379523D01*
X168718390Y-109379523D02*
X168623152Y-109427142D01*
X168623152Y-109427142D02*
X168575533Y-109474761D01*
X168575533Y-109474761D02*
X168527914Y-109569999D01*
X168527914Y-109569999D02*
X168527914Y-109712856D01*
X168527914Y-109712856D02*
X168575533Y-109808094D01*
X168575533Y-109808094D02*
X168623152Y-109855713D01*
X168623152Y-109855713D02*
X168718390Y-109903332D01*
X168718390Y-109903332D02*
X169099342Y-109903332D01*
X167527914Y-110284284D02*
X167575533Y-110331904D01*
X167575533Y-110331904D02*
X167718390Y-110379523D01*
X167718390Y-110379523D02*
X167813628Y-110379523D01*
X167813628Y-110379523D02*
X167956485Y-110331904D01*
X167956485Y-110331904D02*
X168051723Y-110236665D01*
X168051723Y-110236665D02*
X168099342Y-110141427D01*
X168099342Y-110141427D02*
X168146961Y-109950951D01*
X168146961Y-109950951D02*
X168146961Y-109808094D01*
X168146961Y-109808094D02*
X168099342Y-109617618D01*
X168099342Y-109617618D02*
X168051723Y-109522380D01*
X168051723Y-109522380D02*
X167956485Y-109427142D01*
X167956485Y-109427142D02*
X167813628Y-109379523D01*
X167813628Y-109379523D02*
X167718390Y-109379523D01*
X167718390Y-109379523D02*
X167575533Y-109427142D01*
X167575533Y-109427142D02*
X167527914Y-109474761D01*
X167242199Y-109379523D02*
X166670771Y-109379523D01*
X166956485Y-110379523D02*
X166956485Y-109379523D01*
X165813628Y-109427142D02*
X165908866Y-109379523D01*
X165908866Y-109379523D02*
X166051723Y-109379523D01*
X166051723Y-109379523D02*
X166194580Y-109427142D01*
X166194580Y-109427142D02*
X166289818Y-109522380D01*
X166289818Y-109522380D02*
X166337437Y-109617618D01*
X166337437Y-109617618D02*
X166385056Y-109808094D01*
X166385056Y-109808094D02*
X166385056Y-109950951D01*
X166385056Y-109950951D02*
X166337437Y-110141427D01*
X166337437Y-110141427D02*
X166289818Y-110236665D01*
X166289818Y-110236665D02*
X166194580Y-110331904D01*
X166194580Y-110331904D02*
X166051723Y-110379523D01*
X166051723Y-110379523D02*
X165956485Y-110379523D01*
X165956485Y-110379523D02*
X165813628Y-110331904D01*
X165813628Y-110331904D02*
X165766009Y-110284284D01*
X165766009Y-110284284D02*
X165766009Y-109950951D01*
X165766009Y-109950951D02*
X165956485Y-109950951D01*
X164908866Y-109712856D02*
X164908866Y-110379523D01*
X165146961Y-109331904D02*
X165385056Y-110046189D01*
X165385056Y-110046189D02*
X164766009Y-110046189D01*
X183004104Y-110989467D02*
X182670771Y-111989467D01*
X182670771Y-111989467D02*
X182337438Y-110989467D01*
X182004104Y-111989467D02*
X182004104Y-110989467D01*
X181527914Y-111989467D02*
X181527914Y-110989467D01*
X181527914Y-110989467D02*
X180956486Y-111989467D01*
X180956486Y-111989467D02*
X180956486Y-110989467D01*
X180480295Y-111894228D02*
X180432676Y-111941848D01*
X180432676Y-111941848D02*
X180480295Y-111989467D01*
X180480295Y-111989467D02*
X180527914Y-111941848D01*
X180527914Y-111941848D02*
X180480295Y-111894228D01*
X180480295Y-111894228D02*
X180480295Y-111989467D01*
X180480295Y-111370419D02*
X180432676Y-111418038D01*
X180432676Y-111418038D02*
X180480295Y-111465657D01*
X180480295Y-111465657D02*
X180527914Y-111418038D01*
X180527914Y-111418038D02*
X180480295Y-111370419D01*
X180480295Y-111370419D02*
X180480295Y-111465657D01*
X179289819Y-111084705D02*
X179242200Y-111037086D01*
X179242200Y-111037086D02*
X179146962Y-110989467D01*
X179146962Y-110989467D02*
X178908867Y-110989467D01*
X178908867Y-110989467D02*
X178813629Y-111037086D01*
X178813629Y-111037086D02*
X178766010Y-111084705D01*
X178766010Y-111084705D02*
X178718391Y-111179943D01*
X178718391Y-111179943D02*
X178718391Y-111275181D01*
X178718391Y-111275181D02*
X178766010Y-111418038D01*
X178766010Y-111418038D02*
X179337438Y-111989467D01*
X179337438Y-111989467D02*
X178718391Y-111989467D01*
X178289819Y-111894228D02*
X178242200Y-111941848D01*
X178242200Y-111941848D02*
X178289819Y-111989467D01*
X178289819Y-111989467D02*
X178337438Y-111941848D01*
X178337438Y-111941848D02*
X178289819Y-111894228D01*
X178289819Y-111894228D02*
X178289819Y-111989467D01*
X177908867Y-110989467D02*
X177242201Y-110989467D01*
X177242201Y-110989467D02*
X177670772Y-111989467D01*
X176242200Y-111322800D02*
X175861248Y-111322800D01*
X176099343Y-110989467D02*
X176099343Y-111846609D01*
X176099343Y-111846609D02*
X176051724Y-111941848D01*
X176051724Y-111941848D02*
X175956486Y-111989467D01*
X175956486Y-111989467D02*
X175861248Y-111989467D01*
X175385057Y-111989467D02*
X175480295Y-111941848D01*
X175480295Y-111941848D02*
X175527914Y-111894228D01*
X175527914Y-111894228D02*
X175575533Y-111798990D01*
X175575533Y-111798990D02*
X175575533Y-111513276D01*
X175575533Y-111513276D02*
X175527914Y-111418038D01*
X175527914Y-111418038D02*
X175480295Y-111370419D01*
X175480295Y-111370419D02*
X175385057Y-111322800D01*
X175385057Y-111322800D02*
X175242200Y-111322800D01*
X175242200Y-111322800D02*
X175146962Y-111370419D01*
X175146962Y-111370419D02*
X175099343Y-111418038D01*
X175099343Y-111418038D02*
X175051724Y-111513276D01*
X175051724Y-111513276D02*
X175051724Y-111798990D01*
X175051724Y-111798990D02*
X175099343Y-111894228D01*
X175099343Y-111894228D02*
X175146962Y-111941848D01*
X175146962Y-111941848D02*
X175242200Y-111989467D01*
X175242200Y-111989467D02*
X175385057Y-111989467D01*
X173432676Y-110989467D02*
X173623152Y-110989467D01*
X173623152Y-110989467D02*
X173718390Y-111037086D01*
X173718390Y-111037086D02*
X173766009Y-111084705D01*
X173766009Y-111084705D02*
X173861247Y-111227562D01*
X173861247Y-111227562D02*
X173908866Y-111418038D01*
X173908866Y-111418038D02*
X173908866Y-111798990D01*
X173908866Y-111798990D02*
X173861247Y-111894228D01*
X173861247Y-111894228D02*
X173813628Y-111941848D01*
X173813628Y-111941848D02*
X173718390Y-111989467D01*
X173718390Y-111989467D02*
X173527914Y-111989467D01*
X173527914Y-111989467D02*
X173432676Y-111941848D01*
X173432676Y-111941848D02*
X173385057Y-111894228D01*
X173385057Y-111894228D02*
X173337438Y-111798990D01*
X173337438Y-111798990D02*
X173337438Y-111560895D01*
X173337438Y-111560895D02*
X173385057Y-111465657D01*
X173385057Y-111465657D02*
X173432676Y-111418038D01*
X173432676Y-111418038D02*
X173527914Y-111370419D01*
X173527914Y-111370419D02*
X173718390Y-111370419D01*
X173718390Y-111370419D02*
X173813628Y-111418038D01*
X173813628Y-111418038D02*
X173861247Y-111465657D01*
X173861247Y-111465657D02*
X173908866Y-111560895D01*
X172908866Y-111894228D02*
X172861247Y-111941848D01*
X172861247Y-111941848D02*
X172908866Y-111989467D01*
X172908866Y-111989467D02*
X172956485Y-111941848D01*
X172956485Y-111941848D02*
X172908866Y-111894228D01*
X172908866Y-111894228D02*
X172908866Y-111989467D01*
X171956486Y-110989467D02*
X172432676Y-110989467D01*
X172432676Y-110989467D02*
X172480295Y-111465657D01*
X172480295Y-111465657D02*
X172432676Y-111418038D01*
X172432676Y-111418038D02*
X172337438Y-111370419D01*
X172337438Y-111370419D02*
X172099343Y-111370419D01*
X172099343Y-111370419D02*
X172004105Y-111418038D01*
X172004105Y-111418038D02*
X171956486Y-111465657D01*
X171956486Y-111465657D02*
X171908867Y-111560895D01*
X171908867Y-111560895D02*
X171908867Y-111798990D01*
X171908867Y-111798990D02*
X171956486Y-111894228D01*
X171956486Y-111894228D02*
X172004105Y-111941848D01*
X172004105Y-111941848D02*
X172099343Y-111989467D01*
X172099343Y-111989467D02*
X172337438Y-111989467D01*
X172337438Y-111989467D02*
X172432676Y-111941848D01*
X172432676Y-111941848D02*
X172480295Y-111894228D01*
X171623152Y-110989467D02*
X171289819Y-111989467D01*
X171289819Y-111989467D02*
X170956486Y-110989467D01*
D12*
X147840476Y-90054819D02*
X148173809Y-89578628D01*
X148411904Y-90054819D02*
X148411904Y-89054819D01*
X148411904Y-89054819D02*
X148030952Y-89054819D01*
X148030952Y-89054819D02*
X147935714Y-89102438D01*
X147935714Y-89102438D02*
X147888095Y-89150057D01*
X147888095Y-89150057D02*
X147840476Y-89245295D01*
X147840476Y-89245295D02*
X147840476Y-89388152D01*
X147840476Y-89388152D02*
X147888095Y-89483390D01*
X147888095Y-89483390D02*
X147935714Y-89531009D01*
X147935714Y-89531009D02*
X148030952Y-89578628D01*
X148030952Y-89578628D02*
X148411904Y-89578628D01*
X147411904Y-90054819D02*
X147411904Y-89054819D01*
X147411904Y-89054819D02*
X146840476Y-90054819D01*
X146840476Y-90054819D02*
X146840476Y-89054819D01*
X146316666Y-90054819D02*
X146126190Y-90054819D01*
X146126190Y-90054819D02*
X146030952Y-90007200D01*
X146030952Y-90007200D02*
X145983333Y-89959580D01*
X145983333Y-89959580D02*
X145888095Y-89816723D01*
X145888095Y-89816723D02*
X145840476Y-89626247D01*
X145840476Y-89626247D02*
X145840476Y-89245295D01*
X145840476Y-89245295D02*
X145888095Y-89150057D01*
X145888095Y-89150057D02*
X145935714Y-89102438D01*
X145935714Y-89102438D02*
X146030952Y-89054819D01*
X146030952Y-89054819D02*
X146221428Y-89054819D01*
X146221428Y-89054819D02*
X146316666Y-89102438D01*
X146316666Y-89102438D02*
X146364285Y-89150057D01*
X146364285Y-89150057D02*
X146411904Y-89245295D01*
X146411904Y-89245295D02*
X146411904Y-89483390D01*
X146411904Y-89483390D02*
X146364285Y-89578628D01*
X146364285Y-89578628D02*
X146316666Y-89626247D01*
X146316666Y-89626247D02*
X146221428Y-89673866D01*
X146221428Y-89673866D02*
X146030952Y-89673866D01*
X146030952Y-89673866D02*
X145935714Y-89626247D01*
X145935714Y-89626247D02*
X145888095Y-89578628D01*
X145888095Y-89578628D02*
X145840476Y-89483390D01*
X167259580Y-72857142D02*
X167307200Y-72809523D01*
X167307200Y-72809523D02*
X167354819Y-72666666D01*
X167354819Y-72666666D02*
X167354819Y-72571428D01*
X167354819Y-72571428D02*
X167307200Y-72428571D01*
X167307200Y-72428571D02*
X167211961Y-72333333D01*
X167211961Y-72333333D02*
X167116723Y-72285714D01*
X167116723Y-72285714D02*
X166926247Y-72238095D01*
X166926247Y-72238095D02*
X166783390Y-72238095D01*
X166783390Y-72238095D02*
X166592914Y-72285714D01*
X166592914Y-72285714D02*
X166497676Y-72333333D01*
X166497676Y-72333333D02*
X166402438Y-72428571D01*
X166402438Y-72428571D02*
X166354819Y-72571428D01*
X166354819Y-72571428D02*
X166354819Y-72666666D01*
X166354819Y-72666666D02*
X166402438Y-72809523D01*
X166402438Y-72809523D02*
X166450057Y-72857142D01*
X167354819Y-73809523D02*
X167354819Y-73238095D01*
X167354819Y-73523809D02*
X166354819Y-73523809D01*
X166354819Y-73523809D02*
X166497676Y-73428571D01*
X166497676Y-73428571D02*
X166592914Y-73333333D01*
X166592914Y-73333333D02*
X166640533Y-73238095D01*
X166354819Y-74142857D02*
X166354819Y-74809523D01*
X166354819Y-74809523D02*
X167354819Y-74380952D01*
X156159580Y-98333333D02*
X156207200Y-98285714D01*
X156207200Y-98285714D02*
X156254819Y-98142857D01*
X156254819Y-98142857D02*
X156254819Y-98047619D01*
X156254819Y-98047619D02*
X156207200Y-97904762D01*
X156207200Y-97904762D02*
X156111961Y-97809524D01*
X156111961Y-97809524D02*
X156016723Y-97761905D01*
X156016723Y-97761905D02*
X155826247Y-97714286D01*
X155826247Y-97714286D02*
X155683390Y-97714286D01*
X155683390Y-97714286D02*
X155492914Y-97761905D01*
X155492914Y-97761905D02*
X155397676Y-97809524D01*
X155397676Y-97809524D02*
X155302438Y-97904762D01*
X155302438Y-97904762D02*
X155254819Y-98047619D01*
X155254819Y-98047619D02*
X155254819Y-98142857D01*
X155254819Y-98142857D02*
X155302438Y-98285714D01*
X155302438Y-98285714D02*
X155350057Y-98333333D01*
X155254819Y-99238095D02*
X155254819Y-98761905D01*
X155254819Y-98761905D02*
X155731009Y-98714286D01*
X155731009Y-98714286D02*
X155683390Y-98761905D01*
X155683390Y-98761905D02*
X155635771Y-98857143D01*
X155635771Y-98857143D02*
X155635771Y-99095238D01*
X155635771Y-99095238D02*
X155683390Y-99190476D01*
X155683390Y-99190476D02*
X155731009Y-99238095D01*
X155731009Y-99238095D02*
X155826247Y-99285714D01*
X155826247Y-99285714D02*
X156064342Y-99285714D01*
X156064342Y-99285714D02*
X156159580Y-99238095D01*
X156159580Y-99238095D02*
X156207200Y-99190476D01*
X156207200Y-99190476D02*
X156254819Y-99095238D01*
X156254819Y-99095238D02*
X156254819Y-98857143D01*
X156254819Y-98857143D02*
X156207200Y-98761905D01*
X156207200Y-98761905D02*
X156159580Y-98714286D01*
D11*
X117454663Y-83290476D02*
X117454663Y-83957142D01*
X117454663Y-83957142D02*
X118454663Y-83290476D01*
X118454663Y-83290476D02*
X118454663Y-83957142D01*
X118454663Y-84861904D02*
X118454663Y-84290476D01*
X118454663Y-84576190D02*
X117454663Y-84576190D01*
X117454663Y-84576190D02*
X117597520Y-84480952D01*
X117597520Y-84480952D02*
X117692758Y-84385714D01*
X117692758Y-84385714D02*
X117740377Y-84290476D01*
X191276189Y-86354663D02*
X191276189Y-85354663D01*
X190228571Y-86259424D02*
X190276190Y-86307044D01*
X190276190Y-86307044D02*
X190419047Y-86354663D01*
X190419047Y-86354663D02*
X190514285Y-86354663D01*
X190514285Y-86354663D02*
X190657142Y-86307044D01*
X190657142Y-86307044D02*
X190752380Y-86211805D01*
X190752380Y-86211805D02*
X190799999Y-86116567D01*
X190799999Y-86116567D02*
X190847618Y-85926091D01*
X190847618Y-85926091D02*
X190847618Y-85783234D01*
X190847618Y-85783234D02*
X190799999Y-85592758D01*
X190799999Y-85592758D02*
X190752380Y-85497520D01*
X190752380Y-85497520D02*
X190657142Y-85402282D01*
X190657142Y-85402282D02*
X190514285Y-85354663D01*
X190514285Y-85354663D02*
X190419047Y-85354663D01*
X190419047Y-85354663D02*
X190276190Y-85402282D01*
X190276190Y-85402282D02*
X190228571Y-85449901D01*
X189276190Y-86354663D02*
X189847618Y-86354663D01*
X189561904Y-86354663D02*
X189561904Y-85354663D01*
X189561904Y-85354663D02*
X189657142Y-85497520D01*
X189657142Y-85497520D02*
X189752380Y-85592758D01*
X189752380Y-85592758D02*
X189847618Y-85640377D01*
D12*
X139683333Y-95804819D02*
X139683333Y-96519104D01*
X139683333Y-96519104D02*
X139730952Y-96661961D01*
X139730952Y-96661961D02*
X139826190Y-96757200D01*
X139826190Y-96757200D02*
X139969047Y-96804819D01*
X139969047Y-96804819D02*
X140064285Y-96804819D01*
X138683333Y-96804819D02*
X139254761Y-96804819D01*
X138969047Y-96804819D02*
X138969047Y-95804819D01*
X138969047Y-95804819D02*
X139064285Y-95947676D01*
X139064285Y-95947676D02*
X139159523Y-96042914D01*
X139159523Y-96042914D02*
X139254761Y-96090533D01*
X165442857Y-80059580D02*
X165490476Y-80107200D01*
X165490476Y-80107200D02*
X165633333Y-80154819D01*
X165633333Y-80154819D02*
X165728571Y-80154819D01*
X165728571Y-80154819D02*
X165871428Y-80107200D01*
X165871428Y-80107200D02*
X165966666Y-80011961D01*
X165966666Y-80011961D02*
X166014285Y-79916723D01*
X166014285Y-79916723D02*
X166061904Y-79726247D01*
X166061904Y-79726247D02*
X166061904Y-79583390D01*
X166061904Y-79583390D02*
X166014285Y-79392914D01*
X166014285Y-79392914D02*
X165966666Y-79297676D01*
X165966666Y-79297676D02*
X165871428Y-79202438D01*
X165871428Y-79202438D02*
X165728571Y-79154819D01*
X165728571Y-79154819D02*
X165633333Y-79154819D01*
X165633333Y-79154819D02*
X165490476Y-79202438D01*
X165490476Y-79202438D02*
X165442857Y-79250057D01*
X164585714Y-79488152D02*
X164585714Y-80154819D01*
X164823809Y-79107200D02*
X165061904Y-79821485D01*
X165061904Y-79821485D02*
X164442857Y-79821485D01*
X163633333Y-79154819D02*
X163823809Y-79154819D01*
X163823809Y-79154819D02*
X163919047Y-79202438D01*
X163919047Y-79202438D02*
X163966666Y-79250057D01*
X163966666Y-79250057D02*
X164061904Y-79392914D01*
X164061904Y-79392914D02*
X164109523Y-79583390D01*
X164109523Y-79583390D02*
X164109523Y-79964342D01*
X164109523Y-79964342D02*
X164061904Y-80059580D01*
X164061904Y-80059580D02*
X164014285Y-80107200D01*
X164014285Y-80107200D02*
X163919047Y-80154819D01*
X163919047Y-80154819D02*
X163728571Y-80154819D01*
X163728571Y-80154819D02*
X163633333Y-80107200D01*
X163633333Y-80107200D02*
X163585714Y-80059580D01*
X163585714Y-80059580D02*
X163538095Y-79964342D01*
X163538095Y-79964342D02*
X163538095Y-79726247D01*
X163538095Y-79726247D02*
X163585714Y-79631009D01*
X163585714Y-79631009D02*
X163633333Y-79583390D01*
X163633333Y-79583390D02*
X163728571Y-79535771D01*
X163728571Y-79535771D02*
X163919047Y-79535771D01*
X163919047Y-79535771D02*
X164014285Y-79583390D01*
X164014285Y-79583390D02*
X164061904Y-79631009D01*
X164061904Y-79631009D02*
X164109523Y-79726247D01*
X147503351Y-96696563D02*
X148075771Y-96595547D01*
X147907412Y-97100624D02*
X148614519Y-96393517D01*
X148614519Y-96393517D02*
X148345145Y-96124143D01*
X148345145Y-96124143D02*
X148244130Y-96090471D01*
X148244130Y-96090471D02*
X148176786Y-96090471D01*
X148176786Y-96090471D02*
X148075771Y-96124143D01*
X148075771Y-96124143D02*
X147974756Y-96225158D01*
X147974756Y-96225158D02*
X147941084Y-96326173D01*
X147941084Y-96326173D02*
X147941084Y-96393517D01*
X147941084Y-96393517D02*
X147974756Y-96494532D01*
X147974756Y-96494532D02*
X148244130Y-96763906D01*
X147200306Y-96393517D02*
X147907412Y-95686410D01*
X147907412Y-95686410D02*
X146796245Y-95989456D01*
X146796245Y-95989456D02*
X147503351Y-95282349D01*
X146089138Y-95282349D02*
X146493199Y-95686410D01*
X146291168Y-95484380D02*
X146998275Y-94777273D01*
X146998275Y-94777273D02*
X146964603Y-94945632D01*
X146964603Y-94945632D02*
X146964603Y-95080319D01*
X146964603Y-95080319D02*
X146998275Y-95181334D01*
X146358512Y-94137510D02*
X146291168Y-94070166D01*
X146291168Y-94070166D02*
X146190153Y-94036494D01*
X146190153Y-94036494D02*
X146122810Y-94036494D01*
X146122810Y-94036494D02*
X146021794Y-94070166D01*
X146021794Y-94070166D02*
X145853436Y-94171181D01*
X145853436Y-94171181D02*
X145685077Y-94339540D01*
X145685077Y-94339540D02*
X145584062Y-94507899D01*
X145584062Y-94507899D02*
X145550390Y-94608914D01*
X145550390Y-94608914D02*
X145550390Y-94676258D01*
X145550390Y-94676258D02*
X145584062Y-94777273D01*
X145584062Y-94777273D02*
X145651405Y-94844616D01*
X145651405Y-94844616D02*
X145752420Y-94878288D01*
X145752420Y-94878288D02*
X145819764Y-94878288D01*
X145819764Y-94878288D02*
X145920779Y-94844616D01*
X145920779Y-94844616D02*
X146089138Y-94743601D01*
X146089138Y-94743601D02*
X146257497Y-94575242D01*
X146257497Y-94575242D02*
X146358512Y-94406884D01*
X146358512Y-94406884D02*
X146392184Y-94305868D01*
X146392184Y-94305868D02*
X146392184Y-94238525D01*
X146392184Y-94238525D02*
X146358512Y-94137510D01*
X168959580Y-72857142D02*
X169007200Y-72809523D01*
X169007200Y-72809523D02*
X169054819Y-72666666D01*
X169054819Y-72666666D02*
X169054819Y-72571428D01*
X169054819Y-72571428D02*
X169007200Y-72428571D01*
X169007200Y-72428571D02*
X168911961Y-72333333D01*
X168911961Y-72333333D02*
X168816723Y-72285714D01*
X168816723Y-72285714D02*
X168626247Y-72238095D01*
X168626247Y-72238095D02*
X168483390Y-72238095D01*
X168483390Y-72238095D02*
X168292914Y-72285714D01*
X168292914Y-72285714D02*
X168197676Y-72333333D01*
X168197676Y-72333333D02*
X168102438Y-72428571D01*
X168102438Y-72428571D02*
X168054819Y-72571428D01*
X168054819Y-72571428D02*
X168054819Y-72666666D01*
X168054819Y-72666666D02*
X168102438Y-72809523D01*
X168102438Y-72809523D02*
X168150057Y-72857142D01*
X168388152Y-73714285D02*
X169054819Y-73714285D01*
X168007200Y-73476190D02*
X168721485Y-73238095D01*
X168721485Y-73238095D02*
X168721485Y-73857142D01*
X169054819Y-74285714D02*
X169054819Y-74476190D01*
X169054819Y-74476190D02*
X169007200Y-74571428D01*
X169007200Y-74571428D02*
X168959580Y-74619047D01*
X168959580Y-74619047D02*
X168816723Y-74714285D01*
X168816723Y-74714285D02*
X168626247Y-74761904D01*
X168626247Y-74761904D02*
X168245295Y-74761904D01*
X168245295Y-74761904D02*
X168150057Y-74714285D01*
X168150057Y-74714285D02*
X168102438Y-74666666D01*
X168102438Y-74666666D02*
X168054819Y-74571428D01*
X168054819Y-74571428D02*
X168054819Y-74380952D01*
X168054819Y-74380952D02*
X168102438Y-74285714D01*
X168102438Y-74285714D02*
X168150057Y-74238095D01*
X168150057Y-74238095D02*
X168245295Y-74190476D01*
X168245295Y-74190476D02*
X168483390Y-74190476D01*
X168483390Y-74190476D02*
X168578628Y-74238095D01*
X168578628Y-74238095D02*
X168626247Y-74285714D01*
X168626247Y-74285714D02*
X168673866Y-74380952D01*
X168673866Y-74380952D02*
X168673866Y-74571428D01*
X168673866Y-74571428D02*
X168626247Y-74666666D01*
X168626247Y-74666666D02*
X168578628Y-74714285D01*
X168578628Y-74714285D02*
X168483390Y-74761904D01*
X154704819Y-91083333D02*
X154228628Y-90750000D01*
X154704819Y-90511905D02*
X153704819Y-90511905D01*
X153704819Y-90511905D02*
X153704819Y-90892857D01*
X153704819Y-90892857D02*
X153752438Y-90988095D01*
X153752438Y-90988095D02*
X153800057Y-91035714D01*
X153800057Y-91035714D02*
X153895295Y-91083333D01*
X153895295Y-91083333D02*
X154038152Y-91083333D01*
X154038152Y-91083333D02*
X154133390Y-91035714D01*
X154133390Y-91035714D02*
X154181009Y-90988095D01*
X154181009Y-90988095D02*
X154228628Y-90892857D01*
X154228628Y-90892857D02*
X154228628Y-90511905D01*
X154704819Y-91511905D02*
X153704819Y-91511905D01*
X153704819Y-91511905D02*
X154704819Y-92083333D01*
X154704819Y-92083333D02*
X153704819Y-92083333D01*
X154704819Y-93083333D02*
X154704819Y-92511905D01*
X154704819Y-92797619D02*
X153704819Y-92797619D01*
X153704819Y-92797619D02*
X153847676Y-92702381D01*
X153847676Y-92702381D02*
X153942914Y-92607143D01*
X153942914Y-92607143D02*
X153990533Y-92511905D01*
X153704819Y-93940476D02*
X153704819Y-93750000D01*
X153704819Y-93750000D02*
X153752438Y-93654762D01*
X153752438Y-93654762D02*
X153800057Y-93607143D01*
X153800057Y-93607143D02*
X153942914Y-93511905D01*
X153942914Y-93511905D02*
X154133390Y-93464286D01*
X154133390Y-93464286D02*
X154514342Y-93464286D01*
X154514342Y-93464286D02*
X154609580Y-93511905D01*
X154609580Y-93511905D02*
X154657200Y-93559524D01*
X154657200Y-93559524D02*
X154704819Y-93654762D01*
X154704819Y-93654762D02*
X154704819Y-93845238D01*
X154704819Y-93845238D02*
X154657200Y-93940476D01*
X154657200Y-93940476D02*
X154609580Y-93988095D01*
X154609580Y-93988095D02*
X154514342Y-94035714D01*
X154514342Y-94035714D02*
X154276247Y-94035714D01*
X154276247Y-94035714D02*
X154181009Y-93988095D01*
X154181009Y-93988095D02*
X154133390Y-93940476D01*
X154133390Y-93940476D02*
X154085771Y-93845238D01*
X154085771Y-93845238D02*
X154085771Y-93654762D01*
X154085771Y-93654762D02*
X154133390Y-93559524D01*
X154133390Y-93559524D02*
X154181009Y-93511905D01*
X154181009Y-93511905D02*
X154276247Y-93464286D01*
X197042857Y-79259580D02*
X197090476Y-79307200D01*
X197090476Y-79307200D02*
X197233333Y-79354819D01*
X197233333Y-79354819D02*
X197328571Y-79354819D01*
X197328571Y-79354819D02*
X197471428Y-79307200D01*
X197471428Y-79307200D02*
X197566666Y-79211961D01*
X197566666Y-79211961D02*
X197614285Y-79116723D01*
X197614285Y-79116723D02*
X197661904Y-78926247D01*
X197661904Y-78926247D02*
X197661904Y-78783390D01*
X197661904Y-78783390D02*
X197614285Y-78592914D01*
X197614285Y-78592914D02*
X197566666Y-78497676D01*
X197566666Y-78497676D02*
X197471428Y-78402438D01*
X197471428Y-78402438D02*
X197328571Y-78354819D01*
X197328571Y-78354819D02*
X197233333Y-78354819D01*
X197233333Y-78354819D02*
X197090476Y-78402438D01*
X197090476Y-78402438D02*
X197042857Y-78450057D01*
X196090476Y-79354819D02*
X196661904Y-79354819D01*
X196376190Y-79354819D02*
X196376190Y-78354819D01*
X196376190Y-78354819D02*
X196471428Y-78497676D01*
X196471428Y-78497676D02*
X196566666Y-78592914D01*
X196566666Y-78592914D02*
X196661904Y-78640533D01*
X195614285Y-79354819D02*
X195423809Y-79354819D01*
X195423809Y-79354819D02*
X195328571Y-79307200D01*
X195328571Y-79307200D02*
X195280952Y-79259580D01*
X195280952Y-79259580D02*
X195185714Y-79116723D01*
X195185714Y-79116723D02*
X195138095Y-78926247D01*
X195138095Y-78926247D02*
X195138095Y-78545295D01*
X195138095Y-78545295D02*
X195185714Y-78450057D01*
X195185714Y-78450057D02*
X195233333Y-78402438D01*
X195233333Y-78402438D02*
X195328571Y-78354819D01*
X195328571Y-78354819D02*
X195519047Y-78354819D01*
X195519047Y-78354819D02*
X195614285Y-78402438D01*
X195614285Y-78402438D02*
X195661904Y-78450057D01*
X195661904Y-78450057D02*
X195709523Y-78545295D01*
X195709523Y-78545295D02*
X195709523Y-78783390D01*
X195709523Y-78783390D02*
X195661904Y-78878628D01*
X195661904Y-78878628D02*
X195614285Y-78926247D01*
X195614285Y-78926247D02*
X195519047Y-78973866D01*
X195519047Y-78973866D02*
X195328571Y-78973866D01*
X195328571Y-78973866D02*
X195233333Y-78926247D01*
X195233333Y-78926247D02*
X195185714Y-78878628D01*
X195185714Y-78878628D02*
X195138095Y-78783390D01*
X152454819Y-84783333D02*
X151978628Y-84450000D01*
X152454819Y-84211905D02*
X151454819Y-84211905D01*
X151454819Y-84211905D02*
X151454819Y-84592857D01*
X151454819Y-84592857D02*
X151502438Y-84688095D01*
X151502438Y-84688095D02*
X151550057Y-84735714D01*
X151550057Y-84735714D02*
X151645295Y-84783333D01*
X151645295Y-84783333D02*
X151788152Y-84783333D01*
X151788152Y-84783333D02*
X151883390Y-84735714D01*
X151883390Y-84735714D02*
X151931009Y-84688095D01*
X151931009Y-84688095D02*
X151978628Y-84592857D01*
X151978628Y-84592857D02*
X151978628Y-84211905D01*
X152454819Y-85211905D02*
X151454819Y-85211905D01*
X151454819Y-85211905D02*
X152454819Y-85783333D01*
X152454819Y-85783333D02*
X151454819Y-85783333D01*
X152454819Y-86783333D02*
X152454819Y-86211905D01*
X152454819Y-86497619D02*
X151454819Y-86497619D01*
X151454819Y-86497619D02*
X151597676Y-86402381D01*
X151597676Y-86402381D02*
X151692914Y-86307143D01*
X151692914Y-86307143D02*
X151740533Y-86211905D01*
X152454819Y-87735714D02*
X152454819Y-87164286D01*
X152454819Y-87450000D02*
X151454819Y-87450000D01*
X151454819Y-87450000D02*
X151597676Y-87354762D01*
X151597676Y-87354762D02*
X151692914Y-87259524D01*
X151692914Y-87259524D02*
X151740533Y-87164286D01*
D11*
X123549901Y-80704761D02*
X123502282Y-80609523D01*
X123502282Y-80609523D02*
X123407044Y-80514285D01*
X123407044Y-80514285D02*
X123264186Y-80371428D01*
X123264186Y-80371428D02*
X123216567Y-80276190D01*
X123216567Y-80276190D02*
X123216567Y-80180952D01*
X123454663Y-80228571D02*
X123407044Y-80133333D01*
X123407044Y-80133333D02*
X123311805Y-80038095D01*
X123311805Y-80038095D02*
X123121329Y-79990476D01*
X123121329Y-79990476D02*
X122787996Y-79990476D01*
X122787996Y-79990476D02*
X122597520Y-80038095D01*
X122597520Y-80038095D02*
X122502282Y-80133333D01*
X122502282Y-80133333D02*
X122454663Y-80228571D01*
X122454663Y-80228571D02*
X122454663Y-80419047D01*
X122454663Y-80419047D02*
X122502282Y-80514285D01*
X122502282Y-80514285D02*
X122597520Y-80609523D01*
X122597520Y-80609523D02*
X122787996Y-80657142D01*
X122787996Y-80657142D02*
X123121329Y-80657142D01*
X123121329Y-80657142D02*
X123311805Y-80609523D01*
X123311805Y-80609523D02*
X123407044Y-80514285D01*
X123407044Y-80514285D02*
X123454663Y-80419047D01*
X123454663Y-80419047D02*
X123454663Y-80228571D01*
X123454663Y-81609523D02*
X123454663Y-81038095D01*
X123454663Y-81323809D02*
X122454663Y-81323809D01*
X122454663Y-81323809D02*
X122597520Y-81228571D01*
X122597520Y-81228571D02*
X122692758Y-81133333D01*
X122692758Y-81133333D02*
X122740377Y-81038095D01*
D12*
X114716666Y-88754819D02*
X115049999Y-88278628D01*
X115288094Y-88754819D02*
X115288094Y-87754819D01*
X115288094Y-87754819D02*
X114907142Y-87754819D01*
X114907142Y-87754819D02*
X114811904Y-87802438D01*
X114811904Y-87802438D02*
X114764285Y-87850057D01*
X114764285Y-87850057D02*
X114716666Y-87945295D01*
X114716666Y-87945295D02*
X114716666Y-88088152D01*
X114716666Y-88088152D02*
X114764285Y-88183390D01*
X114764285Y-88183390D02*
X114811904Y-88231009D01*
X114811904Y-88231009D02*
X114907142Y-88278628D01*
X114907142Y-88278628D02*
X115288094Y-88278628D01*
X113764285Y-88754819D02*
X114335713Y-88754819D01*
X114049999Y-88754819D02*
X114049999Y-87754819D01*
X114049999Y-87754819D02*
X114145237Y-87897676D01*
X114145237Y-87897676D02*
X114240475Y-87992914D01*
X114240475Y-87992914D02*
X114335713Y-88040533D01*
D13*
X147250000Y-90470000D02*
X147750000Y-90470000D01*
X147250000Y-92830000D02*
X147750000Y-92830000D01*
X166290000Y-76559420D02*
X166290000Y-76840580D01*
X167310000Y-76559420D02*
X167310000Y-76840580D01*
X155240000Y-95759420D02*
X155240000Y-96040580D01*
X156260000Y-95759420D02*
X156260000Y-96040580D01*
D14*
X113900000Y-83000000D02*
X116800000Y-83000000D01*
X113900000Y-83300000D02*
X113900000Y-83000000D01*
X116800000Y-83000000D02*
X116800000Y-83300000D01*
X116800000Y-83300000D02*
X113900000Y-83300000D01*
X116885000Y-83650000D02*
X116885000Y-84750000D01*
X171700000Y-72400000D02*
X189400000Y-72400000D01*
X171700000Y-84400000D02*
X171700000Y-72400000D01*
X189400000Y-72400000D02*
X189400000Y-84400000D01*
X189400000Y-84400000D02*
X171700000Y-84400000D01*
X189750000Y-72150000D02*
X191050000Y-72150000D01*
D15*
X121450000Y-93800000D02*
X121450000Y-93250000D01*
X122250000Y-93800000D02*
X121450000Y-93800000D01*
X137750000Y-93800000D02*
X138550000Y-93800000D01*
X138550000Y-93800000D02*
X138550000Y-93250000D01*
D14*
X138100000Y-89650000D02*
G75*
G02*
X137900000Y-89650000I-100000J0D01*
G01*
X137900000Y-89650000D02*
G75*
G02*
X138100000Y-89650000I100000J0D01*
G01*
D13*
X167859420Y-79190000D02*
X168140580Y-79190000D01*
X167859420Y-80210000D02*
X168140580Y-80210000D01*
X147888837Y-93842391D02*
X148242391Y-93488837D01*
X149557609Y-95511163D02*
X149911163Y-95157609D01*
X168090000Y-76559420D02*
X168090000Y-76840580D01*
X169110000Y-76559420D02*
X169110000Y-76840580D01*
D16*
G36*
X192696826Y-103755482D02*
G01*
X192696826Y-105360386D01*
X192345067Y-105360386D01*
X191993307Y-105360386D01*
X191993307Y-104870691D01*
X191993307Y-104380996D01*
X191557271Y-104374828D01*
X191518323Y-104374266D01*
X191398028Y-104372274D01*
X191301844Y-104370066D01*
X191225716Y-104367359D01*
X191165589Y-104363875D01*
X191117407Y-104359333D01*
X191077115Y-104353451D01*
X191040659Y-104345950D01*
X191003982Y-104336548D01*
X190933070Y-104315199D01*
X190762348Y-104245431D01*
X190612382Y-104155677D01*
X190483781Y-104046509D01*
X190377152Y-103918500D01*
X190293101Y-103772225D01*
X190232237Y-103608254D01*
X190214838Y-103525313D01*
X190202896Y-103418086D01*
X190197838Y-103300483D01*
X190198305Y-103271812D01*
X190887129Y-103271812D01*
X190888596Y-103345798D01*
X190893551Y-103402210D01*
X190903278Y-103446540D01*
X190919070Y-103487517D01*
X190939041Y-103525652D01*
X191003332Y-103612050D01*
X191085206Y-103687083D01*
X191176427Y-103742591D01*
X191267802Y-103784795D01*
X191630554Y-103789176D01*
X191993307Y-103793556D01*
X191993307Y-103271614D01*
X191993307Y-102749671D01*
X191623226Y-102754250D01*
X191253145Y-102758828D01*
X191174875Y-102800051D01*
X191073584Y-102866201D01*
X190988571Y-102949104D01*
X190927334Y-103042559D01*
X190913597Y-103071802D01*
X190899430Y-103110004D01*
X190891370Y-103149953D01*
X190887806Y-103200829D01*
X190887129Y-103271812D01*
X190198305Y-103271812D01*
X190199771Y-103181871D01*
X190208802Y-103071616D01*
X190225039Y-102979083D01*
X190229620Y-102961228D01*
X190286822Y-102801362D01*
X190368978Y-102652240D01*
X190473118Y-102517215D01*
X190596275Y-102399642D01*
X190735480Y-102302875D01*
X190887764Y-102230268D01*
X190930916Y-102214648D01*
X190976597Y-102200074D01*
X191023548Y-102187871D01*
X191074571Y-102177833D01*
X191132472Y-102169752D01*
X191200056Y-102163421D01*
X191280125Y-102158633D01*
X191375485Y-102155180D01*
X191488939Y-102152855D01*
X191623292Y-102151451D01*
X191781349Y-102150761D01*
X191965913Y-102150577D01*
X192696826Y-102150577D01*
X192696826Y-103271614D01*
X192696826Y-103755482D01*
G37*
G36*
X194059896Y-104092423D02*
G01*
X194059896Y-104728769D01*
X194583872Y-104733124D01*
X194630944Y-104733516D01*
X194759889Y-104734662D01*
X194863601Y-104735846D01*
X194945170Y-104737276D01*
X195007689Y-104739161D01*
X195054247Y-104741709D01*
X195087936Y-104745128D01*
X195111846Y-104749628D01*
X195129069Y-104755415D01*
X195142694Y-104762700D01*
X195155814Y-104771690D01*
X195177841Y-104790211D01*
X195220128Y-104842893D01*
X195250258Y-104903676D01*
X195261743Y-104960967D01*
X195252694Y-105009127D01*
X195227608Y-105067555D01*
X195192754Y-105122327D01*
X195154432Y-105161663D01*
X195143367Y-105169057D01*
X195129557Y-105175609D01*
X195110852Y-105180844D01*
X195084201Y-105184947D01*
X195046551Y-105188104D01*
X194994850Y-105190500D01*
X194926045Y-105192321D01*
X194837085Y-105193753D01*
X194724916Y-105194980D01*
X194586487Y-105196189D01*
X194059896Y-105200544D01*
X194059896Y-105829562D01*
X194059896Y-106458580D01*
X194585035Y-106462772D01*
X195110173Y-106466965D01*
X195162664Y-106507018D01*
X195185696Y-106526973D01*
X195230702Y-106588598D01*
X195252979Y-106658315D01*
X195253080Y-106730213D01*
X195231559Y-106798378D01*
X195188970Y-106856900D01*
X195125866Y-106899867D01*
X195121030Y-106902016D01*
X195102148Y-106909214D01*
X195080103Y-106914959D01*
X195051625Y-106919414D01*
X195013446Y-106922746D01*
X194962298Y-106925119D01*
X194894910Y-106926698D01*
X194808016Y-106927649D01*
X194698345Y-106928138D01*
X194562631Y-106928328D01*
X194061384Y-106928650D01*
X194056976Y-107540565D01*
X194052568Y-108152481D01*
X194013300Y-108259982D01*
X193985341Y-108330599D01*
X193928567Y-108442289D01*
X193857749Y-108543094D01*
X193766139Y-108643479D01*
X193675117Y-108726873D01*
X193582393Y-108794358D01*
X193480835Y-108849259D01*
X193360205Y-108897996D01*
X193231795Y-108943941D01*
X192597894Y-108948457D01*
X191963993Y-108952972D01*
X191963993Y-109470600D01*
X191963818Y-109573533D01*
X191963184Y-109689523D01*
X191962142Y-109794659D01*
X191960751Y-109885249D01*
X191959071Y-109957601D01*
X191957159Y-110008024D01*
X191955074Y-110032826D01*
X191951310Y-110047381D01*
X191920466Y-110105642D01*
X191870679Y-110156294D01*
X191810098Y-110190475D01*
X191781101Y-110199211D01*
X191700296Y-110205421D01*
X191624967Y-110186160D01*
X191560653Y-110143496D01*
X191512893Y-110079497D01*
X191509335Y-110072469D01*
X191501295Y-110055319D01*
X191494895Y-110037298D01*
X191489987Y-110015246D01*
X191486424Y-109986004D01*
X191484057Y-109946410D01*
X191482739Y-109893305D01*
X191482322Y-109823530D01*
X191482660Y-109733922D01*
X191483603Y-109621324D01*
X191485006Y-109482573D01*
X191490504Y-108951269D01*
X190862505Y-108951269D01*
X190234507Y-108951269D01*
X190234507Y-109494150D01*
X190234463Y-109601344D01*
X190234195Y-109723071D01*
X190233554Y-109820820D01*
X190232397Y-109897660D01*
X190230580Y-109956659D01*
X190227961Y-110000884D01*
X190224396Y-110033403D01*
X190219741Y-110057285D01*
X190213853Y-110075598D01*
X190206588Y-110091409D01*
X190199470Y-110104149D01*
X190151718Y-110158082D01*
X190090192Y-110191855D01*
X190020881Y-110205782D01*
X189949776Y-110200176D01*
X189882867Y-110175353D01*
X189826141Y-110131626D01*
X189785590Y-110069311D01*
X189781145Y-110055171D01*
X189776444Y-110027428D01*
X189772717Y-109986282D01*
X189769873Y-109929082D01*
X189767820Y-109853175D01*
X189766466Y-109755911D01*
X189765721Y-109634639D01*
X189765494Y-109486708D01*
X189765494Y-108951269D01*
X189143089Y-108951269D01*
X188520685Y-108951269D01*
X188516517Y-109507168D01*
X188516146Y-109556192D01*
X188515043Y-109689811D01*
X188513878Y-109798030D01*
X188512477Y-109883808D01*
X188510668Y-109950104D01*
X188508275Y-109999876D01*
X188505127Y-110036082D01*
X188501049Y-110061682D01*
X188495868Y-110079634D01*
X188489410Y-110092896D01*
X188481503Y-110104427D01*
X188438805Y-110148841D01*
X188367237Y-110188775D01*
X188285170Y-110202723D01*
X188223877Y-110195072D01*
X188148997Y-110161686D01*
X188088837Y-110104427D01*
X188086117Y-110100715D01*
X188078697Y-110088948D01*
X188072670Y-110074496D01*
X188067864Y-110054400D01*
X188064105Y-110025701D01*
X188061219Y-109985440D01*
X188059034Y-109930660D01*
X188057375Y-109858401D01*
X188056069Y-109765706D01*
X188054944Y-109649614D01*
X188053824Y-109507168D01*
X188049656Y-108951269D01*
X187463275Y-108951269D01*
X187397721Y-108951239D01*
X187252633Y-108950861D01*
X187132537Y-108949972D01*
X187034346Y-108948469D01*
X186954973Y-108946250D01*
X186891331Y-108943214D01*
X186840334Y-108939258D01*
X186798894Y-108934280D01*
X186763924Y-108928180D01*
X186690569Y-108910521D01*
X186527967Y-108850739D01*
X186379675Y-108766634D01*
X186247874Y-108660144D01*
X186134748Y-108533210D01*
X186042481Y-108387770D01*
X185973256Y-108225764D01*
X185933874Y-108108511D01*
X185928627Y-107518580D01*
X185923379Y-106928650D01*
X185425616Y-106928650D01*
X185343144Y-106928623D01*
X185214368Y-106928256D01*
X185110116Y-106927082D01*
X185027300Y-106924639D01*
X184962831Y-106920464D01*
X184913621Y-106914094D01*
X184876581Y-106905064D01*
X184848622Y-106892913D01*
X184826656Y-106877178D01*
X184807594Y-106857394D01*
X184788347Y-106833099D01*
X184773854Y-106811359D01*
X184754880Y-106759055D01*
X186395201Y-106759055D01*
X186395359Y-106958647D01*
X186395752Y-107137753D01*
X186396417Y-107297564D01*
X186397386Y-107439271D01*
X186398696Y-107564065D01*
X186400380Y-107673137D01*
X186402474Y-107767679D01*
X186405012Y-107848880D01*
X186408029Y-107917933D01*
X186411559Y-107976029D01*
X186415638Y-108024357D01*
X186420300Y-108064110D01*
X186425580Y-108096479D01*
X186431512Y-108122654D01*
X186438132Y-108143827D01*
X186445473Y-108161188D01*
X186453571Y-108175929D01*
X186462461Y-108189241D01*
X186472176Y-108202315D01*
X186482752Y-108216341D01*
X186494224Y-108232511D01*
X186506540Y-108250029D01*
X186588934Y-108342173D01*
X186686103Y-108415840D01*
X186791156Y-108465619D01*
X186883822Y-108496913D01*
X190006510Y-108496125D01*
X190285120Y-108496049D01*
X190620346Y-108495936D01*
X190928361Y-108495797D01*
X191210349Y-108495623D01*
X191467496Y-108495403D01*
X191700987Y-108495128D01*
X191912007Y-108494787D01*
X192101742Y-108494372D01*
X192271376Y-108493871D01*
X192422095Y-108493275D01*
X192555085Y-108492574D01*
X192671530Y-108491759D01*
X192772615Y-108490819D01*
X192859526Y-108489744D01*
X192933449Y-108488526D01*
X192995567Y-108487153D01*
X193047067Y-108485616D01*
X193089134Y-108483905D01*
X193122953Y-108482010D01*
X193149709Y-108479922D01*
X193170588Y-108477630D01*
X193186774Y-108475124D01*
X193199453Y-108472395D01*
X193209810Y-108469433D01*
X193306603Y-108429035D01*
X193412310Y-108357948D01*
X193498445Y-108266349D01*
X193562933Y-108156544D01*
X193603702Y-108030842D01*
X193604705Y-108025584D01*
X193609762Y-107981026D01*
X193614035Y-107912959D01*
X193617328Y-107826276D01*
X193619447Y-107725874D01*
X193620196Y-107616647D01*
X193620196Y-107280120D01*
X192238806Y-107281070D01*
X191995872Y-107281387D01*
X191763060Y-107282020D01*
X191552540Y-107282951D01*
X191365191Y-107284171D01*
X191201889Y-107285670D01*
X191063512Y-107287438D01*
X190950937Y-107289467D01*
X190865042Y-107291746D01*
X190806705Y-107294266D01*
X190776803Y-107297018D01*
X190752949Y-107301709D01*
X190702143Y-107314452D01*
X190655914Y-107331740D01*
X190610117Y-107356341D01*
X190560609Y-107391024D01*
X190503245Y-107438558D01*
X190433881Y-107501712D01*
X190348372Y-107583255D01*
X190262891Y-107664525D01*
X190184340Y-107735477D01*
X190117742Y-107790160D01*
X190059031Y-107831405D01*
X190004141Y-107862045D01*
X189949007Y-107884911D01*
X189889563Y-107902835D01*
X189854802Y-107908295D01*
X189792861Y-107913343D01*
X189708719Y-107917621D01*
X189606032Y-107921130D01*
X189488457Y-107923867D01*
X189359652Y-107925834D01*
X189223272Y-107927030D01*
X189082976Y-107927454D01*
X188942420Y-107927106D01*
X188805260Y-107925985D01*
X188675154Y-107924091D01*
X188555759Y-107921424D01*
X188450731Y-107917984D01*
X188363728Y-107913769D01*
X188298406Y-107908779D01*
X188258423Y-107903015D01*
X188212657Y-107891091D01*
X188123545Y-107859069D01*
X188040897Y-107814774D01*
X187957476Y-107753952D01*
X187866045Y-107672348D01*
X187731577Y-107543975D01*
X187638610Y-107567792D01*
X187534228Y-107583428D01*
X187419273Y-107575023D01*
X187311275Y-107540511D01*
X187213846Y-107481597D01*
X187130599Y-107399983D01*
X187065145Y-107297373D01*
X187052703Y-107271543D01*
X187033815Y-107226207D01*
X187023154Y-107184503D01*
X187018434Y-107135460D01*
X187017369Y-107068107D01*
X187017374Y-107067429D01*
X187376457Y-107067429D01*
X187382001Y-107108459D01*
X187408523Y-107163225D01*
X187451866Y-107200897D01*
X187507426Y-107219823D01*
X187561836Y-107213636D01*
X187612091Y-107178940D01*
X187639989Y-107142194D01*
X187657193Y-107083883D01*
X187647275Y-107024453D01*
X187610284Y-106969685D01*
X187579233Y-106942424D01*
X187549990Y-106931194D01*
X187511351Y-106933662D01*
X187468414Y-106948529D01*
X187422718Y-106981563D01*
X187389370Y-107023870D01*
X187376457Y-107067429D01*
X187017374Y-107067429D01*
X187017711Y-107021179D01*
X187020563Y-106969212D01*
X187028287Y-106929160D01*
X187043205Y-106890638D01*
X187067639Y-106843260D01*
X187075703Y-106828862D01*
X187148210Y-106729837D01*
X187235720Y-106653661D01*
X187334521Y-106600947D01*
X187440900Y-106572311D01*
X187551146Y-106568366D01*
X187661545Y-106589727D01*
X187768386Y-106637009D01*
X187867955Y-106710825D01*
X187929421Y-106779766D01*
X187985971Y-106879944D01*
X188018330Y-106990503D01*
X188023796Y-107083883D01*
X188025105Y-107106246D01*
X188004904Y-107221976D01*
X187988406Y-107277044D01*
X188100993Y-107384988D01*
X188132512Y-107415658D01*
X188166353Y-107448797D01*
X188196386Y-107476423D01*
X188225372Y-107499034D01*
X188256069Y-107517129D01*
X188291239Y-107531204D01*
X188333640Y-107541759D01*
X188386032Y-107549291D01*
X188451175Y-107554298D01*
X188531829Y-107557277D01*
X188630754Y-107558728D01*
X188750709Y-107559148D01*
X188894454Y-107559035D01*
X189064750Y-107558886D01*
X189177802Y-107558833D01*
X189331808Y-107558510D01*
X189460364Y-107557839D01*
X189565823Y-107556758D01*
X189650539Y-107555204D01*
X189716867Y-107553114D01*
X189767161Y-107550426D01*
X189803774Y-107547078D01*
X189829062Y-107543007D01*
X189845377Y-107538150D01*
X189847471Y-107537188D01*
X189875432Y-107518510D01*
X189919601Y-107483154D01*
X189975868Y-107434650D01*
X190040124Y-107376527D01*
X190108259Y-107312317D01*
X190140193Y-107281779D01*
X190233324Y-107195531D01*
X190313021Y-107127249D01*
X190383723Y-107073757D01*
X190449871Y-107031877D01*
X190515906Y-106998432D01*
X190586267Y-106970244D01*
X190681535Y-106935978D01*
X192150866Y-106931973D01*
X193620196Y-106927969D01*
X193620196Y-106715544D01*
X193620196Y-106503119D01*
X191953001Y-106507027D01*
X190285805Y-106510935D01*
X190207337Y-106552258D01*
X190191838Y-106561412D01*
X190144555Y-106595241D01*
X190084064Y-106644074D01*
X190015379Y-106703768D01*
X189943517Y-106770180D01*
X189931400Y-106781712D01*
X189849002Y-106859065D01*
X189782124Y-106919009D01*
X189726364Y-106964683D01*
X189677318Y-106999223D01*
X189630585Y-107025767D01*
X189581761Y-107047453D01*
X189526443Y-107067419D01*
X189456374Y-107085944D01*
X189348250Y-107101488D01*
X189234138Y-107106026D01*
X189124965Y-107099262D01*
X189031656Y-107080897D01*
X189022345Y-107078124D01*
X188980629Y-107065192D01*
X188942720Y-107051758D01*
X188906577Y-107036136D01*
X188870154Y-107016640D01*
X188831409Y-106991583D01*
X188788296Y-106959279D01*
X188738773Y-106918042D01*
X188680795Y-106866185D01*
X188612319Y-106802023D01*
X188531300Y-106723868D01*
X188435696Y-106630035D01*
X188323461Y-106518837D01*
X188192552Y-106388587D01*
X188123362Y-106319508D01*
X188016881Y-106212482D01*
X187917055Y-106111288D01*
X187825915Y-106018035D01*
X187745493Y-105934828D01*
X187677820Y-105863774D01*
X187624927Y-105806980D01*
X187588846Y-105766553D01*
X187571607Y-105744599D01*
X187543108Y-105689087D01*
X187509989Y-105601258D01*
X187487404Y-105511683D01*
X187479054Y-105432829D01*
X187479054Y-105361317D01*
X187306838Y-105357187D01*
X187134622Y-105353058D01*
X187134622Y-103755482D01*
X187134622Y-102157905D01*
X187482718Y-102153976D01*
X187830814Y-102150046D01*
X187830814Y-102802533D01*
X187830814Y-103455020D01*
X188446394Y-103455020D01*
X189061974Y-103455020D01*
X189061974Y-102802798D01*
X189061974Y-102150577D01*
X189421062Y-102150577D01*
X189780150Y-102150577D01*
X189780150Y-103755482D01*
X189780150Y-105360386D01*
X189421062Y-105360386D01*
X189061974Y-105360386D01*
X189061974Y-104708165D01*
X189061974Y-104055943D01*
X188446394Y-104055943D01*
X187830814Y-104055943D01*
X187831423Y-104733814D01*
X187831475Y-104783750D01*
X187831772Y-104936859D01*
X187832321Y-105064173D01*
X187833218Y-105168414D01*
X187834556Y-105252307D01*
X187836428Y-105318573D01*
X187838927Y-105369936D01*
X187842148Y-105409120D01*
X187846184Y-105438846D01*
X187851127Y-105461839D01*
X187857072Y-105480820D01*
X187861346Y-105491132D01*
X187872293Y-105510995D01*
X187889380Y-105535566D01*
X187914240Y-105566609D01*
X187948511Y-105605890D01*
X187993828Y-105655173D01*
X188051827Y-105716224D01*
X188124144Y-105790807D01*
X188212415Y-105880688D01*
X188318275Y-105987632D01*
X188443361Y-106113404D01*
X188505828Y-106176036D01*
X188633142Y-106303059D01*
X188741927Y-106410578D01*
X188833398Y-106499746D01*
X188908772Y-106571714D01*
X188969263Y-106627634D01*
X189016088Y-106668658D01*
X189050461Y-106695937D01*
X189073598Y-106710624D01*
X189085281Y-106715959D01*
X189166173Y-106738720D01*
X189258260Y-106746164D01*
X189349654Y-106738159D01*
X189428466Y-106714572D01*
X189442192Y-106707143D01*
X189486372Y-106676276D01*
X189545696Y-106628373D01*
X189616646Y-106566350D01*
X189695704Y-106493122D01*
X189699565Y-106489456D01*
X189782284Y-106412416D01*
X189850034Y-106352988D01*
X189907541Y-106307417D01*
X189959536Y-106271944D01*
X190010747Y-106242814D01*
X190033852Y-106230724D01*
X190061814Y-106216217D01*
X190088429Y-106203292D01*
X190115401Y-106191856D01*
X190144433Y-106181820D01*
X190177228Y-106173091D01*
X190215489Y-106165579D01*
X190260920Y-106159193D01*
X190315225Y-106153841D01*
X190380106Y-106149433D01*
X190457267Y-106145876D01*
X190548411Y-106143081D01*
X190655241Y-106140956D01*
X190779462Y-106139410D01*
X190922776Y-106138352D01*
X191086886Y-106137691D01*
X191273497Y-106137335D01*
X191484310Y-106137193D01*
X191721030Y-106137175D01*
X191985360Y-106137190D01*
X193620196Y-106137190D01*
X193620196Y-104035264D01*
X193620188Y-103780003D01*
X193620146Y-103514283D01*
X193620053Y-103275116D01*
X193619890Y-103061029D01*
X193619638Y-102870548D01*
X193619279Y-102702202D01*
X193618794Y-102554516D01*
X193618164Y-102426019D01*
X193617371Y-102315238D01*
X193616397Y-102220698D01*
X193615223Y-102140929D01*
X193613830Y-102074456D01*
X193612199Y-102019808D01*
X193610313Y-101975510D01*
X193608152Y-101940091D01*
X193605699Y-101912077D01*
X193602934Y-101889995D01*
X193599838Y-101872374D01*
X193596394Y-101857739D01*
X193592583Y-101844618D01*
X193552105Y-101740104D01*
X193494299Y-101645239D01*
X193415769Y-101559117D01*
X193348144Y-101504456D01*
X193232144Y-101440766D01*
X193104921Y-101402778D01*
X193094711Y-101401716D01*
X193053420Y-101399896D01*
X192983118Y-101398245D01*
X192884002Y-101396764D01*
X192756267Y-101395454D01*
X192600109Y-101394316D01*
X192415724Y-101393349D01*
X192203307Y-101392555D01*
X191963055Y-101391935D01*
X191695163Y-101391489D01*
X191399827Y-101391217D01*
X191077243Y-101391121D01*
X190727607Y-101391201D01*
X190351114Y-101391458D01*
X189947961Y-101391892D01*
X186870802Y-101395759D01*
X186771633Y-101442581D01*
X186694747Y-101485865D01*
X186595688Y-101563347D01*
X186511276Y-101655072D01*
X186448843Y-101753967D01*
X186401789Y-101850115D01*
X186397483Y-104913358D01*
X186397266Y-105064596D01*
X186396737Y-105412116D01*
X186396236Y-105732005D01*
X186395797Y-106025452D01*
X186395455Y-106293648D01*
X186395245Y-106537786D01*
X186395201Y-106759055D01*
X184754880Y-106759055D01*
X184748570Y-106741659D01*
X184747267Y-106667779D01*
X184768327Y-106596463D01*
X184810131Y-106534454D01*
X184871061Y-106488494D01*
X184877858Y-106485133D01*
X184895128Y-106477983D01*
X184915750Y-106472306D01*
X184942968Y-106467933D01*
X184980028Y-106464696D01*
X185030175Y-106462425D01*
X185096654Y-106460952D01*
X185182711Y-106460109D01*
X185291590Y-106459726D01*
X185426537Y-106459636D01*
X185925447Y-106459636D01*
X185925447Y-105830098D01*
X185925447Y-105200560D01*
X185406185Y-105196198D01*
X185286243Y-105195144D01*
X185171670Y-105193920D01*
X185080691Y-105192514D01*
X185010236Y-105190735D01*
X184957233Y-105188394D01*
X184918609Y-105185301D01*
X184891293Y-105181267D01*
X184872213Y-105176101D01*
X184858297Y-105169614D01*
X184846473Y-105161616D01*
X184833791Y-105151688D01*
X184776111Y-105088539D01*
X184745889Y-105017602D01*
X184743743Y-104941300D01*
X184770289Y-104862060D01*
X184773038Y-104856820D01*
X184813137Y-104801868D01*
X184869609Y-104763127D01*
X184885038Y-104755605D01*
X184903352Y-104748186D01*
X184924512Y-104742370D01*
X184951827Y-104737960D01*
X184988604Y-104734763D01*
X185038152Y-104732583D01*
X185103780Y-104731227D01*
X185188797Y-104730499D01*
X185296509Y-104730205D01*
X185430226Y-104730150D01*
X185925447Y-104730150D01*
X185925447Y-104092585D01*
X185925447Y-103455020D01*
X185430785Y-103454698D01*
X185424309Y-103454694D01*
X185290404Y-103454478D01*
X185182395Y-103453932D01*
X185097007Y-103452894D01*
X185030965Y-103451200D01*
X184980996Y-103448689D01*
X184943823Y-103445198D01*
X184916173Y-103440565D01*
X184894772Y-103434629D01*
X184876344Y-103427226D01*
X184815404Y-103389501D01*
X184768458Y-103331371D01*
X184744594Y-103255649D01*
X184743109Y-103206278D01*
X184762701Y-103132600D01*
X184805876Y-103068313D01*
X184869168Y-103019976D01*
X184886153Y-103011290D01*
X184903880Y-103003847D01*
X184924544Y-102998030D01*
X184951443Y-102993639D01*
X184987873Y-102990472D01*
X185037132Y-102988331D01*
X185102517Y-102987014D01*
X185187323Y-102986321D01*
X185294849Y-102986052D01*
X185428392Y-102986007D01*
X185923379Y-102986007D01*
X185928757Y-102396076D01*
X185929541Y-102311531D01*
X185930907Y-102178714D01*
X185932346Y-102070319D01*
X185934037Y-101983188D01*
X185936156Y-101914166D01*
X185938884Y-101860096D01*
X185942397Y-101817821D01*
X185946875Y-101784185D01*
X185952496Y-101756032D01*
X185959438Y-101730206D01*
X185967879Y-101703549D01*
X186005451Y-101604574D01*
X186089454Y-101445849D01*
X186196034Y-101304320D01*
X186323296Y-101181982D01*
X186469347Y-101080834D01*
X186632292Y-101002872D01*
X186753549Y-100956218D01*
X187398442Y-100948810D01*
X188043335Y-100941402D01*
X188050664Y-100389162D01*
X188051086Y-100357469D01*
X188052985Y-100221142D01*
X188054791Y-100110543D01*
X188056692Y-100022702D01*
X188058879Y-99954648D01*
X188061542Y-99903413D01*
X188064872Y-99866026D01*
X188069058Y-99839517D01*
X188074290Y-99820918D01*
X188080758Y-99807258D01*
X188088653Y-99795567D01*
X188095802Y-99786191D01*
X188154703Y-99728179D01*
X188220501Y-99697333D01*
X188296771Y-99691872D01*
X188363058Y-99704265D01*
X188426612Y-99737937D01*
X188482130Y-99796478D01*
X188484184Y-99799271D01*
X188491569Y-99810906D01*
X188497578Y-99825270D01*
X188502380Y-99845314D01*
X188506145Y-99873993D01*
X188509045Y-99914262D01*
X188511249Y-99969074D01*
X188512928Y-100041383D01*
X188514252Y-100134143D01*
X188515392Y-100250308D01*
X188516517Y-100392831D01*
X188520685Y-100948730D01*
X189143089Y-100948730D01*
X189765494Y-100948730D01*
X189765494Y-100416868D01*
X189765495Y-100380855D01*
X189765574Y-100248454D01*
X189765903Y-100141447D01*
X189766656Y-100056675D01*
X189768007Y-99990978D01*
X189770132Y-99941197D01*
X189773205Y-99904173D01*
X189777401Y-99876748D01*
X189782894Y-99855761D01*
X189789859Y-99838053D01*
X189798471Y-99820467D01*
X189810060Y-99799267D01*
X189855645Y-99741345D01*
X189913009Y-99707087D01*
X189988400Y-99692276D01*
X190066606Y-99697005D01*
X190139125Y-99726969D01*
X190197393Y-99782401D01*
X190198825Y-99784343D01*
X190206207Y-99795947D01*
X190212256Y-99810413D01*
X190217154Y-99830680D01*
X190221083Y-99859687D01*
X190224226Y-99900372D01*
X190226764Y-99955675D01*
X190228879Y-100028534D01*
X190230753Y-100121888D01*
X190232569Y-100238677D01*
X190234507Y-100381838D01*
X190241835Y-100941402D01*
X190861140Y-100941402D01*
X191480445Y-100941402D01*
X191484048Y-100389175D01*
X191484323Y-100347454D01*
X191485295Y-100213028D01*
X191486349Y-100104130D01*
X191487657Y-100017791D01*
X191489391Y-99951041D01*
X191491723Y-99900909D01*
X191494823Y-99864426D01*
X191498863Y-99838621D01*
X191504016Y-99820525D01*
X191510452Y-99807168D01*
X191518343Y-99795580D01*
X191519082Y-99794588D01*
X191580782Y-99735057D01*
X191656233Y-99700379D01*
X191741087Y-99692564D01*
X191809237Y-99704986D01*
X191871562Y-99738321D01*
X191926446Y-99796478D01*
X191928442Y-99799190D01*
X191935842Y-99810824D01*
X191941863Y-99825166D01*
X191946674Y-99845172D01*
X191950447Y-99873797D01*
X191953351Y-99913999D01*
X191955559Y-99968732D01*
X191957240Y-100040954D01*
X191958566Y-100133621D01*
X191959706Y-100249688D01*
X191960831Y-100392111D01*
X191964997Y-100947290D01*
X192598396Y-100952094D01*
X193231795Y-100956897D01*
X193337985Y-100995887D01*
X193366775Y-101006719D01*
X193495745Y-101063679D01*
X193605560Y-101128714D01*
X193704613Y-101206647D01*
X193761421Y-101260043D01*
X193867924Y-101381622D01*
X193952670Y-101514490D01*
X194020856Y-101666202D01*
X194025419Y-101678704D01*
X194032152Y-101700113D01*
X194037677Y-101724147D01*
X194042147Y-101753771D01*
X194045712Y-101791951D01*
X194048522Y-101841653D01*
X194050731Y-101905841D01*
X194052487Y-101987480D01*
X194053943Y-102089537D01*
X194055250Y-102214976D01*
X194056558Y-102366763D01*
X194061632Y-102986007D01*
X194562755Y-102986329D01*
X194600854Y-102986359D01*
X194729441Y-102986611D01*
X194832836Y-102987204D01*
X194914310Y-102988304D01*
X194977131Y-102990075D01*
X195024568Y-102992683D01*
X195059891Y-102996294D01*
X195086369Y-103001071D01*
X195107271Y-103007182D01*
X195125866Y-103014790D01*
X195152080Y-103028817D01*
X195207500Y-103078355D01*
X195242195Y-103141215D01*
X195255613Y-103211485D01*
X195247200Y-103283253D01*
X195216402Y-103350608D01*
X195162664Y-103407638D01*
X195110173Y-103447692D01*
X194585035Y-103451884D01*
X194059896Y-103456076D01*
X194059896Y-104035264D01*
X194059896Y-104092423D01*
G37*
D13*
X152370000Y-95650000D02*
X152370000Y-95150000D01*
X154730000Y-95650000D02*
X154730000Y-95150000D01*
X193340580Y-78390000D02*
X193059420Y-78390000D01*
X193340580Y-79410000D02*
X193059420Y-79410000D01*
X150350000Y-84120000D02*
X149850000Y-84120000D01*
X150350000Y-86480000D02*
X149850000Y-86480000D01*
D17*
X118549000Y-80082400D02*
X118549000Y-81733400D01*
X119587860Y-80082400D02*
X118549000Y-80082400D01*
X119862139Y-81733400D02*
X120537861Y-81733400D01*
X121851000Y-80082400D02*
X120812140Y-80082400D01*
X121851000Y-81733400D02*
X121851000Y-80082400D01*
X121226200Y-83346300D02*
G75*
G02*
X121073800Y-83346300I-76200J0D01*
G01*
X121073800Y-83346300D02*
G75*
G02*
X121226200Y-83346300I76200J0D01*
G01*
D13*
X115122936Y-85665000D02*
X115577064Y-85665000D01*
X115122936Y-87135000D02*
X115577064Y-87135000D01*
%LPC*%
D18*
X107540000Y-87920000D03*
D19*
X105000000Y-87920000D03*
X107540000Y-85380000D03*
X105000000Y-85380000D03*
X107540000Y-82840000D03*
X105000000Y-82840000D03*
X107540000Y-80300000D03*
X105000000Y-80300000D03*
D20*
X104000000Y-73950000D03*
D18*
X111800000Y-96540000D03*
D19*
X111800000Y-94000000D03*
X111800000Y-91460000D03*
D20*
X196000000Y-115950000D03*
X104000000Y-115950000D03*
X196000000Y-74000000D03*
D21*
X106250000Y-102790000D03*
X106250000Y-108570000D03*
D22*
X106780000Y-101360000D03*
D23*
X102600000Y-101360000D03*
D22*
X106780000Y-110000000D03*
D23*
X102600000Y-110000000D03*
D24*
X118000000Y-78450000D03*
D25*
X115500000Y-78450000D03*
X113000000Y-78450000D03*
D26*
X147000000Y-92400000D03*
D27*
X147000000Y-91900000D03*
X147000000Y-91400000D03*
D26*
X147000000Y-90900000D03*
X148000000Y-90900000D03*
D27*
X148000000Y-91400000D03*
X148000000Y-91900000D03*
D26*
X148000000Y-92400000D03*
D28*
X166800000Y-77475000D03*
X166800000Y-75925000D03*
X155750000Y-96675000D03*
X155750000Y-95125000D03*
D29*
X116310000Y-84200000D03*
X114390000Y-84200000D03*
X115350000Y-82100000D03*
D30*
X190400000Y-72650000D03*
X190400000Y-73150000D03*
X190400000Y-73650000D03*
X190400000Y-74150000D03*
X190400000Y-74650000D03*
X190400000Y-75150000D03*
X190400000Y-75650000D03*
X190400000Y-76150000D03*
X190400000Y-76650000D03*
X190400000Y-77150000D03*
X190400000Y-77650000D03*
X190400000Y-78150000D03*
X190400000Y-78650000D03*
X190400000Y-79150000D03*
X190400000Y-79650000D03*
X190400000Y-80150000D03*
X190400000Y-80650000D03*
X190400000Y-81150000D03*
X190400000Y-81650000D03*
X190400000Y-82150000D03*
X190400000Y-82650000D03*
X190400000Y-83150000D03*
X190400000Y-83650000D03*
X190400000Y-84150000D03*
X170700000Y-84150000D03*
X170700000Y-83650000D03*
X170700000Y-83150000D03*
X170700000Y-82650000D03*
X170700000Y-82150000D03*
X170700000Y-81650000D03*
X170700000Y-81150000D03*
X170700000Y-80650000D03*
X170700000Y-80150000D03*
X170700000Y-79650000D03*
X170700000Y-79150000D03*
X170700000Y-78650000D03*
X170700000Y-78150000D03*
X170700000Y-77650000D03*
X170700000Y-77150000D03*
X170700000Y-76650000D03*
X170700000Y-76150000D03*
X170700000Y-75650000D03*
X170700000Y-75150000D03*
X170700000Y-74650000D03*
X170700000Y-74150000D03*
X170700000Y-73650000D03*
X170700000Y-73150000D03*
X170700000Y-72650000D03*
D31*
X137250000Y-90200000D03*
X136750000Y-90200000D03*
X136250000Y-90200000D03*
X135750000Y-90200000D03*
X135250000Y-90200000D03*
X134750000Y-90200000D03*
X134250000Y-90200000D03*
X133750000Y-90200000D03*
X133250000Y-90200000D03*
X132750000Y-90200000D03*
X132250000Y-90200000D03*
X131750000Y-90200000D03*
X131250000Y-90200000D03*
X130750000Y-90200000D03*
X130250000Y-90200000D03*
X129750000Y-90200000D03*
X129250000Y-90200000D03*
X128750000Y-90200000D03*
X128250000Y-90200000D03*
X127750000Y-90200000D03*
X127250000Y-90200000D03*
X126750000Y-90200000D03*
X126250000Y-90200000D03*
X125750000Y-90200000D03*
X125250000Y-90200000D03*
X124750000Y-90200000D03*
X124250000Y-90200000D03*
X123750000Y-90200000D03*
X123250000Y-90200000D03*
X122750000Y-90200000D03*
X122750000Y-93800000D03*
X123250000Y-93800000D03*
X123750000Y-93800000D03*
X124250000Y-93800000D03*
X124750000Y-93800000D03*
X125250000Y-93800000D03*
X125750000Y-93800000D03*
X126250000Y-93800000D03*
X126750000Y-93800000D03*
X127250000Y-93800000D03*
X127750000Y-93800000D03*
X128250000Y-93800000D03*
X128750000Y-93800000D03*
X129250000Y-93800000D03*
X129750000Y-93800000D03*
X130250000Y-93800000D03*
X130750000Y-93800000D03*
X131250000Y-93800000D03*
X131750000Y-93800000D03*
X132250000Y-93800000D03*
X132750000Y-93800000D03*
X133250000Y-93800000D03*
X133750000Y-93800000D03*
X134250000Y-93800000D03*
X134750000Y-93800000D03*
X135250000Y-93800000D03*
X135750000Y-93800000D03*
X136250000Y-93800000D03*
X136750000Y-93800000D03*
X137250000Y-93800000D03*
D32*
X121050000Y-92000000D03*
X138950000Y-92000000D03*
D33*
X168775000Y-79700000D03*
X167225000Y-79700000D03*
D34*
X149076777Y-95383883D03*
D35*
X148723223Y-95030330D03*
X148369670Y-94676777D03*
D34*
X148016117Y-94323223D03*
X148723223Y-93616117D03*
D35*
X149076777Y-93969670D03*
X149430330Y-94323223D03*
D34*
X149783883Y-94676777D03*
D28*
X168600000Y-77475000D03*
X168600000Y-75925000D03*
D36*
X154300000Y-95900000D03*
D37*
X153800000Y-95900000D03*
X153300000Y-95900000D03*
D36*
X152800000Y-95900000D03*
X152800000Y-94900000D03*
D37*
X153300000Y-94900000D03*
X153800000Y-94900000D03*
D36*
X154300000Y-94900000D03*
D38*
X192425000Y-78900000D03*
X193975000Y-78900000D03*
D26*
X150600000Y-84550000D03*
D27*
X150600000Y-85050000D03*
X150600000Y-85550000D03*
D26*
X150600000Y-86050000D03*
X149600000Y-86050000D03*
D27*
X149600000Y-85550000D03*
X149600000Y-85050000D03*
D26*
X149600000Y-84550000D03*
D39*
X121150001Y-81923900D03*
X119249999Y-81923900D03*
X120200000Y-79891900D03*
D40*
X116262500Y-86400000D03*
X114437500Y-86400000D03*
%LPD*%
M02*
