G04 #@! TF.GenerationSoftware,KiCad,Pcbnew,8.0.6*
G04 #@! TF.CreationDate,2026-03-22T13:56:01-07:00*
G04 #@! TF.ProjectId,STM32H7_Board,53544d33-3248-4375-9f42-6f6172642e6b,rev?*
G04 #@! TF.SameCoordinates,Original*
G04 #@! TF.FileFunction,Paste,Top*
G04 #@! TF.FilePolarity,Positive*
%FSLAX46Y46*%
G04 Gerber Fmt 4.6, Leading zero omitted, Abs format (unit mm)*
G04 Created by KiCad (PCBNEW 8.0.6) date 2026-03-22 13:56:01*
%MOMM*%
%LPD*%
G01*
G04 APERTURE LIST*
G04 Aperture macros list*
%AMRoundRect*
0 Rectangle with rounded corners*
0 $1 Rounding radius*
0 $2 $3 $4 $5 $6 $7 $8 $9 X,Y pos of 4 corners*
0 Add a 4 corners polygon primitive as box body*
4,1,4,$2,$3,$4,$5,$6,$7,$8,$9,$2,$3,0*
0 Add four circle primitives for the rounded corners*
1,1,$1+$1,$2,$3*
1,1,$1+$1,$4,$5*
1,1,$1+$1,$6,$7*
1,1,$1+$1,$8,$9*
0 Add four rect primitives between the rounded corners*
20,1,$1+$1,$2,$3,$4,$5,0*
20,1,$1+$1,$4,$5,$6,$7,0*
20,1,$1+$1,$6,$7,$8,$9,0*
20,1,$1+$1,$8,$9,$2,$3,0*%
G04 Aperture macros list end*
%ADD10RoundRect,0.250000X-0.475000X0.250000X-0.475000X-0.250000X0.475000X-0.250000X0.475000X0.250000X0*%
%ADD11R,0.400000X0.500000*%
%ADD12R,0.300000X0.500000*%
%ADD13RoundRect,0.250000X0.262500X0.450000X-0.262500X0.450000X-0.262500X-0.450000X0.262500X-0.450000X0*%
%ADD14RoundRect,0.250000X-0.250000X-0.475000X0.250000X-0.475000X0.250000X0.475000X-0.250000X0.475000X0*%
%ADD15RoundRect,0.250000X0.250000X0.475000X-0.250000X0.475000X-0.250000X-0.475000X0.250000X-0.475000X0*%
%ADD16R,1.550000X2.150000*%
%ADD17RoundRect,0.225000X-0.225000X-0.250000X0.225000X-0.250000X0.225000X0.250000X-0.225000X0.250000X0*%
%ADD18R,1.475000X0.300000*%
%ADD19R,0.300000X1.475000*%
%ADD20RoundRect,0.225000X-0.475000X-0.225000X0.475000X-0.225000X0.475000X0.225000X-0.475000X0.225000X0*%
%ADD21RoundRect,0.225000X-0.250000X0.225000X-0.250000X-0.225000X0.250000X-0.225000X0.250000X0.225000X0*%
%ADD22RoundRect,0.250000X0.450000X-0.262500X0.450000X0.262500X-0.450000X0.262500X-0.450000X-0.262500X0*%
%ADD23RoundRect,0.250000X0.337500X0.475000X-0.337500X0.475000X-0.337500X-0.475000X0.337500X-0.475000X0*%
%ADD24RoundRect,0.250000X0.475000X-0.250000X0.475000X0.250000X-0.475000X0.250000X-0.475000X-0.250000X0*%
%ADD25R,1.295000X0.600000*%
%ADD26R,0.500000X0.400000*%
%ADD27R,0.500000X0.300000*%
%ADD28RoundRect,0.225000X0.250000X-0.225000X0.250000X0.225000X-0.250000X0.225000X-0.250000X-0.225000X0*%
%ADD29RoundRect,0.250000X-0.450000X0.262500X-0.450000X-0.262500X0.450000X-0.262500X0.450000X0.262500X0*%
%ADD30RoundRect,0.225000X0.225000X0.250000X-0.225000X0.250000X-0.225000X-0.250000X0.225000X-0.250000X0*%
%ADD31R,3.700000X1.100000*%
%ADD32R,1.300000X1.100000*%
%ADD33R,0.640000X0.640000*%
%ADD34RoundRect,0.070000X-0.355000X-0.070000X0.355000X-0.070000X0.355000X0.070000X-0.355000X0.070000X0*%
%ADD35R,0.280000X0.700000*%
%ADD36RoundRect,0.250000X-0.325000X-1.100000X0.325000X-1.100000X0.325000X1.100000X-0.325000X1.100000X0*%
%ADD37RoundRect,0.200000X0.200000X0.275000X-0.200000X0.275000X-0.200000X-0.275000X0.200000X-0.275000X0*%
%ADD38R,1.450000X0.600000*%
%ADD39R,1.450000X0.300000*%
%ADD40R,1.600000X0.300000*%
%ADD41R,1.800000X0.800000*%
%ADD42RoundRect,0.150000X0.150000X-0.512500X0.150000X0.512500X-0.150000X0.512500X-0.150000X-0.512500X0*%
G04 APERTURE END LIST*
D10*
X129300000Y-93350000D03*
X129300000Y-95250000D03*
D11*
X152896000Y-76716000D03*
D12*
X152396000Y-76716000D03*
X151896000Y-76716000D03*
D11*
X151396000Y-76716000D03*
X151396000Y-77716000D03*
D12*
X151896000Y-77716000D03*
X152396000Y-77716000D03*
D11*
X152896000Y-77716000D03*
D13*
X121412500Y-93700000D03*
X119587500Y-93700000D03*
D14*
X154500000Y-77200000D03*
X156400000Y-77200000D03*
D11*
X162200000Y-85700000D03*
D12*
X161700000Y-85700000D03*
X161200000Y-85700000D03*
D11*
X160700000Y-85700000D03*
X160700000Y-86700000D03*
D12*
X161200000Y-86700000D03*
X161700000Y-86700000D03*
D11*
X162200000Y-86700000D03*
D14*
X139750000Y-112450000D03*
X141650000Y-112450000D03*
D15*
X136750000Y-111700000D03*
X134850000Y-111700000D03*
D13*
X163262500Y-95569250D03*
X161437500Y-95569250D03*
D16*
X115600000Y-94350000D03*
X115600000Y-88850000D03*
D17*
X176925000Y-106900000D03*
X178475000Y-106900000D03*
D18*
X157788000Y-105919250D03*
X157788000Y-105419250D03*
X157788000Y-104919250D03*
X157788000Y-104419250D03*
X157788000Y-103919250D03*
X157788000Y-103419250D03*
X157788000Y-102919250D03*
X157788000Y-102419250D03*
X157788000Y-101919250D03*
X157788000Y-101419250D03*
X157788000Y-100919250D03*
X157788000Y-100419250D03*
X157788000Y-99919250D03*
X157788000Y-99419250D03*
X157788000Y-98919250D03*
X157788000Y-98419250D03*
X157788000Y-97919250D03*
X157788000Y-97419250D03*
X157788000Y-96919250D03*
X157788000Y-96419250D03*
X157788000Y-95919250D03*
X157788000Y-95419250D03*
X157788000Y-94919250D03*
X157788000Y-94419250D03*
X157788000Y-93919250D03*
X157788000Y-93419250D03*
X157788000Y-92919250D03*
X157788000Y-92419250D03*
X157788000Y-91919250D03*
X157788000Y-91419250D03*
X157788000Y-90919250D03*
X157788000Y-90419250D03*
X157788000Y-89919250D03*
X157788000Y-89419250D03*
X157788000Y-88919250D03*
X157788000Y-88419250D03*
X157788000Y-87919250D03*
X157788000Y-87419250D03*
X157788000Y-86919250D03*
X157788000Y-86419250D03*
X157788000Y-85919250D03*
X157788000Y-85419250D03*
X157788000Y-84919250D03*
X157788000Y-84419250D03*
D19*
X155800000Y-82431250D03*
X155300000Y-82431250D03*
X154800000Y-82431250D03*
X154300000Y-82431250D03*
X153800000Y-82431250D03*
X153300000Y-82431250D03*
X152800000Y-82431250D03*
X152300000Y-82431250D03*
X151800000Y-82431250D03*
X151300000Y-82431250D03*
X150800000Y-82431250D03*
X150300000Y-82431250D03*
X149800000Y-82431250D03*
X149300000Y-82431250D03*
X148800000Y-82431250D03*
X148300000Y-82431250D03*
X147800000Y-82431250D03*
X147300000Y-82431250D03*
X146800000Y-82431250D03*
X146300000Y-82431250D03*
X145800000Y-82431250D03*
X145300000Y-82431250D03*
X144800000Y-82431250D03*
X144300000Y-82431250D03*
X143800000Y-82431250D03*
X143300000Y-82431250D03*
X142800000Y-82431250D03*
X142300000Y-82431250D03*
X141800000Y-82431250D03*
X141300000Y-82431250D03*
X140800000Y-82431250D03*
X140300000Y-82431250D03*
X139800000Y-82431250D03*
X139300000Y-82431250D03*
X138800000Y-82431250D03*
X138300000Y-82431250D03*
X137800000Y-82431250D03*
X137300000Y-82431250D03*
X136800000Y-82431250D03*
X136300000Y-82431250D03*
X135800000Y-82431250D03*
X135300000Y-82431250D03*
X134800000Y-82431250D03*
X134300000Y-82431250D03*
D18*
X132312000Y-84419250D03*
X132312000Y-84919250D03*
X132312000Y-85419250D03*
X132312000Y-85919250D03*
X132312000Y-86419250D03*
X132312000Y-86919250D03*
X132312000Y-87419250D03*
X132312000Y-87919250D03*
X132312000Y-88419250D03*
X132312000Y-88919250D03*
X132312000Y-89419250D03*
X132312000Y-89919250D03*
X132312000Y-90419250D03*
X132312000Y-90919250D03*
X132312000Y-91419250D03*
X132312000Y-91919250D03*
X132312000Y-92419250D03*
X132312000Y-92919250D03*
X132312000Y-93419250D03*
X132312000Y-93919250D03*
X132312000Y-94419250D03*
X132312000Y-94919250D03*
X132312000Y-95419250D03*
X132312000Y-95919250D03*
X132312000Y-96419250D03*
X132312000Y-96919250D03*
X132312000Y-97419250D03*
X132312000Y-97919250D03*
X132312000Y-98419250D03*
X132312000Y-98919250D03*
X132312000Y-99419250D03*
X132312000Y-99919250D03*
X132312000Y-100419250D03*
X132312000Y-100919250D03*
X132312000Y-101419250D03*
X132312000Y-101919250D03*
X132312000Y-102419250D03*
X132312000Y-102919250D03*
X132312000Y-103419250D03*
X132312000Y-103919250D03*
X132312000Y-104419250D03*
X132312000Y-104919250D03*
X132312000Y-105419250D03*
X132312000Y-105919250D03*
D19*
X134300000Y-107907250D03*
X134800000Y-107907250D03*
X135300000Y-107907250D03*
X135800000Y-107907250D03*
X136300000Y-107907250D03*
X136800000Y-107907250D03*
X137300000Y-107907250D03*
X137800000Y-107907250D03*
X138300000Y-107907250D03*
X138800000Y-107907250D03*
X139300000Y-107907250D03*
X139800000Y-107907250D03*
X140300000Y-107907250D03*
X140800000Y-107907250D03*
X141300000Y-107907250D03*
X141800000Y-107907250D03*
X142300000Y-107907250D03*
X142800000Y-107907250D03*
X143300000Y-107907250D03*
X143800000Y-107907250D03*
X144300000Y-107907250D03*
X144800000Y-107907250D03*
X145300000Y-107907250D03*
X145800000Y-107907250D03*
X146300000Y-107907250D03*
X146800000Y-107907250D03*
X147300000Y-107907250D03*
X147800000Y-107907250D03*
X148300000Y-107907250D03*
X148800000Y-107907250D03*
X149300000Y-107907250D03*
X149800000Y-107907250D03*
X150300000Y-107907250D03*
X150800000Y-107907250D03*
X151300000Y-107907250D03*
X151800000Y-107907250D03*
X152300000Y-107907250D03*
X152800000Y-107907250D03*
X153300000Y-107907250D03*
X153800000Y-107907250D03*
X154300000Y-107907250D03*
X154800000Y-107907250D03*
X155300000Y-107907250D03*
X155800000Y-107907250D03*
D20*
X125962500Y-71862500D03*
X122362500Y-71862500D03*
X125962500Y-73162500D03*
X122362500Y-73162500D03*
D21*
X190400000Y-92950000D03*
X190400000Y-94500000D03*
X190900000Y-88075000D03*
X190900000Y-89625000D03*
X175200000Y-85725000D03*
X175200000Y-87275000D03*
D22*
X112600000Y-103612500D03*
X112600000Y-101787500D03*
D15*
X151350000Y-114050000D03*
X149450000Y-114050000D03*
D23*
X170337500Y-88569250D03*
X168262500Y-88569250D03*
D10*
X129900000Y-102150000D03*
X129900000Y-104050000D03*
D24*
X166200000Y-88619250D03*
X166200000Y-86719250D03*
D15*
X130150000Y-87700000D03*
X128250000Y-87700000D03*
D25*
X177000000Y-84100000D03*
X177000000Y-84900000D03*
X177000000Y-85700000D03*
X177000000Y-86500000D03*
X177000000Y-87300000D03*
X177000000Y-88100000D03*
X177000000Y-88900000D03*
X177000000Y-89700000D03*
X177000000Y-90500000D03*
X177000000Y-91300000D03*
X177000000Y-92100000D03*
X177000000Y-92900000D03*
X177000000Y-93700000D03*
X177000000Y-94500000D03*
X177000000Y-95300000D03*
X177000000Y-96100000D03*
X177000000Y-96900000D03*
X177000000Y-97700000D03*
X177000000Y-98500000D03*
X177000000Y-99300000D03*
X177000000Y-100100000D03*
X177000000Y-100900000D03*
X177000000Y-101700000D03*
X177000000Y-102500000D03*
X177000000Y-103300000D03*
X177000000Y-104100000D03*
X177000000Y-104900000D03*
X188456000Y-104900000D03*
X188456000Y-104100000D03*
X188456000Y-103300000D03*
X188456000Y-102500000D03*
X188456000Y-101700000D03*
X188456000Y-100900000D03*
X188456000Y-100100000D03*
X188456000Y-99300000D03*
X188456000Y-98500000D03*
X188456000Y-97700000D03*
X188456000Y-96900000D03*
X188456000Y-96100000D03*
X188456000Y-95300000D03*
X188456000Y-94500000D03*
X188456000Y-93700000D03*
X188456000Y-92900000D03*
X188456000Y-92100000D03*
X188456000Y-91300000D03*
X188456000Y-90500000D03*
X188456000Y-89700000D03*
X188456000Y-88900000D03*
X188456000Y-88100000D03*
X188456000Y-87300000D03*
X188456000Y-86500000D03*
X188456000Y-85700000D03*
X188456000Y-84900000D03*
X188456000Y-84100000D03*
D22*
X118100000Y-110112500D03*
X118100000Y-108287500D03*
D26*
X166200000Y-98700000D03*
D27*
X166200000Y-98200000D03*
X166200000Y-97700000D03*
D26*
X166200000Y-97200000D03*
X165200000Y-97200000D03*
D27*
X165200000Y-97700000D03*
X165200000Y-98200000D03*
D26*
X165200000Y-98700000D03*
D28*
X175200000Y-94475000D03*
X175200000Y-92925000D03*
D14*
X161400000Y-92869250D03*
X163300000Y-92869250D03*
D29*
X122500000Y-77887500D03*
X122500000Y-79712500D03*
D24*
X129900000Y-107850000D03*
X129900000Y-105950000D03*
D14*
X161300000Y-99569250D03*
X163200000Y-99569250D03*
D30*
X175025000Y-83800000D03*
X173475000Y-83800000D03*
D31*
X121800000Y-99300000D03*
X121800000Y-96300000D03*
D26*
X161250000Y-78650000D03*
D27*
X161250000Y-78150000D03*
X161250000Y-77650000D03*
D26*
X161250000Y-77150000D03*
X160250000Y-77150000D03*
D27*
X160250000Y-77650000D03*
X160250000Y-78150000D03*
D26*
X160250000Y-78650000D03*
D15*
X124200000Y-75800000D03*
X122300000Y-75800000D03*
D32*
X167350000Y-94019250D03*
X165250000Y-94019250D03*
X165250000Y-95669250D03*
X167350000Y-95669250D03*
D14*
X162350000Y-104700000D03*
X164250000Y-104700000D03*
D24*
X148900000Y-79750000D03*
X148900000Y-77850000D03*
D26*
X167850000Y-91950000D03*
D27*
X167850000Y-91450000D03*
X167850000Y-90950000D03*
D26*
X167850000Y-90450000D03*
X166850000Y-90450000D03*
D27*
X166850000Y-90950000D03*
X166850000Y-91450000D03*
D26*
X166850000Y-91950000D03*
D13*
X164212500Y-106900000D03*
X162387500Y-106900000D03*
D10*
X129300000Y-89750000D03*
X129300000Y-91650000D03*
D15*
X141650000Y-114700000D03*
X139750000Y-114700000D03*
D33*
X118995000Y-102090000D03*
X118995000Y-102950000D03*
X118995000Y-103810000D03*
X119955000Y-102090000D03*
X119955000Y-102950000D03*
X119955000Y-103810000D03*
D34*
X118000000Y-101950000D03*
X118000000Y-102450000D03*
X118000000Y-102950000D03*
X118000000Y-103450000D03*
X118000000Y-103950000D03*
X120950000Y-103950000D03*
X120950000Y-103450000D03*
X120950000Y-102950000D03*
X120950000Y-102450000D03*
X120950000Y-101950000D03*
D35*
X119225000Y-101400000D03*
X119225000Y-104500000D03*
X119725000Y-101400000D03*
X119725000Y-104500000D03*
D26*
X164150000Y-80850000D03*
D27*
X164150000Y-81350000D03*
X164150000Y-81850000D03*
D26*
X164150000Y-82350000D03*
X165150000Y-82350000D03*
D27*
X165150000Y-81850000D03*
X165150000Y-81350000D03*
D26*
X165150000Y-80850000D03*
D31*
X121800000Y-106600000D03*
X121800000Y-109600000D03*
D15*
X129550000Y-100100000D03*
X127650000Y-100100000D03*
D36*
X117525000Y-113300000D03*
X120475000Y-113300000D03*
D24*
X159850000Y-111000000D03*
X159850000Y-109100000D03*
D32*
X162200000Y-111000000D03*
X164500000Y-111000000D03*
X164500000Y-109100000D03*
X162200000Y-109100000D03*
D13*
X118112500Y-106300000D03*
X116287500Y-106300000D03*
D14*
X149450000Y-111750000D03*
X151350000Y-111750000D03*
D37*
X160675000Y-72000000D03*
X159025000Y-72000000D03*
D26*
X156400000Y-112650000D03*
D27*
X156400000Y-113150000D03*
X156400000Y-113650000D03*
D26*
X156400000Y-114150000D03*
X157400000Y-114150000D03*
D27*
X157400000Y-113650000D03*
X157400000Y-113150000D03*
D26*
X157400000Y-112650000D03*
D38*
X107695000Y-102430000D03*
X107695000Y-103230000D03*
D39*
X107695000Y-104430000D03*
X107695000Y-105430000D03*
X107695000Y-105930000D03*
X107695000Y-106930000D03*
D38*
X107695000Y-108130000D03*
X107695000Y-108930000D03*
X107695000Y-108930000D03*
X107695000Y-108130000D03*
D39*
X107695000Y-107430000D03*
X107695000Y-106430000D03*
X107695000Y-104930000D03*
X107695000Y-103930000D03*
D38*
X107695000Y-103230000D03*
X107695000Y-102430000D03*
D26*
X144500000Y-117450000D03*
D27*
X144500000Y-117950000D03*
X144500000Y-118450000D03*
D26*
X144500000Y-118950000D03*
X145500000Y-118950000D03*
D27*
X145500000Y-118450000D03*
X145500000Y-117950000D03*
D26*
X145500000Y-117450000D03*
D14*
X119450000Y-91500000D03*
X121350000Y-91500000D03*
X113100000Y-99500000D03*
X115000000Y-99500000D03*
D36*
X118625000Y-85000000D03*
X121575000Y-85000000D03*
D24*
X160000000Y-84150000D03*
X160000000Y-82250000D03*
D28*
X175200000Y-90525000D03*
X175200000Y-88975000D03*
D26*
X163100000Y-102850000D03*
D27*
X163100000Y-102350000D03*
X163100000Y-101850000D03*
D26*
X163100000Y-101350000D03*
X162100000Y-101350000D03*
D27*
X162100000Y-101850000D03*
X162100000Y-102350000D03*
D26*
X162100000Y-102850000D03*
D24*
X146600000Y-79750000D03*
X146600000Y-77850000D03*
D15*
X170200000Y-86269250D03*
X168300000Y-86269250D03*
D14*
X135950000Y-79500000D03*
X137850000Y-79500000D03*
D22*
X119400000Y-89512500D03*
X119400000Y-87687500D03*
D40*
X194200000Y-102250000D03*
X194200000Y-101750000D03*
X194200000Y-101250000D03*
X194200000Y-100750000D03*
X194200000Y-100250000D03*
X194200000Y-99750000D03*
X194200000Y-99250000D03*
X194200000Y-98750000D03*
X194200000Y-98250000D03*
X194200000Y-97750000D03*
X194200000Y-97250000D03*
X194200000Y-96750000D03*
X194200000Y-96250000D03*
X194200000Y-95750000D03*
X194200000Y-95250000D03*
X194200000Y-94750000D03*
X194200000Y-94250000D03*
X194200000Y-93750000D03*
X194200000Y-93250000D03*
X194200000Y-92750000D03*
X194200000Y-92250000D03*
X194200000Y-91750000D03*
X194200000Y-91250000D03*
X194200000Y-90750000D03*
X194200000Y-90250000D03*
X194200000Y-89750000D03*
X194200000Y-89250000D03*
X194200000Y-88750000D03*
X194200000Y-88250000D03*
X194200000Y-87750000D03*
X197800000Y-87750000D03*
X197800000Y-88250000D03*
X197800000Y-88750000D03*
X197800000Y-89250000D03*
X197800000Y-89750000D03*
X197800000Y-90250000D03*
X197800000Y-90750000D03*
X197800000Y-91250000D03*
X197800000Y-91750000D03*
X197800000Y-92250000D03*
X197800000Y-92750000D03*
X197800000Y-93250000D03*
X197800000Y-93750000D03*
X197800000Y-94250000D03*
X197800000Y-94750000D03*
X197800000Y-95250000D03*
X197800000Y-95750000D03*
X197800000Y-96250000D03*
X197800000Y-96750000D03*
X197800000Y-97250000D03*
X197800000Y-97750000D03*
X197800000Y-98250000D03*
X197800000Y-98750000D03*
X197800000Y-99250000D03*
X197800000Y-99750000D03*
X197800000Y-100250000D03*
X197800000Y-100750000D03*
X197800000Y-101250000D03*
X197800000Y-101750000D03*
X197800000Y-102250000D03*
D41*
X196000000Y-86050000D03*
X196000000Y-103950000D03*
D42*
X110900000Y-114700000D03*
X111850000Y-114700000D03*
X112800000Y-114700000D03*
X112800000Y-112425000D03*
X111850000Y-112425000D03*
X110900000Y-112425000D03*
D24*
X169800000Y-95794250D03*
X169800000Y-93894250D03*
D11*
X147850000Y-111300000D03*
D12*
X147350000Y-111300000D03*
X146850000Y-111300000D03*
D11*
X146350000Y-111300000D03*
X146350000Y-112300000D03*
D12*
X146850000Y-112300000D03*
X147350000Y-112300000D03*
D11*
X147850000Y-112300000D03*
D24*
X164000000Y-88619250D03*
X164000000Y-86719250D03*
D10*
X145000000Y-113850000D03*
X145000000Y-115750000D03*
D29*
X108900000Y-112287500D03*
X108900000Y-114112500D03*
M02*
